<svg width="198" height="128" viewBox="0 0 198 128" fill="none" xmlns="http://www.w3.org/2000/svg">
<g clip-path="url(#clip0_4291_2095)">
<mask id="mask0_4291_2095" style="mask-type:luminance" maskUnits="userSpaceOnUse" x="0" y="0" width="199" height="128">
<path d="M0 0H198.01V128H0V0Z" fill="white"/>
</mask>
<g mask="url(#mask0_4291_2095)">
<path fill-rule="evenodd" clip-rule="evenodd" d="M0 0H282.15V9.85H0V0ZM0 19.7H282.15V29.55H0V19.7ZM0 39.375H282.15V49.25H0V39.375ZM0 59.075H282.15V68.925H0V59.075ZM0 78.775H282.15V88.625H0V78.775ZM0 98.45H282.15V108.3H0V98.45ZM0 118.15H282.15V128H0V118.15Z" fill="#BD3D44"/>
<path fill-rule="evenodd" clip-rule="evenodd" d="M0 9.8501H282.15V19.7001H0V9.8501ZM0 29.5501H282.15V39.3751H0V29.5501ZM0 49.2251H282.15V59.0751H0V49.2251ZM0 68.9251H282.15V78.7751H0V68.9251ZM0 88.6251H282.15V98.4751H0V88.6251ZM0 108.3H282.15V118.15H0V108.3Z" fill="white"/>
<path fill-rule="evenodd" clip-rule="evenodd" d="M0 0H112.854V68.925H0V0Z" fill="#192F5D"/>
<path fill-rule="evenodd" clip-rule="evenodd" d="M9.39746 2.94995L10.4416 5.67495H13.748L11.0797 7.34995L12.0948 10.1L9.39746 8.39995L6.7291 10.075L7.74424 7.34995L5.04688 5.67495H8.41133L9.39746 2.94995ZM28.221 2.94995L29.2361 5.67495H32.5716L29.8742 7.34995L30.8894 10.1L28.221 8.39995L25.5236 10.075L26.5388 7.34995L23.8704 5.67495H27.1769L28.221 2.94995ZM47.0155 2.94995L48.0597 5.67495H51.3371L48.6688 7.34995L49.6839 10.1L46.9865 8.39995L44.3182 10.075L45.3333 7.34995L42.6359 5.67495H45.9714L47.0155 2.94995ZM65.8391 2.94995L66.8542 5.67495H70.1897L67.4923 7.34995L68.5364 10.1L65.8391 8.39995L63.1417 10.075L64.1858 7.34995L61.4885 5.67495H64.7949L65.8391 2.94995ZM84.6336 2.94995L85.6777 5.67495H88.9842L86.3158 7.34995L87.331 10.1L84.6336 8.39995L81.9652 10.075L82.9804 7.34995L80.312 5.67495H83.6185L84.6336 2.94995ZM103.457 2.94995L104.472 5.67495H107.808L105.11 7.34995L106.154 10.1L103.457 8.39995L100.76 10.075L101.804 7.34995L99.1065 5.67495H102.442L103.457 2.94995ZM18.8237 9.84995L19.8389 12.575H23.1743L20.477 14.25L21.4631 16.975L18.8527 15.3L16.1554 16.975L17.1125 14.25L14.5021 12.575H17.8086L18.8237 9.84995ZM37.6183 9.84995L38.6624 12.575H41.9688L39.2715 14.25L40.3156 16.975L37.6183 15.3L34.9209 16.975L35.965 14.25L33.2677 12.575H36.6031L37.6183 9.84995ZM56.4418 9.84995L57.4569 12.575H60.7924L58.095 14.25L59.1102 16.975L56.4418 15.3L53.7444 16.975L54.7596 14.25L52.0912 12.575H55.3977L56.4418 9.84995ZM75.2363 9.84995L76.2805 12.575H79.5869L76.8896 14.25L77.9337 16.975L75.2363 15.3L72.568 16.975L73.5831 14.25L70.8857 12.575H74.2502L75.2363 9.84995ZM94.0599 9.84995L95.075 12.575H98.4104L95.7131 14.25L96.7282 16.975L94.0599 15.3L91.3625 16.975L92.3776 14.25L89.7093 12.575H93.0157L94.0599 9.84995ZM9.39746 16.725L10.4416 19.4999H13.748L11.0797 21.1749L12.0948 23.8999L9.39746 22.2L6.7291 23.8999L7.74424 21.1499L5.04688 19.4749H8.41133L9.39746 16.725ZM28.221 16.725L29.2361 19.4749H32.5716L29.8742 21.1499L30.8894 23.8749L28.221 22.1749L25.5236 23.8749L26.5388 21.1249L23.8704 19.45H27.1769L28.221 16.725ZM47.0155 16.725L48.0597 19.4749H51.3371L48.6688 21.1499L49.6839 23.8749L46.9865 22.1749L44.3182 23.8749L45.3333 21.1249L42.6359 19.45H45.9714L47.0155 16.725ZM65.8391 16.725L66.8542 19.4749H70.1897L67.4923 21.1499L68.5364 23.8749L65.8391 22.1749L63.1417 23.8749L64.1858 21.1249L61.4885 19.45H64.7949L65.8391 16.725ZM84.6336 16.725L85.6777 19.4749H88.9842L86.3158 21.1499L87.331 23.8749L84.6336 22.1749L81.9652 23.8749L82.9804 21.1249L80.312 19.45H83.6185L84.6336 16.725ZM103.457 16.725L104.472 19.4749H107.808L105.11 21.1499L106.154 23.8749L103.457 22.1749L100.76 23.8749L101.804 21.1249L99.1065 19.45H102.442L103.457 16.725ZM18.8237 23.6249L19.8389 26.3499H23.1743L20.477 28.0249L21.4921 30.7749L18.8237 29.0749L16.1264 30.7499L17.1415 28.0249L14.4731 26.3499H17.7796L18.8237 23.6249ZM37.6183 23.6249L38.6624 26.3499H41.9688L39.2715 28.0249L40.3156 30.7749L37.6183 29.0749L34.9209 30.7499L35.965 28.0249L33.2677 26.3499H36.6031L37.6183 23.6249ZM56.4418 23.6249L57.4569 26.3499H60.7924L58.095 28.0249L59.1102 30.7749L56.4418 29.0749L53.7444 30.7499L54.7596 28.0249L52.0912 26.3499H55.3977L56.4418 23.6249ZM75.2363 23.6249L76.2805 26.3499H79.5869L76.9186 28.0249L77.9337 30.7749L75.2363 29.0749L72.568 30.7499L73.5831 28.0249L70.8857 26.3499H74.2502L75.2363 23.6249ZM94.0599 23.6249L95.075 26.3499H98.4104L95.7131 28.0249L96.7282 30.7749L94.0599 29.0749L91.3625 30.7499L92.3776 28.0249L89.7093 26.3499H93.0157L94.0599 23.6249ZM9.39746 30.5249L10.4416 33.2499H13.748L11.0797 34.9249L12.0948 37.6749L9.39746 35.9749L6.7291 37.6499L7.74424 34.9249L5.04688 33.2499H8.41133L9.39746 30.5249ZM28.221 30.5249L29.2361 33.2499H32.5716L29.8742 34.9249L30.8894 37.6499L28.221 35.9749L25.5236 37.6499L26.5388 34.9249L23.8704 33.2499H27.1769L28.221 30.5249ZM47.0155 30.5249L48.0597 33.2499H51.3371L48.6688 34.9249L49.6839 37.6749L46.9865 35.9749L44.3182 37.6499L45.3333 34.9249L42.6359 33.2499H45.9714L47.0155 30.5249ZM65.8391 30.5249L66.8542 33.2499H70.1897L67.4923 34.9249L68.5364 37.6749L65.8391 35.9749L63.1417 37.6499L64.1858 34.9249L61.4885 33.2499H64.7949L65.8391 30.5249ZM84.6336 30.5249L85.6777 33.2499H88.9842L86.3158 34.9249L87.331 37.6749L84.6336 35.9749L81.9652 37.6499L82.9804 34.9249L80.312 33.2499H83.6185L84.6336 30.5249ZM103.457 30.5249L104.472 33.2499H107.808L105.11 34.9249L106.154 37.6749L103.457 35.9749L100.76 37.6499L101.804 34.9249L99.1065 33.2499H102.442L103.457 30.5249ZM18.8237 37.4249L19.8389 40.1499H23.1743L20.477 41.8249L21.4921 44.5499L18.8237 42.8499L16.1264 44.5499L17.1415 41.7999L14.4731 40.1249H17.7796L18.8237 37.4249ZM37.6183 37.4249L38.6624 40.1499H41.9688L39.2715 41.8249L40.3156 44.5499L37.6183 42.8499L34.9209 44.5499L35.965 41.7999L33.2677 40.1249H36.6031L37.6183 37.4249ZM56.4418 37.4249L57.4569 40.1499H60.7924L58.095 41.8249L59.1102 44.5499L56.4418 42.8499L53.7444 44.5499L54.7596 41.7999L52.0912 40.1249H55.3977L56.4418 37.4249ZM75.2363 37.4249L76.2805 40.1499H79.5869L76.9186 41.8249L77.9337 44.5499L75.2363 42.8499L72.568 44.5499L73.5831 41.7999L70.8857 40.1249H74.2502L75.2363 37.4249ZM94.0599 37.4249L95.075 40.1499H98.4104L95.7131 41.8249L96.7282 44.5499L94.0599 42.8499L91.3625 44.5499L92.3776 41.7999L89.7093 40.1249H93.0157L94.0599 37.4249ZM9.39746 44.2999L10.4416 47.0499H13.748L11.0797 48.7249L12.0948 51.4249L9.39746 49.7499L6.7291 51.4249L7.74424 48.6999L5.04688 47.0249H8.41133L9.39746 44.2999ZM28.221 44.2999L29.2361 47.0499H32.5716L29.8742 48.7249L30.9184 51.4249L28.221 49.7499L25.5236 51.4249L26.5678 48.6999L23.8704 47.0249H27.1769L28.221 44.2999ZM47.0155 44.2999L48.0597 47.0499H51.3371L48.6688 48.7249L49.6839 51.4249L46.9865 49.7499L44.3182 51.4249L45.3333 48.6999L42.6359 47.0249H45.9714L47.0155 44.2999ZM65.8391 44.2999L66.8542 47.0499H70.1897L67.4923 48.7249L68.5364 51.4249L65.8391 49.7499L63.1417 51.4249L64.1858 48.6999L61.4885 47.0249H64.7949L65.8391 44.2999ZM84.6336 44.2999L85.6777 47.0499H88.9842L86.3158 48.7249L87.331 51.4249L84.6336 49.7499L81.9652 51.4249L82.9804 48.6999L80.312 47.0249H83.6185L84.6336 44.2999ZM103.457 44.2999L104.472 47.0499H107.808L105.11 48.7249L106.154 51.4249L103.457 49.7499L100.76 51.4249L101.804 48.6999L99.1065 47.0249H102.442L103.457 44.2999ZM18.8237 51.1999L19.8389 53.9249H23.1743L20.477 55.5999L21.4921 58.3499L18.8237 56.6499L16.1264 58.3249L17.1415 55.5999L14.4731 53.9249H17.7796L18.8237 51.1999ZM37.6183 51.1999L38.6624 53.9249H41.9688L39.2715 55.5999L40.3156 58.3499L37.6183 56.6499L34.9209 58.3249L35.965 55.5999L33.2677 53.9249H36.6031L37.6183 51.1999ZM56.4418 51.1999L57.4569 53.9249H60.7924L58.095 55.5999L59.1102 58.3499L56.4418 56.6499L53.7444 58.3249L54.7596 55.5999L52.0912 53.9249H55.3977L56.4418 51.1999ZM75.2363 51.1999L76.2805 53.9249H79.5869L76.9186 55.5999L77.9337 58.3499L75.2363 56.6499L72.568 58.3249L73.5831 55.5999L70.8857 53.9249H74.2502L75.2363 51.1999ZM94.0599 51.1999L95.075 53.9249H98.4104L95.7131 55.5999L96.7282 58.3499L94.0599 56.6499L91.3625 58.3249L92.3776 55.5999L89.7093 53.9249H93.0157L94.0599 51.1999ZM9.39746 58.0999L10.4416 60.8249H13.748L11.0797 62.4999L12.0948 65.2249L9.39746 63.5499L6.7291 65.2249L7.74424 62.4749L5.04688 60.7999H8.41133L9.39746 58.0999ZM28.221 58.0999L29.2361 60.8249H32.5716L29.8742 62.4999L30.9184 65.2249L28.221 63.5499L25.5236 65.2249L26.5678 62.4749L23.8704 60.7999H27.1769L28.221 58.0999ZM47.0155 58.0999L48.0597 60.8249H51.3371L48.7268 62.4999L49.7419 65.2249L47.0445 63.5499L44.3762 65.2249L45.3913 62.4749L42.6939 60.7999H46.0294L47.0155 58.0999ZM65.8391 58.0999L66.8542 60.8249H70.1897L67.4923 62.4999L68.5364 65.2249L65.8391 63.5499L63.1417 65.2249L64.1858 62.4749L61.4885 60.7999H64.7949L65.8391 58.0999ZM84.6336 58.0999L85.6777 60.8249H88.9842L86.3158 62.4999L87.331 65.2249L84.6336 63.5499L81.9652 65.2249L82.9804 62.4749L80.312 60.7999H83.6185L84.6336 58.0999ZM103.457 58.0999L104.472 60.8249H107.808L105.11 62.4999L106.154 65.2249L103.457 63.5499L100.76 65.2249L101.804 62.4749L99.1065 60.7999H102.442L103.457 58.0999Z" fill="white"/>
</g>
<mask id="mask1_4291_2095" style="mask-type:luminance" maskUnits="userSpaceOnUse" x="0" y="0" width="199" height="128">
<path d="M0 0H198.01V128H0V0Z" fill="white"/>
</mask>
<g mask="url(#mask1_4291_2095)">
<path fill-rule="evenodd" clip-rule="evenodd" d="M0 0H282.15V9.85H0V0ZM0 19.7H282.15V29.55H0V19.7ZM0 39.375H282.15V49.25H0V39.375ZM0 59.075H282.15V68.925H0V59.075ZM0 78.775H282.15V88.625H0V78.775ZM0 98.45H282.15V108.3H0V98.45ZM0 118.15H282.15V128H0V118.15Z" fill="#BD3D44"/>
<path fill-rule="evenodd" clip-rule="evenodd" d="M0 9.8501H282.15V19.7001H0V9.8501ZM0 29.5501H282.15V39.3751H0V29.5501ZM0 49.2251H282.15V59.0751H0V49.2251ZM0 68.9251H282.15V78.7751H0V68.9251ZM0 88.6251H282.15V98.4751H0V88.6251ZM0 108.3H282.15V118.15H0V108.3Z" fill="white"/>
<path fill-rule="evenodd" clip-rule="evenodd" d="M0 0H112.854V68.925H0V0Z" fill="#192F5D"/>
<path fill-rule="evenodd" clip-rule="evenodd" d="M9.39746 2.94995L10.4416 5.67495H13.748L11.0797 7.34995L12.0948 10.1L9.39746 8.39995L6.7291 10.075L7.74424 7.34995L5.04688 5.67495H8.41133L9.39746 2.94995ZM28.221 2.94995L29.2361 5.67495H32.5716L29.8742 7.34995L30.8894 10.1L28.221 8.39995L25.5236 10.075L26.5388 7.34995L23.8704 5.67495H27.1769L28.221 2.94995ZM47.0155 2.94995L48.0597 5.67495H51.3371L48.6688 7.34995L49.6839 10.1L46.9865 8.39995L44.3182 10.075L45.3333 7.34995L42.6359 5.67495H45.9714L47.0155 2.94995ZM65.8391 2.94995L66.8542 5.67495H70.1897L67.4923 7.34995L68.5364 10.1L65.8391 8.39995L63.1417 10.075L64.1858 7.34995L61.4885 5.67495H64.7949L65.8391 2.94995ZM84.6336 2.94995L85.6777 5.67495H88.9842L86.3158 7.34995L87.331 10.1L84.6336 8.39995L81.9652 10.075L82.9804 7.34995L80.312 5.67495H83.6185L84.6336 2.94995ZM103.457 2.94995L104.472 5.67495H107.808L105.11 7.34995L106.154 10.1L103.457 8.39995L100.76 10.075L101.804 7.34995L99.1065 5.67495H102.442L103.457 2.94995ZM18.8237 9.84995L19.8389 12.575H23.1743L20.477 14.25L21.4631 16.975L18.8527 15.3L16.1554 16.975L17.1125 14.25L14.5021 12.575H17.8086L18.8237 9.84995ZM37.6183 9.84995L38.6624 12.575H41.9688L39.2715 14.25L40.3156 16.975L37.6183 15.3L34.9209 16.975L35.965 14.25L33.2677 12.575H36.6031L37.6183 9.84995ZM56.4418 9.84995L57.4569 12.575H60.7924L58.095 14.25L59.1102 16.975L56.4418 15.3L53.7444 16.975L54.7596 14.25L52.0912 12.575H55.3977L56.4418 9.84995ZM75.2363 9.84995L76.2805 12.575H79.5869L76.8896 14.25L77.9337 16.975L75.2363 15.3L72.568 16.975L73.5831 14.25L70.8857 12.575H74.2502L75.2363 9.84995ZM94.0599 9.84995L95.075 12.575H98.4104L95.7131 14.25L96.7282 16.975L94.0599 15.3L91.3625 16.975L92.3776 14.25L89.7093 12.575H93.0157L94.0599 9.84995ZM9.39746 16.725L10.4416 19.4999H13.748L11.0797 21.1749L12.0948 23.8999L9.39746 22.2L6.7291 23.8999L7.74424 21.1499L5.04688 19.4749H8.41133L9.39746 16.725ZM28.221 16.725L29.2361 19.4749H32.5716L29.8742 21.1499L30.8894 23.8749L28.221 22.1749L25.5236 23.8749L26.5388 21.1249L23.8704 19.45H27.1769L28.221 16.725ZM47.0155 16.725L48.0597 19.4749H51.3371L48.6688 21.1499L49.6839 23.8749L46.9865 22.1749L44.3182 23.8749L45.3333 21.1249L42.6359 19.45H45.9714L47.0155 16.725ZM65.8391 16.725L66.8542 19.4749H70.1897L67.4923 21.1499L68.5364 23.8749L65.8391 22.1749L63.1417 23.8749L64.1858 21.1249L61.4885 19.45H64.7949L65.8391 16.725ZM84.6336 16.725L85.6777 19.4749H88.9842L86.3158 21.1499L87.331 23.8749L84.6336 22.1749L81.9652 23.8749L82.9804 21.1249L80.312 19.45H83.6185L84.6336 16.725ZM103.457 16.725L104.472 19.4749H107.808L105.11 21.1499L106.154 23.8749L103.457 22.1749L100.76 23.8749L101.804 21.1249L99.1065 19.45H102.442L103.457 16.725ZM18.8237 23.6249L19.8389 26.3499H23.1743L20.477 28.0249L21.4921 30.7749L18.8237 29.0749L16.1264 30.7499L17.1415 28.0249L14.4731 26.3499H17.7796L18.8237 23.6249ZM37.6183 23.6249L38.6624 26.3499H41.9688L39.2715 28.0249L40.3156 30.7749L37.6183 29.0749L34.9209 30.7499L35.965 28.0249L33.2677 26.3499H36.6031L37.6183 23.6249ZM56.4418 23.6249L57.4569 26.3499H60.7924L58.095 28.0249L59.1102 30.7749L56.4418 29.0749L53.7444 30.7499L54.7596 28.0249L52.0912 26.3499H55.3977L56.4418 23.6249ZM75.2363 23.6249L76.2805 26.3499H79.5869L76.9186 28.0249L77.9337 30.7749L75.2363 29.0749L72.568 30.7499L73.5831 28.0249L70.8857 26.3499H74.2502L75.2363 23.6249ZM94.0599 23.6249L95.075 26.3499H98.4104L95.7131 28.0249L96.7282 30.7749L94.0599 29.0749L91.3625 30.7499L92.3776 28.0249L89.7093 26.3499H93.0157L94.0599 23.6249ZM9.39746 30.5249L10.4416 33.2499H13.748L11.0797 34.9249L12.0948 37.6749L9.39746 35.9749L6.7291 37.6499L7.74424 34.9249L5.04688 33.2499H8.41133L9.39746 30.5249ZM28.221 30.5249L29.2361 33.2499H32.5716L29.8742 34.9249L30.8894 37.6499L28.221 35.9749L25.5236 37.6499L26.5388 34.9249L23.8704 33.2499H27.1769L28.221 30.5249ZM47.0155 30.5249L48.0597 33.2499H51.3371L48.6688 34.9249L49.6839 37.6749L46.9865 35.9749L44.3182 37.6499L45.3333 34.9249L42.6359 33.2499H45.9714L47.0155 30.5249ZM65.8391 30.5249L66.8542 33.2499H70.1897L67.4923 34.9249L68.5364 37.6749L65.8391 35.9749L63.1417 37.6499L64.1858 34.9249L61.4885 33.2499H64.7949L65.8391 30.5249ZM84.6336 30.5249L85.6777 33.2499H88.9842L86.3158 34.9249L87.331 37.6749L84.6336 35.9749L81.9652 37.6499L82.9804 34.9249L80.312 33.2499H83.6185L84.6336 30.5249ZM103.457 30.5249L104.472 33.2499H107.808L105.11 34.9249L106.154 37.6749L103.457 35.9749L100.76 37.6499L101.804 34.9249L99.1065 33.2499H102.442L103.457 30.5249ZM18.8237 37.4249L19.8389 40.1499H23.1743L20.477 41.8249L21.4921 44.5499L18.8237 42.8499L16.1264 44.5499L17.1415 41.7999L14.4731 40.1249H17.7796L18.8237 37.4249ZM37.6183 37.4249L38.6624 40.1499H41.9688L39.2715 41.8249L40.3156 44.5499L37.6183 42.8499L34.9209 44.5499L35.965 41.7999L33.2677 40.1249H36.6031L37.6183 37.4249ZM56.4418 37.4249L57.4569 40.1499H60.7924L58.095 41.8249L59.1102 44.5499L56.4418 42.8499L53.7444 44.5499L54.7596 41.7999L52.0912 40.1249H55.3977L56.4418 37.4249ZM75.2363 37.4249L76.2805 40.1499H79.5869L76.9186 41.8249L77.9337 44.5499L75.2363 42.8499L72.568 44.5499L73.5831 41.7999L70.8857 40.1249H74.2502L75.2363 37.4249ZM94.0599 37.4249L95.075 40.1499H98.4104L95.7131 41.8249L96.7282 44.5499L94.0599 42.8499L91.3625 44.5499L92.3776 41.7999L89.7093 40.1249H93.0157L94.0599 37.4249ZM9.39746 44.2999L10.4416 47.0499H13.748L11.0797 48.7249L12.0948 51.4249L9.39746 49.7499L6.7291 51.4249L7.74424 48.6999L5.04688 47.0249H8.41133L9.39746 44.2999ZM28.221 44.2999L29.2361 47.0499H32.5716L29.8742 48.7249L30.9184 51.4249L28.221 49.7499L25.5236 51.4249L26.5678 48.6999L23.8704 47.0249H27.1769L28.221 44.2999ZM47.0155 44.2999L48.0597 47.0499H51.3371L48.6688 48.7249L49.6839 51.4249L46.9865 49.7499L44.3182 51.4249L45.3333 48.6999L42.6359 47.0249H45.9714L47.0155 44.2999ZM65.8391 44.2999L66.8542 47.0499H70.1897L67.4923 48.7249L68.5364 51.4249L65.8391 49.7499L63.1417 51.4249L64.1858 48.6999L61.4885 47.0249H64.7949L65.8391 44.2999ZM84.6336 44.2999L85.6777 47.0499H88.9842L86.3158 48.7249L87.331 51.4249L84.6336 49.7499L81.9652 51.4249L82.9804 48.6999L80.312 47.0249H83.6185L84.6336 44.2999ZM103.457 44.2999L104.472 47.0499H107.808L105.11 48.7249L106.154 51.4249L103.457 49.7499L100.76 51.4249L101.804 48.6999L99.1065 47.0249H102.442L103.457 44.2999ZM18.8237 51.1999L19.8389 53.9249H23.1743L20.477 55.5999L21.4921 58.3499L18.8237 56.6499L16.1264 58.3249L17.1415 55.5999L14.4731 53.9249H17.7796L18.8237 51.1999ZM37.6183 51.1999L38.6624 53.9249H41.9688L39.2715 55.5999L40.3156 58.3499L37.6183 56.6499L34.9209 58.3249L35.965 55.5999L33.2677 53.9249H36.6031L37.6183 51.1999ZM56.4418 51.1999L57.4569 53.9249H60.7924L58.095 55.5999L59.1102 58.3499L56.4418 56.6499L53.7444 58.3249L54.7596 55.5999L52.0912 53.9249H55.3977L56.4418 51.1999ZM75.2363 51.1999L76.2805 53.9249H79.5869L76.9186 55.5999L77.9337 58.3499L75.2363 56.6499L72.568 58.3249L73.5831 55.5999L70.8857 53.9249H74.2502L75.2363 51.1999ZM94.0599 51.1999L95.075 53.9249H98.4104L95.7131 55.5999L96.7282 58.3499L94.0599 56.6499L91.3625 58.3249L92.3776 55.5999L89.7093 53.9249H93.0157L94.0599 51.1999ZM9.39746 58.0999L10.4416 60.8249H13.748L11.0797 62.4999L12.0948 65.2249L9.39746 63.5499L6.7291 65.2249L7.74424 62.4749L5.04688 60.7999H8.41133L9.39746 58.0999ZM28.221 58.0999L29.2361 60.8249H32.5716L29.8742 62.4999L30.9184 65.2249L28.221 63.5499L25.5236 65.2249L26.5678 62.4749L23.8704 60.7999H27.1769L28.221 58.0999ZM47.0155 58.0999L48.0597 60.8249H51.3371L48.7268 62.4999L49.7419 65.2249L47.0445 63.5499L44.3762 65.2249L45.3913 62.4749L42.6939 60.7999H46.0294L47.0155 58.0999ZM65.8391 58.0999L66.8542 60.8249H70.1897L67.4923 62.4999L68.5364 65.2249L65.8391 63.5499L63.1417 65.2249L64.1858 62.4749L61.4885 60.7999H64.7949L65.8391 58.0999ZM84.6336 58.0999L85.6777 60.8249H88.9842L86.3158 62.4999L87.331 65.2249L84.6336 63.5499L81.9652 65.2249L82.9804 62.4749L80.312 60.7999H83.6185L84.6336 58.0999ZM103.457 58.0999L104.472 60.8249H107.808L105.11 62.4999L106.154 65.2249L103.457 63.5499L100.76 65.2249L101.804 62.4749L99.1065 60.7999H102.442L103.457 58.0999Z" fill="white"/>
</g>
</g>
<defs>
<clipPath id="clip0_4291_2095">
<rect width="198" height="128" fill="white"/>
</clipPath>
</defs>
</svg>
