<svg xmlns="http://www.w3.org/2000/svg" width="843" height="572" fill="none" viewBox="0 0 843 572">
  <path fill="#E8E8E8" d="M244.974 458.458c-.874 6.476-3.494 12.279-7.802 16.983-.757.855.466 2.138 1.222 1.283 4.484-4.948 7.337-11.057 8.21-17.838.175-1.1-1.514-1.588-1.63-.428Z"/>
  <path fill="#E8E8E8" d="M245.207 459.497a56.658 56.658 0 0 0 8.733 14.356c.757.916 1.98-.428 1.223-1.283-3.552-4.215-6.347-8.858-8.443-13.989-.407-1.1-1.921-.184-1.513.916Zm-6.347 16.86c-.058-.122-.174-.305-.233-.427l-1.397 1.099c3.784 3.421 6.812 7.514 9.025 12.218.465 1.038 1.979.122 1.513-.916-2.27-4.826-5.356-9.102-9.257-12.646-.757-.672-1.863.184-1.398 1.1.059.122.175.305.233.428.524 1.099 2.038.183 1.514-.856Z"/>
  <path fill="#E8E8E8" d="M247.943 488.697a84.239 84.239 0 0 1 7.045-14.233c.582-.978-.873-1.894-1.514-.917-2.853 4.643-5.24 9.53-7.219 14.723-.408 1.038 1.281 1.527 1.688.427ZM46.955 255.89c-2.038 6.108-4.192 12.217-8.152 17.288-.698.916.524 2.199 1.223 1.282 4.134-5.314 6.463-11.667 8.617-18.082.35-1.099-1.339-1.588-1.688-.488Z"/>
  <path fill="#E8E8E8" d="M46.955 256.378c1.28 2.994 1.688 6.476 2.678 9.591a74.054 74.054 0 0 0 3.319 8.43c.465 1.039 1.98.123 1.514-.916-1.514-3.299-2.795-6.659-3.785-10.08-.757-2.626-1.164-5.436-2.212-7.941-.466-1.1-1.922-.122-1.514.916Zm-7.744 18.021c1.689.733 2.853 4.215 3.552 5.865 1.048 2.382 1.805 4.826 2.387 7.392.291 1.16 1.98.671 1.688-.489a49.152 49.152 0 0 0-3.144-9.102c-.931-2.016-1.921-4.521-4.017-5.437-1.048-.489-1.456 1.283-.466 1.771Z"/>
  <path fill="#E8E8E8" d="M46.896 288.022A106.13 106.13 0 0 1 54 274.46c.64-.977-.874-1.893-1.514-.916a106.064 106.064 0 0 0-7.103 13.562c-.466 1.099 1.048 2.016 1.513.916Zm72.547-136.227c-1.339 5.009-3.61 9.469-6.812 13.378-.757.917.524 2.2 1.223 1.283 3.435-4.154 5.88-8.919 7.278-14.172.291-1.1-1.398-1.588-1.689-.489Z"/>
  <path fill="#E8E8E8" d="M119.327 152.711c1.048 4.582 2.096 9.958 5.007 13.684.699.917 1.921-.366 1.223-1.283-2.679-3.36-3.61-8.674-4.542-12.828-.233-1.222-1.921-.733-1.688.427Zm-7.104 14.234c1.573.916 2.853 4.582 3.61 6.292a45.018 45.018 0 0 1 2.504 7.147c.291 1.161 1.98.672 1.688-.488-.815-2.933-1.804-5.743-3.085-8.492-.874-1.893-1.98-5.009-3.843-6.108-.99-.489-1.863 1.038-.874 1.649Z"/>
  <path fill="#E8E8E8" d="M120.142 179.957a92.058 92.058 0 0 1 5.415-13.44c.524-1.038-.99-1.954-1.514-.916a97.882 97.882 0 0 0-5.589 13.867c-.35 1.1 1.339 1.588 1.688.489Zm365.47 144.657c-1.28 3.421-2.678 6.903-5.531 9.224-.873.733.35 2.016 1.223 1.283 3.086-2.504 4.6-6.292 5.939-10.018.466-1.1-1.223-1.589-1.631-.489Z"/>
  <path fill="#E8E8E8" d="M486.253 325.53c.873 3.116 2.212 5.987 4.076 8.553.64.916 2.212 0 1.513-.917-1.746-2.443-3.085-5.131-3.901-8.124-.349-1.161-2.037-.672-1.688.488Zm-5.822 9.774c1.921 2.505 3.26 5.315 4.075 8.37.291 1.16 1.98.671 1.689-.489-.874-3.421-2.446-6.476-4.542-9.225-.698-.855-1.921.428-1.222 1.344Z"/>
  <path fill="#E8E8E8" d="M486.136 344.284c1.572-3.726 3.494-7.208 5.823-10.446.698-.916-.815-1.832-1.514-.916-2.329 3.238-4.309 6.72-5.822 10.446-.466 1.039 1.048 1.955 1.513.916ZM591.23 466.522a29.328 29.328 0 0 1-5.356 9.774c-.757.917.524 2.199 1.222 1.283 2.621-3.115 4.542-6.658 5.823-10.568.349-1.1-1.339-1.588-1.689-.489Z"/>
  <path fill="#E8E8E8" d="M591.114 468.049c.815 1.589.99 3.482 1.688 5.193a21.957 21.957 0 0 0 2.446 4.459c.64.917 2.154 0 1.514-.916a19.289 19.289 0 0 1-2.62-5.009c-.524-1.527-.757-3.177-1.514-4.643-.524-1.038-2.038-.122-1.514.916Z"/>
  <path fill="#E8E8E8" d="M585.932 477.09a28.324 28.324 0 0 1 3.319 7.453c.174.733 1.222.978 1.572.245 1.222-2.566 2.911-4.765 5.182-6.415.931-.672.058-2.26-.874-1.588a19.286 19.286 0 0 0-5.822 7.086c.524.061 1.048.122 1.572.245a31.644 31.644 0 0 0-3.493-7.881c-.583-1.038-2.096-.122-1.456.855Z"/>
  <path stroke="#E8E8E8" stroke-width="3" d="m609.396 220.092-5.997-2.444-5.298 3.727.349-6.72-5.065-4.154 6.23-1.71 2.212-6.354 3.494 5.743 6.404.244-4.076 5.192 1.747 6.476Z" clip-rule="evenodd"/>
  <path fill="#E8E8E8" d="M599.149 198.894c8.85-15.7 19.679-29.994 32.372-42.517.815-.794-.407-2.077-1.222-1.283-12.751 12.584-23.756 27.001-32.664 42.884-.582 1.038.932 1.955 1.514.916Zm12.576-3.054c14.207-22.297 32.081-41.785 52.751-57.545.873-.672.058-2.261-.873-1.589-20.903 15.944-39.01 35.676-53.333 58.217-.699.978.815 1.894 1.455.917Zm3.144 17.593a358.209 358.209 0 0 1 21.834-25.535c.815-.855-.466-2.138-1.223-1.283-7.685 8.125-14.963 16.678-21.833 25.535-.699.856.524 2.2 1.222 1.283ZM415.453 103.596c-4.658-9.957 5.356-19.426 13.973-21.014 10.714-1.955 21.893 1.955 32.606 2.871 20.378 1.772 41.164-.733 60.611-7.208 9.839-3.299 19.272-7.575 28.296-12.768 9.666-5.559 18.923-11.85 28.647-17.288 9.723-5.498 20.087-10.14 31.091-12.034 10.83-1.894 21.601-.428 31.732 3.91 9.49 4.092 19.156 10.201 26.55 17.715 7.627 7.758 10.073 18.266 5.706 28.65-8.734 20.587-33.945 23.703-52.809 24.497-20.32.855-41.164-1.222-60.96 4.643-20.088 5.986-34.993 21.442-52.46 32.499-17.816 11.301-38.486 19.059-59.563 17.593-17.758-1.222-35.691-9.896-46.812-24.741a54.444 54.444 0 0 1-6.754-11.973c-.465-1.1-1.979-.122-1.513.916 7.277 17.533 22.881 29.628 40.057 34.821 19.855 5.986 40.99 2.138 59.563-6.415 10.306-4.764 19.796-10.995 28.938-17.898 8.908-6.72 17.758-13.806 27.714-18.693 21.077-10.385 44.949-8.247 67.54-8.858 18.806-.489 42.969-2.199 55.138-19.67 5.065-7.27 7.51-17.105 4.483-25.841-3.377-9.53-12.111-15.822-19.913-21.076-8.966-6.047-18.922-10.873-29.519-12.34-11.005-1.588-22.125.611-32.489 4.582-22.009 8.492-40.407 24.558-62.125 33.721-20.902 8.858-43.668 12.89-66.142 11.668-6.113-.306-12.227-1.1-18.282-2.138-5.299-.917-10.655-1.894-16.07-1.527-8.384.55-16.594 4.948-19.505 13.683-1.164 3.544-.99 7.148.582 10.508a.933.933 0 0 0 1.689-.795Z"/>
  <path fill="#E8E8E8" d="M440.955 96.327c30.102 4.154 61.018.916 89.723-9.469 27.714-10.018 52.983-29.994 82.794-32.621 14.847-1.344 30.393 1.772 41.863 12.279.815.794 2.096-.489 1.222-1.283-20.727-19.06-50.771-14.356-74.235-4.276-14.323 6.109-27.889 14.111-42.212 20.281-14.672 6.292-30.044 10.63-45.706 13.012-17.7 2.688-35.691 2.749-53.391.305-1.164-.244-1.164 1.589-.058 1.772Zm45.938 35.309c11.703-.977 22.125-6.659 32.082-12.768 10.888-6.658 21.484-13.439 33.886-16.493 26.725-6.537 54.556.794 81.397-5.07 11.936-2.628 26.375-10.264 25.211-25.352-.117-1.161-1.864-1.161-1.747 0 1.164 15.455-14.614 21.87-26.434 24.068-12.925 2.383-26.142 2.016-39.184 1.772-12.577-.244-25.328-.367-37.729 2.382-11.47 2.505-21.543 8.003-31.558 14.173-11.237 6.903-22.707 14.356-35.982 15.455-1.048.061-1.048 1.894.058 1.833Zm45.648 13.806c13.449-9.896 27.831-18.999 43.9-23.275 17.468-4.642 35.633-3.115 53.392-1.649 1.106.122 1.106-1.711 0-1.833-17.933-1.527-36.274-2.993-53.857 1.711-16.186 4.337-30.742 13.439-44.309 23.458-.931.733-.058 2.321.874 1.588Zm-366.985-34.148c-3.493-2.383-6.462-5.743-7.452-10.141-.932-4.093.407-8.919 3.843-11.363 3.493-2.504 8.093-1.405 12.052-1.71 3.202-.244 6.346-1.1 9.257-2.444 13.217-5.925 21.31-19.12 31.267-29.26 5.065-5.132 11.12-10.142 18.165-11.79 6.521-1.528 15.197.121 16.827 8.124 1.921 9.346-6.346 16.25-12.809 20.83-7.395 5.193-14.789 10.325-22.183 15.517-8.035 5.62-15.954 11.546-24.222 16.8-7.685 4.948-17.408 8.857-25.909 3.604-.99-.611-1.863.977-.873 1.588 6.986 4.337 15.312 3.055 22.357-.489 9.083-4.52 17.409-11.423 25.735-17.226 8.676-6.048 17.351-12.035 26.026-18.144 6.347-4.46 13.043-10.018 13.799-18.632.641-7.208-4.017-12.706-10.655-13.928-7.161-1.344-14.206 1.772-19.97 5.987-14.149 10.385-22.416 28.956-39.01 35.798-2.504 1.038-5.124 1.71-7.744 1.954-2.562.184-5.124-.122-7.685.184-3.843.427-6.987 2.382-8.792 5.986-3.901 7.82.757 16.067 7.161 20.404.874.55 1.747-.978.815-1.649Zm50.073-74.467c-1.106-8.003 8.442-10.324 13.624-12.89 2.678-1.344 5.066-3.115 7.511-4.826 1.223-.855 2.445-1.71 3.726-2.443 1.514-.855 3.377-2.2 4.658-.489.932 1.222.524 1.527-.058 2.871-.291.611-.582 1.283-.932 1.894-.815 1.527-1.746 3.054-2.911 4.337-2.387 2.627-5.822 2.994-8.908 4.276a41.296 41.296 0 0 0-6.87 3.604c-2.737 1.833-6.172 5.926-9.666 3.85-.989-.612-1.863.976-.873 1.587 3.086 1.833 5.997.184 8.617-1.771 4.076-3.055 8.268-5.254 13.042-6.781 3.785-1.222 6.172-3.238 8.326-6.78 1.223-2.017 4.018-6.17 2.213-8.614-1.63-2.138-4.774-.978-6.696 0-4.076 2.199-7.569 5.376-11.703 7.514-6.23 3.176-16.128 5.742-14.847 15.21.233 1.1 1.921.611 1.747-.55Z"/>
  <path fill="#E8E8E8" d="M168.526 100.237c-1.805-.306-1.572-1.955-1.164-3.055.524-1.344 1.63-1.832 2.911-2.26 1.397-.428 2.969-.489 4.425-.672a41.996 41.996 0 0 0 9.432-2.75c5.822-2.504 11.121-6.108 16.012-10.2 5.531-4.644 10.538-9.836 15.72-14.906 5.065-5.01 10.713-11.302 18.224-11.057l-.873-.917c.64 7.148-5.648 11.912-10.597 15.578-5.939 4.398-11.82 8.858-17.758 13.256-5.473 4.093-10.888 8.37-16.478 12.218-2.794 1.893-5.706 3.726-8.85 4.948-3.027 1.16-7.743 2.932-10.247-.061-.757-.855-1.98.427-1.223 1.283 3.959 4.703 11.936.855 16.186-1.467 7.337-3.97 13.916-9.651 20.67-14.66 6.987-5.254 14.148-10.325 21.077-15.761 4.716-3.727 9.665-8.675 9.083-15.395-.058-.489-.35-.916-.874-.916-7.86-.244-13.799 5.986-19.097 11.24-6.696 6.598-13.159 13.5-20.728 18.938-3.61 2.565-7.452 4.826-11.528 6.475-3.959 1.588-7.918 2.077-12.052 2.932-2.387.489-4.833 1.65-5.299 4.398-.349 2.078.583 4.277 2.737 4.643.931.122 1.455-1.649.291-1.832Zm-48.792 100.551c-1.804 3.054-.931 7.086 1.747 9.346 3.959 3.299 8.21-.244 11.587-2.626 2.794-2.016 6.812-3.36 8.733.549.874 1.833 1.165 3.971 1.98 5.865.582 1.405 1.397 2.627 2.795 3.238 2.678 1.221 5.298-.917 8.034-.489 1.107.183 1.572-1.588.466-1.772-1.979-.305-3.551.428-5.473.733-3.26.428-4.134-1.832-4.949-4.52-.815-2.688-1.572-5.804-4.25-7.025-3.435-1.589-6.929.977-9.665 2.932-2.213 1.649-5.124 3.726-7.86 1.955-2.271-1.527-3.028-4.826-1.631-7.209.582-1.099-.931-2.016-1.514-.977Zm33.537-3.604c-1.164 3.237 1.048 5.925 3.843 7.025 2.445.977 15.255 1.649 14.556 5.803-.175 1.161 1.455 1.65 1.688.489 1.689-9.469-21.601-3.971-18.398-12.829.407-1.099-1.281-1.588-1.689-.488Zm29.287 239.344c1.106 1.832 2.969 1.16 3.784-.611 1.863-3.971 1.747-8.675 5.939-11.179 4.367-2.627 7.162 1.71 11.296 2.199 3.202.366 6.346-1.405 8.5-3.726 2.62-2.872 4.018-6.659 5.823-10.141 1.048-2.016 2.445-3.055 4.425-1.405.64.55 1.164 1.222 1.746 1.771.815.733 1.689 1.405 2.737 1.833 5.007 2.26 11.179.122 13.857-4.765.582-1.038-.931-1.955-1.514-.916a9.11 9.11 0 0 1-8.035 4.765c-3.842 0-5.356-2.383-8.209-4.521-5.357-4.032-7.686 5.132-9.665 8.675-2.271 3.97-6.23 7.941-11.005 6.231-2.678-.978-4.716-3.055-7.743-2.627-2.504.305-4.658 1.955-6.114 4.032-.815 1.16-1.397 2.443-1.921 3.726a38.86 38.86 0 0 0-.932 2.81c-.116.306-1.106 3.36-1.397 2.932-.699-.977-2.213-.061-1.572.917Zm37.263-7.27c.815-6.903 10.247-1.955 13.741-1.588 3.26.366 6.055-.794 7.627-3.91 1.048-2.138 1.397-4.765 3.959-5.681 2.096-.733 4.6-.244 6.754-.55 4.018-.611 7.744-2.199 11.063-4.642.931-.672.058-2.261-.874-1.589-2.329 1.711-4.832 3.055-7.569 3.849-2.678.733-5.24.672-7.976.916-4.309.428-5.008 3.299-6.813 6.842-3.318 6.414-10.305.733-15.312.916-3.144.123-5.881 2.138-6.289 5.498-.232 1.1 1.514 1.1 1.689-.061ZM253.3 290.099c-.35 3.604-1.98 6.781-4.542 9.163-.815.794.408 2.077 1.223 1.283 2.969-2.749 4.658-6.353 5.065-10.446.117-1.161-1.63-1.161-1.746 0Z"/>
  <path fill="#E8E8E8" d="M254.057 292.359c.465 2.871 1.863 5.498 4.017 7.392.873.794 2.096-.55 1.223-1.283-1.922-1.71-3.144-3.971-3.552-6.597-.175-1.161-1.863-.672-1.688.488Zm-5.532 9.652c1.922 2.383 3.144 5.132 3.668 8.186.233 1.161 1.922.672 1.689-.489a20.318 20.318 0 0 0-4.134-8.98c-.699-.916-1.921.428-1.223 1.283Z"/>
  <path fill="#E8E8E8" d="M254.814 309.831c.756-3.055 2.037-5.804 3.901-8.308.698-.917-.525-2.2-1.223-1.283-2.096 2.688-3.552 5.742-4.367 9.102-.291 1.161 1.397 1.649 1.689.489Zm225.733 100.184c-.466 3.788 2.562 6.598 6.055 6.903 6.114.428 9.782-6.536 15.488-7.636 4.25-.794 5.822 2.749 8.093 5.682 1.339 1.649 3.028 2.871 5.007 3.482 4.018 1.283 8.501.061 11.354-3.177.757-.855-.466-2.138-1.223-1.283-2.969 3.36-8.035 4.215-11.761 1.65-3.319-2.2-4.192-6.964-8.21-8.125-3.61-1.039-7.219 1.099-10.014 3.238-1.805 1.405-3.61 2.932-5.764 3.726-2.679.977-7.802.183-7.22-4.032 0-1.1-1.63-1.588-1.805-.428Zm20.728 18.449c4.25-2.26 9.199-2.566 13.566-.611 3.202 1.466 5.589 4.093 9.316 3.91 3.318-.122 6.288-2.016 9.141-3.665 3.551-2.016 10.422-4.643 12.285 1.16.349 1.1 2.038.611 1.688-.488-1.048-3.116-3.842-4.826-6.928-4.949-4.775-.122-8.559 3.605-12.809 5.254-3.261 1.283-5.823.794-8.792-1.038-1.922-1.222-3.785-2.322-5.997-2.872-4.251-1.038-8.559-.366-12.402 1.65-.931.611-.058 2.138.932 1.649Zm-68.122 107.21c.291 5.559-1.514 10.691-5.182 14.722l1.397 1.1c1.572-2.382 2.737-4.948 3.61-7.697.35-1.1-1.339-1.588-1.688-.489-.815 2.627-1.922 5.009-3.435 7.27-.583.855.698 1.832 1.397 1.099 3.959-4.398 5.939-10.018 5.648-16.005-.059-1.161-1.805-1.161-1.747 0Z"/>
  <path fill="#E8E8E8" d="M433.211 535.918c1.048 5.071 3.319 9.591 6.754 13.318.757.855 2.038-.428 1.223-1.283-3.203-3.543-5.299-7.758-6.288-12.523-.233-1.161-1.922-.672-1.689.488Zm-5.473 17.227a44.77 44.77 0 0 1 7.511 11.668c.466 1.1 1.98.122 1.514-.916-1.98-4.46-4.542-8.491-7.802-12.034-.757-.917-1.98.427-1.223 1.282Z"/>
  <path fill="#E8E8E8" d="M436.588 564.813c1.863-4.643 3.785-9.224 5.648-13.867.466-1.099-1.048-2.016-1.514-.916-1.863 4.643-3.785 9.224-5.648 13.867-.407 1.099 1.107 2.016 1.514.916ZM284.216 553.39c7.919 8.124 17.409 14.172 27.89 17.838 1.048.366 1.513-1.406.465-1.772-10.247-3.604-19.446-9.469-27.132-17.41-.757-.794-1.979.489-1.223 1.344Zm19.156 4.032c9.199 5.314 19.272 8.43 29.752 9.224 1.107.061 1.107-1.772 0-1.833-10.189-.733-19.97-3.787-28.878-8.98-.932-.611-1.805.978-.874 1.589ZM526.078 307.57a127.703 127.703 0 0 0 10.014 34.698c.466 1.039 1.98.123 1.514-.916a124.55 124.55 0 0 1-9.84-34.27c-.174-1.161-1.863-.672-1.688.488Zm38.486-33.782c2.154 11.607 5.298 22.909 9.49 33.905.408 1.099 2.096.61 1.689-.489-4.134-10.996-7.336-22.297-9.491-33.904-.233-1.161-1.921-.672-1.688.488Zm11.703 27.857c4.075 11.301 9.549 21.992 16.419 31.705.64.916 2.154 0 1.514-.917a131.62 131.62 0 0 1-16.245-31.277c-.407-1.1-2.096-.611-1.688.489ZM314.26 183.683c1.747-9.713 5.822-18.632 11.994-26.085.757-.916-.524-2.199-1.223-1.282a58.364 58.364 0 0 0-12.46 26.878c-.232 1.161 1.456 1.65 1.689.489Zm-6.929.183c.699-5.009 2.62-9.468 5.764-13.317.757-.916-.524-2.199-1.222-1.283-3.319 4.032-5.473 8.797-6.23 14.112-.175 1.099 1.514 1.649 1.688.488ZM431.581 2.19c6.172 7.27 10.538 15.944 12.751 25.474.291 1.16 1.979.672 1.688-.49-2.27-9.773-6.754-18.692-13.158-26.267-.757-.855-2.038.428-1.281 1.283Zm14.963 7.82c3.435 8.002 5.532 16.554 6.23 25.29.117 1.16 1.863 1.16 1.747 0-.699-9.102-2.853-17.9-6.463-26.207-.466-1.1-1.98-.184-1.514.916Z"/>
  <ellipse cx="610.095" cy="58.269" fill="#EC615B" rx="30.859" ry="31.827"/>
  <ellipse cx="596.005" cy="158.576" fill="#5222D0" rx="16.71" ry="17.96"/>
  <ellipse cx="91.729" cy="97.182" fill="#5222D0" rx="36.157" ry="37.203"/>
  <ellipse cx="517.869" cy="462.49" fill="#EC615B" rx="34.119" ry="35.248"/>
  <path fill="#5222D0" d="M92.195 190.464c1.106 0 1.106-1.833 0-1.833-1.107 0-1.165 1.833 0 1.833Z"/>
  <path fill="#5222D0" d="M91.438 193.213c4.483 0 4.483-7.331 0-7.331-4.484 0-4.484 7.331 0 7.331ZM531.551 79.894c4.483 0 4.483-7.33 0-7.33s-4.483 7.33 0 7.33Zm-14.148 241.421c4.483 0 4.483-7.33 0-7.33-4.484 0-4.484 7.33 0 7.33Zm-498.279 6.598c-2.678 2.688-.291 6.842 2.97 7.208 2.212.244 7.452-2.443 7.452 1.405 0 1.894-.466 3.849.524 5.559.815 1.405 2.27 2.077 3.843 2.016 2.329-.061 4.483-2.443 5.822.489.757 1.71.873 3.237 2.736 4.093 1.63.794 3.086.305 4.076-1.222 1.281-1.955-1.746-3.788-3.027-1.833.407-.611-.99-3.97-1.456-4.581-.64-.917-1.572-1.589-2.678-1.772-1.165-.244-2.33.122-3.436.489-1.746.55-3.144.977-3.085-1.466.116-2.505.349-5.254-1.98-6.842-1.048-.733-2.329-.855-3.552-.794-.757.061-1.455.183-2.154.366-.524.122-4.832.672-3.61-.55 1.63-1.588-.815-4.154-2.445-2.565Zm18.107-2.016c.35 2.077.757 4.215 1.107 6.292.116.794.99 1.344 1.688 1.344 2.213-.061 3.435-1.222 5.298-2.199 3.086-1.65 2.155 1.344 2.62 3.482.35 1.527 1.165 2.688 2.62 3.237 2.737.978 5.066.917 7.453 2.994 1.747 1.466 4.192-1.1 2.446-2.566-1.922-1.649-4.018-2.932-6.463-3.421-.64-.122-1.398-.122-2.038-.489-.932-.549-.699-.855-.699-2.016-.058-.977-.058-1.954-.407-2.932-.699-1.71-2.33-2.566-4.076-2.443-2.562.183-4.25 2.81-6.754 2.81.582.427 1.106.916 1.689 1.344-.35-2.077-.757-4.215-1.107-6.292-.407-2.444-3.784-1.467-3.377.855Z"/>
  <path fill="#EC615B" d="M235.891 75.251c1.048-1.466 2.212-1.71 3.493-.61.699.916 1.048 1.893 1.048 3.054.059 1.1-.407 2.138-.465 3.238-.059.977.058 1.893.815 2.504 1.63 1.283 3.842-.305 4.832-1.71.466-.672.874-1.955 1.514-2.383 2.562-1.771 2.387.794 2.853 1.894.349.916.815 1.588 1.63 2.016 2.853 1.466 5.182-1.466 6.521-3.726.583-.978-.931-1.894-1.513-.917-.874 1.405-3.086 5.193-5.124 1.772-.35-.611-.291-1.527-.641-2.2-.465-.855-1.106-1.588-2.096-1.71-1.164-.122-2.154.672-2.911 1.527-1.048 1.161-3.843 6.659-4.017 1.955-.059-2.81.582-6.109-2.504-7.514-2.096-.977-4.483 0-5.24 2.26-.233 1.161 1.456 1.65 1.805.55Zm.757-7.819c1.747-1.71 4.949-1.344 6.288.855.815 1.344.233 3.116 1.106 4.399.524.794 1.165 1.038 2.096.855.583-.122.874-.428 1.398-.733 1.863-1.222 3.493-1.71 5.24.244.757.855 1.979-.427 1.222-1.283-1.397-1.588-3.435-2.321-5.414-1.71-1.048.366-2.62 2.016-3.203.794-.407-.794-.174-2.016-.524-2.871-1.63-3.665-6.579-4.52-9.315-1.833-.99.794.291 2.077 1.106 1.283Zm227.48 269.949c.582 2.2 1.339 11.057 5.415 9.347 1.572-.672 2.445-4.398 3.784-4.215.99.122.757.55.99 1.527.233.855.466 1.649.815 2.444a20.922 20.922 0 0 0 2.096 3.726c.35.489 1.223.672 1.514 0 1.514-3.421 5.59-2.749 6.288.733.233 1.161 1.922.672 1.689-.489-1.048-5.192-7.336-5.986-9.491-1.16h1.514c-.931-1.344-1.747-2.688-2.329-4.277-.407-1.16-.349-3.054-.99-4.092-.582-.978-1.63-1.161-2.62-.856-1.513.55-1.805 2.016-2.736 3.177-.35.489-1.572 1.71-2.271 1.283-.349-.245-.64-2.199-.815-2.749-.408-1.65-.873-3.299-1.281-4.948-.175-1.039-1.863-.55-1.572.549Zm15.313 3.177c1.223-3.054 4.541-1.71 5.473.55.407.977.699 2.077 1.572 2.749 2.504 1.893 5.24-2.444 6.87 1.893 1.456 3.91 5.939 5.682 8.617 1.711.641-.977-.873-1.894-1.513-.916-.757 1.099-2.096 1.649-3.377 1.221-1.514-.488-1.747-1.893-2.271-3.237-.349-.917-.641-1.894-1.397-2.566-.757-.672-1.631-.794-2.562-.611-.524.122-1.048.611-1.572.733-1.922.367-2.271-.733-2.97-2.199-1.805-3.849-6.928-3.971-8.617.183-.407 1.1 1.281 1.589 1.747.489Zm172.866-210.022c-2.445-2.504-1.455-7.697 1.863-8.919 4.134-1.466 7.511 4.277 5.59 7.881-.582 1.038.931 1.955 1.514.916 2.62-4.826-1.631-12.034-7.162-10.69-4.891 1.221-6.579 8.552-3.086 12.095.815.794 2.038-.489 1.281-1.283ZM196.473 496.333c-3.493-4.215-1.455-11.607 4.484-11.362 5.182.244 6.928 7.575 2.27 10.14-.989.55-.116 2.139.874 1.589 5.939-3.299 3.959-12.829-2.679-13.501-7.743-.794-10.829 8.797-6.23 14.417.757.916 1.98-.366 1.281-1.283Zm-7.685-84.851c-1.98-1.65-6.055-5.987-.699-7.27 1.048-.244 2.038.244 3.086-.183 2.096-.856 2.795-3.238 2.737-5.437-.059-1.466-.524-2.871-.816-4.276-.349-1.65-1.048-3.543 1.165-3.605.407 0 .815.184 1.281.184 2.038 0 3.493-1.466 4.192-3.36.407-1.1-1.281-1.588-1.689-.489-1.397 4.032-5.997-.733-6.87 3.91-.64 3.604 3.843 11.057-2.154 11.423-2.387.123-4.483.061-5.124 3.055-.64 3.115 1.63 5.437 3.726 7.208.757.855 2.038-.427 1.165-1.16Zm12.926-8.553c-.874-1.527-2.329-4.215-1.689-6.109.699-2.016 3.959-1.832 5.473-3.176 2.038-1.772 2.795-4.521 2.096-7.209-.291-1.16-1.979-.672-1.688.489.465 1.71.174 3.36-.932 4.704-1.106 1.283-2.329 1.222-3.726 1.771-1.107.428-2.038.978-2.62 2.077-1.281 2.688.233 6.048 1.572 8.369.582.978 2.096.062 1.514-.916Z"/>
  <path fill="#161616" d="M60.404 134.018c-1.63 1.161-4.6 3.605-6.754 2.016-2.387-1.71.292-6.231 1.165-8.002 1.98-4.032 4.425-7.82 7.161-11.302 5.532-7.086 12.111-13.195 18.749-19.12 1.688-1.528-.757-4.093-2.446-2.566-9.141 8.186-18.282 16.799-24.629 27.734-2.154 3.726-6.171 9.957-3.726 14.417 2.795 5.07 8.675 2.566 12.169.061 1.921-1.405.175-4.582-1.689-3.238ZM93.708 85.82l15.722-13.38c1.746-1.466-.757-4.093-2.446-2.565l-15.72 13.378c-1.805 1.466.699 4.032 2.445 2.566Zm29.869-20.648c2.679-1.466 12.402-7.453 14.149-2.627 1.514 4.154-2.213 10.202-4.6 13.256-1.397 1.833 1.048 4.398 2.445 2.566 3.494-4.46 8.152-12.707 4.775-18.571-3.843-6.597-14.032-.305-18.574 2.2-1.979 1.099-.174 4.275 1.805 3.176Z"/>
  <path fill="#161616" d="M74.61 116.547c7.92-9.469 16.77-18.082 26.435-25.596 1.804-1.405.058-4.582-1.747-3.176a175.705 175.705 0 0 0-27.133 26.206c-1.513 1.711.932 4.338 2.446 2.566ZM496.966 432.19c.873-6.841 9.723-3.909 13.333-2.138 3.61 1.772 7.045 3.971 10.248 6.415 7.045 5.436 13.042 12.462 17.758 20.22 5.065 8.308 8.734 17.471 11.295 27.001 1.165 4.337 8.385 30.361-1.921 27.551-2.154-.611-3.086 2.932-.932 3.543 3.377.916 6.638-.733 8.501-3.788 2.213-3.665 1.63-8.308.99-12.339-1.514-9.958-3.959-19.854-7.744-29.14-6.87-17.165-18.457-32.743-34.41-41.479-4.076-2.199-8.85-4.642-13.566-3.604-3.843.794-6.638 3.788-7.104 7.82-.232 2.321 3.261 2.26 3.552-.062Z"/>
  <path fill="#161616" d="M536.617 466.644c5.997 9.652 8.966 20.831 8.617 32.377-.058 2.383 3.435 2.383 3.493 0 .408-12.156-2.736-24.069-9.083-34.209-1.222-2.016-4.25-.184-3.027 1.832Zm-32.489-47.16c5.997.733 11.47 3.604 15.72 8.064 1.572 1.649 4.076-.917 2.445-2.566-4.949-5.254-11.237-8.308-18.165-9.163-2.213-.245-2.213 3.421 0 3.665Z"/>
  <path fill="#161616" fill-rule="evenodd" d="M128.06 97.915v-.733s0-.244-.116-.794c0-.489 0-1.222-.058-2.138-.059-1.894-.35-4.643-1.223-8.064-.873-3.36-2.213-7.514-4.774-11.668-2.562-4.215-6.114-8.552-10.946-12.034a40.265 40.265 0 0 0-8.094-4.46c-2.969-1.221-6.171-2.015-9.548-2.443-6.696-.855-14.032.122-20.786 3.299-6.754 3.115-12.868 8.369-17.118 15.15a45.731 45.731 0 0 0-2.795 5.314c-.815 1.894-1.455 3.788-2.037 5.743-.524 1.954-.874 3.97-1.165 5.986-.233 2.016-.291 4.093-.291 6.11.116 8.185 2.678 16.126 6.928 22.724 4.31 6.597 10.248 11.79 16.827 14.967a43.558 43.558 0 0 0 5.066 2.015 37.77 37.77 0 0 0 5.182 1.283c.29.041.582.089.873.136.582.095 1.164.19 1.747.231.407.061.873.122 1.28.122.241 0 .466.016.684.032.204.015.4.029.597.029.58.041 1.135.027 1.698.014.284-.007.571-.014.864-.014.276-.021.558-.034.843-.048.557-.027 1.122-.054 1.66-.135.269-.038.531-.069.79-.101.584-.07 1.15-.139 1.715-.266.407-.122.815-.183 1.222-.244.204-.061.408-.107.612-.153.203-.046.407-.091.611-.152a34.001 34.001 0 0 0 2.329-.672c.757-.245 1.514-.489 2.271-.795a37.239 37.239 0 0 0 8.093-4.398c4.891-3.482 8.442-7.819 10.946-11.973 2.503-4.215 3.901-8.308 4.774-11.668a42.78 42.78 0 0 0 1.281-8.064c.058-.916.058-1.65.058-2.138Zm-.233-1.466v.733s-.058.244 0 .672c-.024.202-.028.445-.033.726-.007.4-.015.874-.083 1.412a35.668 35.668 0 0 1-1.397 7.942 34.325 34.325 0 0 1-1.98 5.375c-.873 1.894-1.921 3.849-3.261 5.804a40.952 40.952 0 0 1-11.12 10.935c-2.387 1.588-5.008 2.932-7.802 4.031-2.795 1.1-5.88 1.833-9.025 2.261-.757.122-1.572.183-2.387.244-.408 0-.815.015-1.223.031-.407.015-.815.03-1.223.03h-1.28c-.204 0-.408-.015-.612-.03a7.82 7.82 0 0 0-.611-.031c-.408-.03-.83-.076-1.252-.122-.422-.046-.844-.092-1.252-.122a30.153 30.153 0 0 1-5.007-.978c-1.688-.427-3.319-1.038-4.949-1.71a37.791 37.791 0 0 1-9.258-5.681c-2.853-2.383-5.356-5.254-7.452-8.492a38.199 38.199 0 0 1-2.795-5.07c-.757-1.772-1.456-3.604-1.98-5.498-.524-1.894-.873-3.849-1.164-5.803-.233-1.955-.291-3.971-.291-5.926.058-2.016.233-3.91.524-5.864a36.518 36.518 0 0 1 1.339-5.682c.582-1.832 1.28-3.665 2.096-5.375a40.998 40.998 0 0 1 2.795-4.948c4.192-6.293 10.014-11.18 16.419-13.99.204-.091.407-.168.611-.244.204-.077.408-.153.612-.245.407-.183.815-.366 1.222-.488.408-.122.815-.26 1.223-.397a37.78 37.78 0 0 1 1.223-.397 35.948 35.948 0 0 1 4.949-1.1c.815-.122 1.63-.244 2.445-.305.204 0 .408-.016.611-.03.204-.016.408-.031.612-.031.407-.061.815-.061 1.222-.061h2.447c.267.02.528.033.786.046.531.028 1.053.055 1.601.137 3.144.366 6.23 1.1 9.025 2.138a45.256 45.256 0 0 1 7.802 3.97c4.774 3.055 8.442 6.965 11.12 10.874 1.34 1.955 2.388 3.91 3.261 5.804a36.745 36.745 0 0 1 1.98 5.376 35.666 35.666 0 0 1 1.397 7.94c.116.917.116 1.65.116 2.139Zm429.983 372.7c.058-1.527.116-2.383.116-2.383s0-.794-.174-2.443c0-.367 0-.794-.059-1.283-.022-.167-.054-.353-.088-.551-.052-.307-.109-.641-.145-.976-.058-.306-.101-.611-.145-.916-.044-.306-.087-.611-.146-.917-.107-.374-.192-.771-.282-1.191a40.577 40.577 0 0 0-.183-.825c-.699-2.81-1.805-6.231-3.901-9.713-.282-.46-.598-.919-.92-1.389-.276-.403-.558-.814-.827-1.238-.291-.427-.641-.855-.99-1.282l-1.048-1.283c-.056-.059-.112-.125-.171-.192-.122-.142-.253-.295-.411-.419a4.903 4.903 0 0 1-.171-.192c-.122-.142-.253-.295-.411-.419l-1.223-1.283a36.178 36.178 0 0 0-2.795-2.321c-2.038-1.405-4.25-2.749-6.754-3.727-.132-.055-.267-.114-.404-.173-.469-.203-.964-.418-1.459-.56-.32-.091-.655-.183-.99-.275a94.178 94.178 0 0 1-.99-.274 4.818 4.818 0 0 1-.494-.123c-.161-.045-.321-.091-.495-.122l-1.048-.183-2.096-.367c-.35-.122-.699-.122-1.049-.122-.174 0-.349-.015-.524-.03a5.732 5.732 0 0 0-.524-.031c-.174 0-.349-.015-.524-.03a5.732 5.732 0 0 0-.524-.031l-.524-.061h-.582c-.242.01-.485.019-.728.027-1.213.043-2.426.085-3.639.339-2.911.367-5.822 1.344-8.675 2.627-.699.306-1.397.672-2.096 1.039a5.247 5.247 0 0 0-.495.305c-.16.107-.32.214-.495.306l-.99.611-.989.672c-.146.122-.306.244-.466.366-.16.122-.32.244-.466.367-.291.274-.611.519-.932.763-.32.245-.64.489-.931.764a36.484 36.484 0 0 0-6.347 7.453c-1.746 2.871-3.085 5.986-4.017 9.224l-.582 2.505-.117.61-.058.611-.175 1.283-.174 1.283c-.058.428-.058.794-.058 1.222l-.059 2.504c.117 3.421.641 6.781 1.631 9.958.181.62.399 1.202.624 1.806l.191.515c.087.183.16.382.233.58.072.199.145.398.233.581l.524 1.099.524 1.1c.058.092.101.183.145.275.044.092.087.183.146.275l.291.55a66.77 66.77 0 0 0 1.222 2.138 40.563 40.563 0 0 0 6.23 7.269c.292.245.597.489.903.733.306.245.611.489.902.733.146.122.306.245.466.367.16.122.32.244.466.366l.99.672.99.672c.349.245.64.428.989.611.35.183.684.367 1.019.55.335.183.67.366 1.019.55 2.795 1.283 5.59 2.321 8.559 2.749 1.089.274 2.145.343 3.193.412.353.023.705.046 1.057.076h1.048c.35-.061.699-.061 1.048-.061.28-.024.559-.029.839-.034.419-.007.838-.015 1.258-.088 5.589-.611 10.654-2.688 14.672-5.62.283-.227.566-.449.847-.669.699-.549 1.382-1.085 2.006-1.652l1.223-1.283.582-.611c.233-.183.407-.367.582-.611l1.048-1.283.253-.303c.262-.309.516-.609.737-.98a52.78 52.78 0 0 0 1.747-2.626c2.154-3.482 3.202-6.903 3.959-9.713.044-.188.089-.371.133-.55.127-.523.246-1.012.333-1.466.1-.387.143-.754.183-1.1.03-.255.058-.5.108-.733.116-.55.174-1.039.233-1.527.058-.489.058-.917.058-1.283Zm-.233-4.765c.058 1.527.116 2.382.116 2.382s0 .856-.291 2.383c-.031.196-.045.41-.061.641-.014.201-.028.415-.055.642a12.97 12.97 0 0 1-.106.677c-.047.272-.096.552-.127.85l-.009.087c-.056.527-.117 1.106-.282 1.685-.175.61-.349 1.282-.524 1.954a4.92 4.92 0 0 0-.161.558c-.039.156-.079.319-.13.481a8.978 8.978 0 0 1-.204.55 8.134 8.134 0 0 0-.204.549c-.066.161-.123.314-.179.461-.092.243-.178.472-.287.7a6.611 6.611 0 0 0-.178.425 4.25 4.25 0 0 1-.346.736 42.872 42.872 0 0 0-1.222 2.382l-.47.733c-.336.522-.69 1.072-1.044 1.65-2.271 3.237-5.299 6.414-9.258 8.98-3.959 2.504-8.675 4.459-13.915 5.131-.423.081-.872.108-1.312.135-.226.014-.45.028-.668.048a4.95 4.95 0 0 0-.45.029 5.912 5.912 0 0 1-.54.032l-.524.062h-.407c-.4-.018-.805-.025-1.21-.033-1.011-.019-2.026-.037-2.982-.212-.34-.065-.696-.112-1.059-.161a25.152 25.152 0 0 1-.979-.144c-.35-.092-.699-.168-1.048-.245-.35-.076-.699-.152-1.048-.244-.611-.107-1.177-.307-1.777-.519l-.261-.092-1.048-.366a9.378 9.378 0 0 0-.252-.102c-.231-.092-.485-.193-.738-.326-.64-.305-1.281-.611-1.98-.916-.174-.092-.334-.184-.494-.275a16.927 16.927 0 0 0-.495-.275l-.99-.55-.99-.55c-.349-.183-.64-.427-.932-.672a20.691 20.691 0 0 0-.902-.702 19.964 19.964 0 0 1-.902-.703c-.342-.358-.707-.69-1.082-1.029-.201-.183-.404-.367-.607-.559l-.408-.367c-.119-.083-.211-.195-.295-.297a2.198 2.198 0 0 0-.112-.13l-.757-.855-.757-.856c-.155-.163-.31-.38-.466-.597a10.538 10.538 0 0 0-.233-.319 47.512 47.512 0 0 0-.698-.977c-.233-.321-.466-.642-.699-.978-1.747-2.688-3.028-5.681-3.959-8.797-.815-3.115-1.165-6.414-1.165-9.651l.175-2.444c.028-.206.043-.412.057-.612.015-.214.029-.42.059-.61l.233-1.16.175-1.161.116-.611.175-.611.641-2.321a36.857 36.857 0 0 1 4.075-8.553c1.747-2.565 3.785-4.887 6.056-6.842.291-.213.596-.442.902-.671.306-.23.611-.459.902-.672.292-.245.583-.489.874-.672l.931-.55.932-.55c.08-.05.159-.105.24-.16.215-.148.438-.301.692-.39a55.91 55.91 0 0 1 1.979-.977c.291-.183.641-.306.99-.428l.99-.366c.201-.071.398-.147.593-.221.48-.185.948-.364 1.445-.451.349-.092.684-.184 1.019-.275.334-.092.669-.184 1.018-.275.479-.126.93-.194 1.39-.263.213-.033.428-.065.648-.104.93-.203 1.833-.244 2.728-.284.451-.021.899-.041 1.348-.082h.99c.349.061.698.061 1.048.061.349.061.698.061 1.048.061.349 0 .698 0 .99.061.32.061.64.107.96.153.321.046.641.091.961.153.291 0 .64.061.932.122.145.03.305.076.465.122.16.046.321.091.466.122.287.082.574.152.856.221.347.084.686.167 1.007.268.291.091.583.198.874.305.291.107.582.214.873.306 2.329.794 4.483 1.954 6.463 3.176 3.959 2.566 7.045 5.743 9.257 8.98a54.279 54.279 0 0 1 1.514 2.383c.311.529.57 1.059.828 1.588.13.265.259.529.395.794.147.231.247.487.345.736.058.146.114.289.179.425.054.132.108.259.16.381.117.273.225.526.306.779.058.184.131.367.204.55.072.184.145.367.203.55.065.17.112.36.161.557.039.157.079.319.13.482.175.672.35 1.343.524 1.954.055.284.096.568.137.845.047.32.092.632.155.927.031.298.08.578.127.849.04.23.079.454.105.678.07.29.077.559.084.807.005.168.009.327.033.476Zm52.925-303.242c.059-.856.059-1.344.059-1.344s-.059-.489 0-1.283c-.03-.092-.03-.214-.03-.344 0-.13 0-.267-.029-.389-.029-.153-.043-.306-.058-.458a4.797 4.797 0 0 0-.058-.459c0-.305-.058-.672-.117-1.038a7.29 7.29 0 0 0-.102-.496c-.048-.21-.098-.428-.13-.665-.408-1.649-.99-3.604-2.155-5.681-1.164-2.016-2.794-4.215-5.123-5.987-1.165-.855-2.446-1.71-3.901-2.26a12.344 12.344 0 0 1-.554-.214c-.189-.076-.378-.152-.553-.214-.332-.049-.625-.14-.943-.238l-.221-.067-.582-.183a2.753 2.753 0 0 0-.321-.061c-.102-.016-.203-.031-.32-.061-.466-.062-.873-.123-1.281-.184a8.546 8.546 0 0 0-.582-.061c-.189-.015-.378-.03-.582-.061l-.582-.061h-.699c-.212.016-.427.028-.646.04-.623.033-1.269.069-1.916.204-1.747.184-3.493.795-5.124 1.528-1.63.733-3.144 1.832-4.599 3.054a21.818 21.818 0 0 0-3.668 4.398c-1.048 1.65-1.805 3.482-2.329 5.376l-.047.196c-.217.905-.423 1.767-.477 2.736-.139.827-.131 1.537-.122 2.316.003.2.005.404.005.617a23.79 23.79 0 0 0 1.048 5.742c.087.214.175.443.262.672.087.229.175.458.262.672.175.427.35.855.582 1.283.283.742.681 1.404 1.069 2.051.091.151.182.302.271.453a22.377 22.377 0 0 0 3.609 4.215c1.398 1.161 2.853 2.261 4.425 3.055 1.631.794 3.203 1.405 4.949 1.71.874.184 1.631.245 2.446.306h1.281c.407 0 .815 0 1.222-.061 3.261-.367 6.23-1.589 8.559-3.36 2.329-1.711 3.96-3.91 5.124-5.926 1.165-2.016 1.747-4.032 2.154-5.62a7.58 7.58 0 0 1 .131-.664c.039-.169.076-.333.102-.497a6.88 6.88 0 0 0 .057-.52c.015-.183.029-.359.06-.518.026-.165.04-.318.054-.458.016-.171.03-.324.062-.458.058-.245.058-.489.058-.733Zm-.233-2.688c.059.855.059 1.344.059 1.344s-.059.488.058 1.527c0 .244 0 .489-.058.733 0 .244-.059.55-.117.855-.02.107-.033.213-.047.322a3.434 3.434 0 0 1-.128.656c-.058.305-.174.733-.291 1.099-.029.092-.058.199-.087.306-.029.106-.058.213-.087.305a3.951 3.951 0 0 1-.117.305c-.043.107-.087.214-.116.306-.117.214-.204.428-.291.641-.088.214-.175.428-.291.642-.233.427-.466.855-.699 1.344-.105.154-.218.309-.333.466-.203.279-.413.566-.599.878-1.281 1.771-3.086 3.482-5.298 4.887a20.768 20.768 0 0 1-7.744 2.81c-.174.03-.364.046-.553.061-.189.015-.378.03-.553.061l-.582.061h-.583c-.324-.024-.658-.029-.987-.034-.496-.007-.979-.015-1.4-.088-1.514-.122-3.144-.55-4.658-1.1a16.887 16.887 0 0 1-4.366-2.565l-.99-.856a7.31 7.31 0 0 1-.645-.663c-.097-.108-.192-.214-.287-.314-.582-.672-1.106-1.405-1.63-2.138-.99-1.527-1.689-3.238-2.213-5.009-.465-1.772-.582-3.605-.582-5.437.041-.297.067-.615.094-.94.051-.613.103-1.25.256-1.809.087-.642.273-1.283.458-1.925.062-.213.124-.427.182-.641.582-1.649 1.397-3.238 2.329-4.704 1.048-1.405 2.154-2.688 3.435-3.787 1.281-1.039 2.678-1.955 4.134-2.566 1.456-.611 2.969-1.1 4.483-1.283.505-.081 1.01-.108 1.514-.136.252-.013.505-.027.757-.047h1.106c.408 0 .815 0 1.165.061.349 0 .698.061 1.048.122.174 0 .349 0 .524.061l.524.122c.174.031.349.077.524.123.174.045.349.091.524.122.278.048.519.136.782.231l.208.074c1.281.428 2.503 1.039 3.61 1.711a18.456 18.456 0 0 1 5.298 4.887c.349.489.64.916.931 1.344.233.488.466.916.699 1.344.233.427.408.855.582 1.283.029.091.073.198.117.305.043.107.087.214.116.305.029.092.058.199.088.306.029.107.058.214.087.305.058.367.175.733.291 1.1.058.366.116.733.175 1.038 0 .306.058.611.116.856.058.244.058.488.058.733Zm35.168-97.924c.058-1.467.116-2.261.116-2.261s-.058-.794-.175-2.444c0-.366 0-.794-.058-1.222-.116-.427-.174-.916-.233-1.466l-.034-.295a18.595 18.595 0 0 0-.199-1.415 18.03 18.03 0 0 1-.255-1.057 24.842 24.842 0 0 0-.21-.898c-.757-2.688-1.747-5.986-3.785-9.346-.466-.794-1.048-1.65-1.63-2.505-.178-.327-.425-.619-.687-.929-.08-.095-.163-.192-.245-.293l-1.048-1.283c-.462-.565-.975-1.077-1.505-1.606-.271-.272-.548-.547-.824-.837-.873-.794-1.805-1.527-2.736-2.26-1.922-1.405-4.076-2.688-6.463-3.605-.265-.083-.53-.192-.801-.303-.324-.133-.655-.269-1.004-.369l-1.921-.55a4.29 4.29 0 0 1-.387-.104 4.574 4.574 0 0 0-.545-.14c-.291-.06-.64-.122-.99-.183a20.067 20.067 0 0 1-1.776-.26 95.08 95.08 0 0 0-.262-.046c-.349-.122-.64-.122-.989-.122-.175 0-.335-.015-.495-.03a5.082 5.082 0 0 0-.495-.03c-.175 0-.335-.016-.495-.031-.16-.016-.32-.03-.495-.03h-1.048c-.233.01-.466.018-.699.026-1.164.043-2.329.085-3.493.34-2.795.366-5.59 1.283-8.326 2.504-.423.242-.846.458-1.285.682-.227.115-.457.232-.695.357-.292.102-.585.29-.843.456l-.147.094-.931.61-.932.611c-.349.184-.64.428-.931.672-.291.245-.597.49-.903.733-.305.245-.611.49-.902.733a35.287 35.287 0 0 0-6.114 7.148c-1.688 2.749-3.027 5.742-3.901 8.858l-.524 2.382-.116.61-.058.612-.175 1.222-.175 1.221c-.058.428-.058.794-.058 1.222l-.058 2.383.174 2.443c0 .596.099 1.191.197 1.787.033.198.066.397.095.595l.174 1.222.117.611.174.611.641 2.321c.233.795.524 1.528.815 2.26.116.367.233.734.408 1.1l.524 1.1.524 1.1.232.55.292.488 1.222 2.016a37.82 37.82 0 0 0 5.997 7.025c.291.244.583.474.874.703.291.229.582.458.873.702.291.183.582.428.873.672l.932.61.932.612a5 5 0 0 0 .931.61c.32.184.641.352.961.52.32.168.64.336.961.52 2.678 1.282 5.356 2.26 8.209 2.687 1.045.274 2.058.343 3.062.412.339.023.676.046 1.014.077h1.048c.349-.061.698-.061 1.048-.061.278-.025.557-.03.832-.035.414-.007.821-.014 1.206-.087 5.356-.611 10.247-2.627 14.09-5.437.776-.527 1.48-1.129 2.169-1.718.19-.162.379-.323.567-.481.169-.165.338-.327.506-.488.642-.616 1.269-1.217 1.823-1.895l1.048-1.283a9.73 9.73 0 0 0 .99-1.222c.221-.36.464-.711.705-1.06.329-.477.656-.95.925-1.444 2.038-3.36 3.086-6.659 3.785-9.347.175-.672.349-1.344.466-1.955.056-.297.085-.579.114-.854.03-.291.059-.573.119-.856a11.7 11.7 0 0 0 .198-1.207l.034-.26c.059-.427.059-.854.059-1.22Zm-.233-4.521c.058 1.466.116 2.26.116 2.26s-.058.794 0 2.199c-.03.19-.044.396-.06.61-.014.2-.028.406-.056.612-.024.173-.057.356-.092.55a12.71 12.71 0 0 0-.141.916c-.058.55-.117 1.1-.291 1.71-.175.611-.35 1.222-.524 1.894-.058.183-.102.351-.146.52a9.373 9.373 0 0 1-.145.519c-.042.11-.091.227-.143.35-.092.218-.19.453-.265.688a8.158 8.158 0 0 1-.204.55c-.072.183-.145.366-.204.55-.116.366-.291.733-.465 1.1-.204.396-.393.778-.583 1.16-.189.382-.378.764-.582 1.16-.183.288-.365.585-.551.888-.289.469-.586.951-.904 1.434-2.096 3.115-5.066 6.17-8.85 8.614-3.785 2.443-8.326 4.276-13.334 4.948-.427.081-.854.108-1.281.135-.213.014-.427.027-.64.048-.175 0-.335.015-.495.03-.16.016-.32.031-.495.031l-.466.061h-.407a44.165 44.165 0 0 0-1.16-.032c-.969-.02-1.943-.038-2.858-.212-.32-.061-.655-.107-.989-.153-.335-.046-.67-.092-.99-.153-.32-.091-.655-.168-.99-.244-.335-.076-.67-.153-.99-.244-.698-.123-1.339-.367-1.979-.611l-.99-.367a2.773 2.773 0 0 1-.99-.366l-1.921-.917c-.35-.122-.641-.305-.932-.488l-.932-.55-.931-.55c-.146-.092-.291-.199-.437-.306a7.226 7.226 0 0 0-.437-.305 16.687 16.687 0 0 0-.873-.672 17.02 17.02 0 0 1-.873-.672 20.34 20.34 0 0 0-1.12-1.062c-.173-.156-.345-.31-.511-.465l-.407-.367a2.625 2.625 0 0 1-.175-.213 2.511 2.511 0 0 0-.174-.214l-.757-.855c-.126-.147-.252-.29-.376-.431-.393-.448-.77-.877-1.08-1.341a36.716 36.716 0 0 1-1.339-1.833c-1.63-2.565-2.911-5.436-3.785-8.43-.757-2.993-1.106-6.17-1.106-9.224.175-3.238.641-6.231 1.572-9.163.99-2.933 2.271-5.682 3.901-8.186 1.689-2.444 3.61-4.643 5.823-6.537.524-.427 1.106-.855 1.688-1.283.146-.091.291-.198.437-.305a7.2 7.2 0 0 1 .436-.305l.932-.55.873-.55c.291-.183.583-.367.932-.489.32-.152.626-.305.931-.458.306-.153.612-.305.932-.458 2.562-1.039 5.124-1.955 7.744-2.26.799-.153 1.621-.186 2.437-.22.492-.02.982-.04 1.464-.086h.931c.35.061.641.061.99.061.35.061.641.061.99.061.291 0 .64 0 .932.061.291.031.596.077.902.123.306.045.611.091.903.122.291 0 .582.06.873.122.145.03.291.076.437.122.145.046.291.092.436.122.291.061.582.138.874.214.291.076.582.153.873.214.291.092.568.199.844.305.277.107.553.214.844.306 2.213.733 4.251 1.894 6.172 3.054 3.726 2.383 6.696 5.498 8.85 8.553a52.44 52.44 0 0 0 1.103 1.77l.353.551c.407.733.815 1.527 1.164 2.26.175.367.35.733.466 1.1.058.183.131.366.204.55.073.183.145.366.204.55.174.366.291.671.407 1.038.052.162.092.324.131.481.049.198.095.387.16.558.175.671.35 1.282.524 1.893.053.279.094.545.134.804.048.308.094.608.157.907.035.327.09.632.142.916.035.193.068.377.091.55.07.255.077.51.084.752.005.164.009.322.033.47Z" clip-rule="evenodd"/>
  <path fill="#161616" d="M207.652 171.16c-.524-.366-.407-1.283-.174-1.772.407-.855 1.688-1.099 2.503-1.099 1.63-.061 3.261.733 4.775 1.161 2.096.672 4.308 1.038 6.462.305 3.843-1.405 5.299-5.62 6.696-9.285.815-2.139 2.62-5.926 5.298-5.804 2.213.122 3.61 2.932 6.056 2.994 4.192.183 6.987-4.46 8.442-7.942.874-2.138-2.096-4.032-3.027-1.833-1.223 2.933-3.61 7.759-7.045 5.132-1.864-1.405-3.552-2.627-5.998-1.894-5.181 1.466-6.346 7.331-8.442 11.668-1.805 3.665-4.309 4.093-7.977 2.993-2.561-.794-5.298-1.71-7.976-.672-3.61 1.466-4.891 6.903-1.339 9.225 1.921 1.221 3.668-1.894 1.746-3.177Zm26.608-.244c-.349-2.261 1.456-4.643 3.61-4.948 1.922-.306 3.377 1.405 5.182 1.771 3.319.611 5.881-2.26 7.162-5.07.815-1.772 1.281-3.971 2.736-5.315 1.281-1.222 3.144-1.466 4.775-1.771 3.027-.55 5.938-.978 8.093-3.544 1.455-1.771-.99-4.337-2.446-2.565-2.503 2.993-7.045 2.138-10.364 3.604-4.192 1.894-4.25 5.987-6.754 9.408-2.154 2.932-4.366.183-6.928-.123-1.514-.183-3.086.184-4.425.917-3.028 1.771-4.542 5.07-3.959 8.613.349 2.321 3.726 1.344 3.318-.977Zm7.569 180.149c-2.27-3.238 0-8.308 4.134-7.025 4.018 1.222 3.727 7.025-.174 8.247-2.155.672-1.223 4.215.931 3.543 6.871-2.199 7.686-12.523.641-15.15-6.929-2.627-12.926 6.048-8.559 12.218 1.281 1.894 4.367.061 3.027-1.833Zm339.62-80.942c-.291-1.099.466-1.405 2.212-.855.815.305 1.572.611 2.329.977.815.367 1.63.672 2.504.856 1.63.305 3.26-.062 4.599-1.161 2.853-2.383 2.446-6.353 4.193-9.286 1.863-3.176 3.202-.916 4.599.917.757 1.038 1.631 1.894 2.911 2.199 1.34.305 2.679-.183 3.727-1.1.698-.611 1.281-1.405 1.747-2.199.058-.122 2.62-4.032 2.678-2.993.116 2.321 3.61 2.382 3.493 0-.058-2.199-1.63-3.727-3.726-3.788-2.445-.061-3.785 1.955-4.891 3.91-1.048 1.772-2.212 3.299-3.668 1.1-.582-.856-1.048-1.711-1.863-2.383-1.805-1.527-4.076-1.405-5.881 0-2.038 1.527-2.911 4.032-3.551 6.414-.35 1.405-.699 3.238-1.747 4.277-1.63 1.527-3.959-.184-5.59-.856-2.27-.916-5.123-1.16-6.754 1.161-1.222 1.772-1.222 3.971.233 5.498 1.572 1.588 4.018-1.038 2.446-2.688Zm28.18 3.727c-.64-2.627 2.795-3.055 4.367-2.749 1.339.244 2.562.794 3.901 1.16 2.096.611 4.425.978 6.521.184 1.63-.611 2.795-1.833 3.668-3.36 1.048-1.833 1.397-4.399 3.202-5.62 1.863-1.283.117-4.46-1.746-3.177-2.155 1.466-2.912 3.604-3.96 5.926-2.037 4.337-5.589 2.81-9.141 1.771-2.678-.794-5.531-1.1-7.918.672-1.98 1.466-2.853 3.788-2.213 6.231.524 2.199 3.901 1.222 3.319-1.038ZM123.81 342.574c-13.333 18.632-19.738 26.268-25.21 34.209-4.368 6.292-10.423 16.128-16.012 29.689-1.805 2.322-4.6 5.071-7.977 5.193-7.918.183-9.898-14.051-21.543-21.931-8.966-6.109-21.717-7.086-31.382-2.566-18.4 8.492-22.009 34.576-20.32 35.493 1.63.916 9.199-20.709 25.21-23.275 5.532-.855 10.306.794 11.703 1.283 8.268 3.115 10.48 9.346 17.875 16.127 3.785 3.482 9.782 7.881 19.097 10.996-.931 2.321-1.805 5.376-1.863 9.041-.058 12.218 9.665 20.098 11.18 21.259.756 1.833 1.92 5.07 1.862 9.346-.058 5.315-1.98 9.286-2.969 11.057 3.028 4.582 5.939 7.942 8.093 10.202 5.066 5.193 7.045 5.559 7.802 5.681 4.774.489 8.617-4.337 9.432-5.375-1.281-.611-7.627-3.971-10.247-11.913-2.562-7.758.35-14.478 1.106-16.127a24.62 24.62 0 0 1 2.446-4.276c3.144 1.894 7.045 4.948 8.908 9.896 2.562 6.781-.932 11.302 2.154 15.578 3.261 4.459 10.539 4.459 15.022 3.115 4.832-1.405 9.84-5.314 9.257-7.758-.64-2.749-7.976-.672-11.703-5.192-3.318-3.971-1.746-10.63-.64-15.517 3.61-15.394 12.052-19.182 12.285-30.361.117-5.131-1.572-9.407-3.086-12.279 10.306-22.236 21.776-32.01 30.801-36.836 5.356-2.871 14.206-5.253 24.687-13.623 4.774-3.787 8.326-7.208 12.401-11.301 4.949-4.948 15.721-15.761 14.323-17.838-1.164-1.649-9.665 2.933-12.168 4.277-11.995 6.475-13.45 11.423-21.369 13.317-6.171 1.466-14.439.611-16.011-3.238-1.863-4.582 7.802-8.98 7.977-18.754.058-1.527-.175-3.36-7.977-17.41-7.103-12.707-9.199-15.272-10.48-14.845-1.98.672.407 8.431-3.668 12.279-2.213 2.077-5.299 2.138-7.395 1.955-8.908-9.713-12.227-11.179-13.566-10.324-2.445 1.649 3.435 11.179 1.223 23.275-1.107 5.803-3.494 9.407-9.258 17.471Z"/>
  <path fill="#fff" d="M152.049 325.958c.058.061.058.122.058.183 0-.122 0-.061 0 0 .058-.183-.058.061 0 0l-.058.061c-.059.061.058 0 0 0h-.175s-.175-.061-.058 0l-.059-.061c.059.061 0 .061 0 0v-.183c0-.061.059-.122 0-.061.059-.061.059-.122.117-.122-.117.061 0 0 .058 0-.233 0 .117 0 0 0-.116 0 .175.061.058 0-.116-.061.175.122 0 0-.407-.245-.989-.061-1.222.305-.233.428-.059.977.291 1.283.582.428 1.455.305 1.921-.244.582-.611.582-1.589.058-2.2-.524-.611-1.339-.733-1.979-.305-.699.489-.874 1.405-.524 2.199.233.428.815.55 1.222.306.408-.184.466-.733.292-1.161Zm12.227-5.07c-.117-.184.058.122 0 .244 0 .061-.059.122-.059.183-.174.183-.524.245-.698 0-.233-.305 0-.672.233-.733-.117.061 0 0 .058 0 .116 0 .233.061.291.122-.349-.366-.932-.366-1.223 0a.917.917 0 0 0 0 1.283c.408.489 1.165.55 1.689.183.64-.427.757-1.344.349-1.954-.407-.611-1.223-.795-1.805-.306-.524.428-.699 1.283-.349 1.894.291.427.757.611 1.223.305.349-.244.582-.855.291-1.221Zm-3.319 6.536c.466 1.161 1.164 5.193-.932 5.254-.582 0-.582.916 0 .916 2.97-.061 2.446-4.826 1.689-6.598-.233-.61-.99-.122-.757.428Z"/>
  <path fill="#fff" d="M161.248 327.729c.466 1.344 1.339 2.872 2.678 3.421 1.107.428 2.387-.183 2.446-1.466.058-.611-.815-.611-.874 0-.058 1.466-1.805.367-2.27-.122-.524-.611-.932-1.283-1.165-2.077-.175-.55-.99-.305-.815.244Zm-11.179.489c1.048-.244 2.038-.183 2.969.244.524.245.757-.671.233-.855-1.106-.488-2.27-.55-3.435-.244-.524.122-.291.977.233.855Zm15.546-8.858a8.362 8.362 0 0 0-1.048 3.36c-.058.611.815.611.873 0 .117-1.038.408-2.016.932-2.932.291-.489-.466-.916-.757-.428Z"/>
  <path fill="#161616" d="M152.98 361.084c1.863-8.614 9.665-10.263 23.406-21.87 9.258-7.819 14.265-14.356 16.012-13.073 1.339.978-.233 5.987-.816 7.636-1.513 4.582-3.9 7.575-4.832 8.797-3.959 4.826-11.237 13.073-25.502 23.03-2.795 1.955-5.706 3.849-7.395 2.749-2.037-1.405-.989-6.72-.873-7.269Z"/>
  <path fill="#fff" stroke="#161616" stroke-width="2" d="M124.684 344.223c-7.453-7.025-9.316-16.066-9.666-17.899-2.853-15.211 5.823-26.94 7.628-29.261 9.665-12.462 28.704-19.731 43.726-11.484 11.819 6.536 15.313 19.609 16.186 23.335 2.62 11.668.116 25.841-9.316 35.248-13.857 13.867-36.564 11.424-48.558.061Z" opacity=".73"/>
  <path fill="#fff" stroke="#161616" stroke-width="2" d="M343.314 248.192c-7.744 6.965-18.05 17.594-27.715 32.499-6.987 10.813-18.864 29.628-22.998 56.69-5.997 39.097 8.035 70.008 12.692 79.354 16.944 34.026 43.319 49.909 53.101 55.224-2.155 3.665-5.182 9.408-7.977 16.738-.641 1.772-13.275 35.676-4.716 41.907 6.463 4.643 22.008-8.308 24.395-10.324 14.207-11.912 20.845-27.918 28.181-46.305 3.086-7.819 5.24-14.356 6.579-18.754-8.093-5.926-20.087-16.128-30.509-32.011-6.521-9.896-28.763-43.739-19.272-74.894 4.367-14.294 10.48-12.095 27.248-40.929 12.286-21.198 19.214-33.049 15.488-42.884-5.007-13.317-27.715-18.937-54.497-16.311Z"/>
  <path fill="#161616" d="M319.209 283.013c10.073-.122 19.388-6.048 24.105-15.394.407-.795-.757-1.467-1.107-.672-4.483 8.918-13.333 14.6-22.94 14.722-.931 0-.931 1.344-.058 1.344Zm25.444 179.599c13.333-6.475 24.628-16.86 32.43-29.933.466-.733-.698-1.466-1.106-.672-7.744 12.89-18.806 23.092-31.965 29.445-.757.366-.116 1.527.641 1.16Z"/>
  <path fill="#161616" d="M363.11 450.945c1.164 4.703 5.706.305 7.336-1.344 4.134-4.032 8.559-7.942 10.829-13.562.35-.794-.815-1.527-1.106-.672-1.397 3.421-3.551 6.17-6.055 8.736l-3.319 3.298c-.524.55-5.589 6.109-6.346 3.116-.291-.794-1.572-.428-1.339.428Zm-20.612-113.869a69.4 69.4 0 0 0-6.986 38.73c.116.855 1.397.855 1.339 0-1.456-13.134.873-26.329 6.754-37.997.407-.794-.757-1.527-1.107-.733Z"/>
  <path fill="#161616" d="M336.734 383.503c-.815-1.466-1.572-3.115-1.281-4.887.233-1.527 1.572-2.871 3.144-2.688 3.436.489 1.747 9.041-2.154 6.964-.757-.366-1.397.794-.64 1.161 2.154 1.161 4.541-.061 5.473-2.321.815-2.016.757-5.376-1.165-6.659-1.63-1.161-3.901-.306-5.065 1.161-1.805 2.321-.699 5.62.582 7.941.408.794 1.514.122 1.106-.672Zm4.076 6.109c7.685 17.349 17.991 33.232 30.509 47.099.582.672 1.514-.305.932-.977-12.46-13.806-22.649-29.628-30.335-46.855-.349-.733-1.455-.061-1.106.733Zm-44.483 1.1c2.271-3.605 6.637-4.949 10.538-3.666 3.96 1.283 6.929 4.887 8.501 8.797 1.805 4.398 2.213 9.469.99 14.111-1.281 4.765-5.24 9.408-10.306 7.209-.757-.367-1.106.977-.349 1.344 4.541 1.955 8.908-1.039 10.946-5.315 2.562-5.437 2.271-12.401-.058-17.899-1.922-4.581-5.648-8.797-10.48-9.774-4.193-.855-8.559.855-10.888 4.582-.524.672.64 1.405 1.106.611Z"/>
  <path fill="#161616" d="M298.889 397.92c.64-3.788 5.182-3.849 7.802-2.505 2.038 1.039 3.726 2.933 4.716 5.071 1.106 2.382 1.456 5.253.582 7.819-1.281 3.726-4.599 4.459-8.035 4.276-.815-.061-.815 1.344 0 1.405 3.727.245 7.337-.611 8.967-4.459 1.397-3.299.873-7.331-.815-10.385-1.631-2.994-4.542-5.437-7.919-5.804-2.853-.305-6.055 1.039-6.579 4.276-.117.795 1.164 1.161 1.281.306Zm20.844 40.929c8.326-4.215 15.604-10.141 21.601-17.471.524-.672-.349-1.65-.932-.978a66.91 66.91 0 0 1-21.368 17.288c-.698.367-.058 1.589.699 1.161Z"/>
  <path fill="#161616" d="M329.864 432.313c.99 1.282 2.271 3.97 3.901 4.52 1.281.428 2.329-.611 3.26-1.344 3.086-2.26 5.939-4.704 7.919-8.125.466-.733-.699-1.466-1.106-.671-1.572 2.687-3.668 4.703-5.997 6.536-.99.794-2.038 1.894-3.319 1.772-1.514-.123-2.678-2.444-3.668-3.666-.583-.672-1.514.306-.99.978Zm33.42-4.46c-3.842 7.636-9.432 14.051-16.361 18.693-.407.245-.465.917 0 1.161 2.679 1.527 4.949 3.421 6.871 5.864.524.672 1.455-.305.931-.977-2.037-2.505-4.366-4.521-7.161-6.048v1.161c7.161-4.765 12.926-11.301 16.885-19.182.407-.733-.757-1.466-1.165-.672Zm-64.686-112.158c5.88-.794 11.761-.672 17.583.55 5.473 1.161 11.412 2.871 15.022 7.697.524.672 1.456-.305.932-.977-3.494-4.704-9.2-6.537-14.556-7.759-6.23-1.466-12.635-1.71-18.981-.855-.815.122-.815 1.466 0 1.344Zm-4.716 16.677c9.956.306 19.505 3.116 28.18 8.247.757.428 1.397-.733.64-1.161-8.85-5.253-18.689-8.124-28.82-8.491-.816 0-.816 1.405 0 1.405Z"/>
  <path fill="#161616" d="M330.912 323.759c-3.144 4.948-5.881 10.14-8.268 15.516-.349.794.757 1.466 1.106.672 2.388-5.376 5.124-10.568 8.268-15.516.524-.733-.64-1.405-1.106-.672Zm-34.294-2.261a45.543 45.543 0 0 1 18.108 2.2c.815.244 1.164-1.039.349-1.344-5.997-1.955-12.169-2.688-18.457-2.261-.815.123-.815 1.467 0 1.405Z"/>
  <path fill="#161616" d="M317.171 317.161c-1.048 1.527-1.688 3.238-2.038 5.07-.116.856 1.107 1.222 1.281.367.291-1.772.932-3.299 1.863-4.765.524-.733-.64-1.405-1.106-.672Z"/>
  <path fill="#161616" d="M316.822 320.949c4.367 1.405 8.326 3.726 11.761 6.903.64.549 1.572-.367.931-.978-3.609-3.299-7.743-5.742-12.343-7.269-.815-.245-1.164 1.099-.349 1.344Zm-14.731 13.928c-3.26 6.903-5.124 14.294-5.473 21.992-.058.855 1.281.855 1.339 0 .35-7.453 2.154-14.601 5.299-21.32.349-.794-.757-1.466-1.165-.672Z"/>
  <path fill="#161616" d="M296.327 363.649c-.466-1.282-1.048-2.81-.641-4.215.35-1.221 1.805-2.382 2.853-1.221.932.977 1.34 2.871.641 4.092-.582 1.039-1.863 1.405-2.795.672-.699-.488-1.339.672-.64 1.161 1.397 1.039 3.377.55 4.366-.855 1.223-1.711.757-4.215-.407-5.804-1.165-1.527-3.028-1.527-4.309-.183-1.805 1.833-1.106 4.521-.349 6.72.291.794 1.572.428 1.281-.367Zm55.254-91.143c-5.822 8.491-12.11 16.616-18.748 24.435-.582.672.35 1.649.932.977a305.579 305.579 0 0 0 18.923-24.679c.524-.795-.583-1.466-1.107-.733Z"/>
  <path fill="#161616" d="M332.95 298.224c2.503 2.565 5.589 4.032 9.024 4.337.816.061.816-1.283 0-1.405-3.085-.305-5.88-1.71-8.093-3.971-.582-.55-1.514.428-.931 1.039Zm4.25-5.62a20.082 20.082 0 0 0 7.802 4.948c.815.305 1.165-1.039.349-1.344-2.736-.978-5.123-2.505-7.219-4.582-.641-.611-1.572.367-.932.978Z"/>
  <path fill="#161616" d="M344.187 296.635a12.025 12.025 0 0 1-3.435 4.765c-.641.55.291 1.528.931.978a13.411 13.411 0 0 0 3.668-5.009c.291-.795-.873-1.528-1.164-.734Zm0-12.584c2.096 2.322 4.774 3.788 7.802 4.276.815.123 1.164-1.221.349-1.343-2.794-.428-5.24-1.772-7.219-3.91-.641-.672-1.573.305-.932.977Zm3.202-4.642c1.805 1.893 4.018 3.237 6.521 3.848.815.183 1.165-1.099.35-1.344-2.271-.55-4.309-1.71-5.939-3.482-.582-.611-1.514.367-.932.978Z"/>
  <path fill="#161616" d="M353.445 282.646c.058 1.711-.583 3.238-1.864 4.399-.64.549.291 1.527.932.977 1.514-1.344 2.329-3.299 2.212-5.376a.642.642 0 0 0-1.28 0Zm-16.711 56.263c-4.483 9.652-6.87 19.975-7.219 30.666 0 .855 1.28.855 1.339 0 .291-10.446 2.678-20.587 7.045-29.994.349-.795-.757-1.467-1.165-.672Zm9.258-19.243c5.764 4.52 10.48 10.14 14.09 16.677.408.794 1.572.061 1.106-.672-3.726-6.72-8.617-12.523-14.614-17.166-.582-.55-1.223.611-.582 1.161Zm7.453.183c4.192 3.482 7.743 7.636 10.596 12.34.466.733 1.572.061 1.106-.672-2.911-4.826-6.521-9.102-10.771-12.645-.64-.55-1.572.427-.931.977Zm45.123 131.34c-6.87 7.575-4.542 18.449-6.987 27.734-1.514 5.803-4.367 11.24-6.754 16.677a1916.759 1916.759 0 0 1-7.045 16.066c-.349.795.757 1.528 1.106.672 4.309-9.896 9.258-19.67 12.868-29.872 3.435-9.713.407-22.358 7.627-30.3.699-.611-.233-1.588-.815-.977Zm-40.407 21.564c4.192-2.749 8.617-4.704 13.449-5.803.815-.184.466-1.527-.349-1.344-4.949 1.099-9.549 3.115-13.799 5.925-.64.489 0 1.711.699 1.222Zm30.858-28.467c-1.979 4.398-4.658 8.247-8.093 11.546-.407.366-.175.977.291 1.16 1.747.611 4.483 2.505 6.172.978 1.339-1.222 2.445-3.116 3.552-4.582 1.339-1.71 2.678-3.482 4.075-5.192.524-.672-.407-1.65-.931-.978-1.863 2.383-3.727 4.826-5.648 7.209-.757.977-1.514 2.565-2.853 2.688-1.048.061-3.028-1.1-4.017-1.467.116.367.174.795.291 1.161 3.493-3.36 6.23-7.331 8.267-11.79.35-.855-.756-1.527-1.106-.733Zm-41.339 54.979c3.727-2.871 9.724-2.26 13.683-.122.757.428 1.397-.794.64-1.16-4.366-2.322-10.887-3.055-15.021.122-.641.488 0 1.71.698 1.16Zm-2.445 9.286c4.658-3.177 10.073-4.032 15.371-2.321.815.244 1.165-1.1.349-1.344-5.647-1.772-11.47-.856-16.36 2.504-.699.489-.059 1.65.64 1.161Z"/>
  <path fill="#161616" d="M361.305 498.899c.465 2.321-.175 4.643-1.689 6.353-.582.672.35 1.649.932.978 1.863-2.139 2.562-4.888 2.038-7.698-.175-.855-1.456-.488-1.281.367Z"/>
  <path fill="#6D6C6C" d="M374.463 313.618c-5.997 2.749-27.19 13.317-36.972 37.875-8.268 20.709-3.668 39.402-.291 53.147 7.686 31.277 26.026 51.619 36.39 61.393-.291 3.36-1.048 8.431-3.494 14.051-4.716 10.812-11.411 13.806-16.593 21.686-3.436 5.315-7.045 14.05-6.114 28.712 1.689.183 4.134.244 6.987-.306 4.309-.794 11.004-3.299 21.252-15.577 6.754-8.125 11.12-15.822 14.556-22.603 4.425-8.736 9.956-21.259 14.556-37.264-17.002-13.806-27.831-27.917-34.352-37.875-8.792-13.439-12.053-22.725-13.101-25.962-2.329-7.209-6.404-20.037-3.784-35.737.931-5.437 1.455-8.613 3.493-12.523 5.24-10.018 13.683-12.034 16.594-21.992.873-2.932.931-5.498.873-7.025Z" opacity=".23"/>
  <path fill="#6D6C6C" d="M356.938 338.725c-3.785 9.164-8.501 24.191-8.035 42.823 1.048 38.852 23.93 64.51 30.276 71.168 1.98 6.537 4.018 16.616 2.562 28.712-3.493 28.345-23.871 44.716-28.471 48.198 4.017-1.344 10.48-3.97 17.118-9.163 12.809-9.957 18.573-23.275 25.502-39.768 2.503-5.865 5.822-14.601 8.733-25.658-17.292-14.05-28.064-28.65-34.294-38.668-6.579-10.508-12.751-20.587-15.662-35.554-3.435-18.326-.174-33.721 2.271-42.09Z" opacity=".24"/>
  <path fill="#fff" stroke="#161616" stroke-width="2" d="M457.665 277.209c4.833 10.996 2.911 23.764 1.397 33.599-2.096 13.806-6.812 24.374-10.305 30.788-1.514 7.82-2.97 21.015.815 36.165 4.541 18.326 14.323 29.75 23.406 40.318 7.744 9.041 21.135 22.481 41.63 33.66-1.165 4.52-3.028 11.362-5.531 19.67-10.655 34.698-17.409 41.479-19.855 43.739-6.695 6.17-18.922 13.257-24.221 9.164-4.308-3.299-5.415-14.967 9.607-52.597a185.014 185.014 0 0 1-24.978-11.668c-10.247-5.681-38.486-21.503-56.302-47.405-26.958-39.28-20.146-87.662-17.817-101.04-4.134-2.016-11.586-6.414-14.206-14.6-4.775-14.783 9.374-31.827 20.844-39.158 24.745-15.944 65.036-4.52 75.516 19.365Z"/>
  <path fill="#fff" d="M362.586 277.576c-3.494 5.559-3.843 12.645-1.34 18.754 1.223 2.993 3.086 5.681 5.357 7.942 1.106 1.099 2.271 2.138 3.552 3.054.524.366 4.832 2.688 4.017 3.543.35-.061.699-.122 1.048-.122-7.511-5.804-13.333-14.478-13.158-24.558 0-.977-1.572-1.282-1.689-.244-1.455 8.675 1.922 17.349 8.734 22.481l.698-1.65c-8.151-2.627-9.956-12.095-7.86-19.792-.582-.062-1.164-.184-1.688-.245.582 8.064 1.514 16.616 7.627 22.297.815.795 2.038-.488 1.223-1.282-6.754-6.72-10.772-17.227-5.124-26.146-.524-.061-1.048-.122-1.572-.245.233 1.405.291 2.749.058 4.154h1.689c-1.107-3.909-.641-7.697 1.397-11.179-.524-.061-1.048-.122-1.572-.244 1.106 6.536-1.223 13.073-.349 19.609.291 2.199.873 4.46 2.038 6.415a10.96 10.96 0 0 0 2.096 2.565c.873.794 2.853 1.527 3.027 2.871l1.048-1.099c-1.222-.183-2.503-.367-3.726-.55-.582-.061-1.339.428-1.048 1.1.99 2.626 2.562 4.459 5.007 5.681v-1.589h-1.805c-.233.55-.407 1.039-.64 1.589.698.366 1.397.733 2.038 1.099.232-.549.407-1.038.64-1.588-1.339.061-2.795-3.054-3.319-4.093-.757-1.466-1.339-3.054-1.805-4.704-.873-3.298-1.048-6.658-.582-10.018-.524.061-1.048.122-1.572.244 2.038 3.849 2.678 8.064 1.805 12.401.408-.183.873-.366 1.281-.55-.291-.549-.582-1.099-.932-1.649-.465.244-.873.55-1.339.794.99.611 1.922 1.222 2.911 1.772.99.611 1.864-.978.874-1.589-.99-.61-1.922-1.221-2.911-1.771-.524-.306-1.398.061-1.34.794.175 1.466.641 2.382 1.805 3.238.466.366 1.165 0 1.281-.55.932-4.826.291-9.53-1.979-13.806-.35-.611-1.456-.611-1.572.244-.641 4.521-.292 9.041 1.281 13.318.931 2.504 2.852 7.941 6.055 7.88.815 0 1.106-.978.64-1.588-.931-1.161-1.863-1.589-3.318-1.65-.757-.061-1.165 1.039-.641 1.589 1.165 1.16 2.62 1.343 3.959.305.466-.367.641-1.283 0-1.588-2.038-.978-3.377-2.383-4.192-4.582l-1.048 1.1c1.223.183 2.504.366 3.726.549.699.123 1.165-.366 1.048-1.099-.291-2.138-2.445-2.627-3.784-3.91-2.213-2.138-3.144-5.437-3.435-8.491-.524-6.414 1.514-12.645.407-18.999-.116-.794-1.222-.855-1.572-.244-2.27 3.849-2.853 8.247-1.572 12.584.233.794 1.572.978 1.689 0 .233-1.771.233-3.36-.059-5.131-.116-.855-1.222-.794-1.572-.244-6.055 9.59-1.921 21.075 5.415 28.344l1.223-1.282c-5.764-5.315-6.521-13.379-7.103-20.954-.059-.977-1.456-1.283-1.689-.244-2.387 8.736.058 19.121 9.083 22.053.99.305 1.456-1.1.699-1.65-6.114-4.642-9.2-12.584-7.919-20.403-.582-.061-1.164-.183-1.688-.244-.175 10.751 6.055 19.976 14.032 26.145.291.245.815.123 1.048-.122 1.281-1.344.815-2.871-.524-3.97-2.795-2.261-5.823-3.666-8.268-6.476-5.473-6.353-7.162-15.761-2.504-23.152.408-1.283-1.106-2.2-1.746-1.222Z"/>
  <path fill="#161616" d="M441.828 291.015c1.281 7.025-2.329 13.928-4.949 20.159-2.212 5.315-4.483 10.63-6.463 16.067-3.726 10.385-5.997 21.136-5.706 32.315.524 20.282 8.618 40.258 22.533 54.491 9.141 9.286 20.145 16.128 31.15 22.664.757.428 1.397-.733.64-1.161-9.723-5.803-19.447-11.729-27.889-19.548-7.802-7.208-14.032-15.944-18.399-25.901a83.198 83.198 0 0 1-6.754-30.972c-.233-11.24 2.155-22.053 5.997-32.499 2.388-6.537 5.241-12.89 7.802-19.304 2.155-5.315 4.251-10.752 3.203-16.616-.059-.978-1.339-.55-1.165.305Zm24.221 176.423c1.572-6.964 4.6-13.5 7.919-19.731 3.086-5.742 6.754-11.179 12.46-14.234.756-.427.116-1.588-.641-1.16-5.648 2.993-9.374 8.247-12.46 13.867-3.61 6.536-6.812 13.5-8.5 20.892-.233.855.989 1.222 1.222.366Zm5.706 2.505c2.679-13.012 9.432-24.619 19.331-32.988.64-.549-.292-1.527-.932-.977-10.015 8.491-16.943 20.342-19.621 33.599-.175.855 1.048 1.221 1.222.366Zm32.955-23.03a19.283 19.283 0 0 0-3.668 13.073c.174 2.077.757 4.093 1.572 5.986 1.048 2.444.815 3.91.174 6.353-.465 1.711-.931 3.36-1.397 5.01A426.133 426.133 0 0 1 488 516.065c-.35.794.815 1.527 1.106.672 4.832-12.035 9.199-24.375 12.867-36.837.932-3.115 1.98-6.292 2.679-9.529.465-2.2-.175-3.482-1.048-5.498-2.388-5.804-1.398-12.401 2.27-17.349.466-.611-.698-1.344-1.164-.611Zm-29.578 25.596c2.678-2.81 5.997-4.643 9.724-5.376.815-.183.465-1.466-.35-1.344-3.959.733-7.452 2.749-10.305 5.742-.583.611.349 1.589.931.978Zm20.786-32.133c-.932 2.077-1.921 4.093-3.028 6.048-1.048 1.894-2.794 3.726-3.609 5.681-1.223 2.81 2.736 2.749 4.599 3.238.233.061.466 0 .641-.183 2.911-3.543 5.706-7.148 7.045-11.607.233-.855-.99-1.222-1.281-.367-.757 2.566-1.98 4.826-3.494 6.964-.524.733-1.805 2.933-2.62 3.36-.698.367-2.853.122-3.493-.427-.582 0-.641-.123-.233-.306.349-.55.757-1.038 1.106-1.588a43.86 43.86 0 0 0 2.038-3.299 68.835 68.835 0 0 0 3.494-6.903c.349-.733-.816-1.466-1.165-.611Zm-30.509 61.089c3.843-1.528 9.898-2.933 13.042.733.582.672 1.514-.306.931-.978-3.493-4.032-10.014-2.749-14.323-1.038-.815.244-.465 1.588.35 1.283Z"/>
  <path fill="#161616" d="M463.487 509.101c2.213-.917 4.425-1.589 6.813-1.772 1.805-.122 3.901.55 5.647.306 2.387-.367 3.086-2.872 3.494-5.193.174-.855-1.107-1.222-1.281-.366-.117.61-.233 1.221-.466 1.832-.582 1.65-1.456 2.077-3.144 2.199-1.223.061-2.504-.244-3.785-.183-2.678.122-5.182.794-7.627 1.833-.757.366-.407 1.71.349 1.344Zm-26.142-108.005c2.562 1.222 6.288-2.382 8.21-3.848 3.144-2.383 5.764-5.254 7.802-8.736.407-.733-.699-1.466-1.107-.672-1.63 2.933-3.784 5.376-6.288 7.453-1.281 1.039-6.172 5.498-7.86 4.643-.815-.367-1.514.794-.757 1.16Zm12.576 14.234c4.833-1.71 8.792-6.353 11.47-10.751.466-.734-.698-1.406-1.106-.672-2.503 4.031-6.172 8.552-10.713 10.14-.815.245-.466 1.589.349 1.283Zm-67.947-26.085c-1.223-5.559 5.415-7.269 9.083-5.314 3.144 1.71 5.124 4.887 6.114 8.369.873 3.054 1.164 6.353 1.28 9.591.175 4.337-2.969 7.819-7.219 6.108-.757-.305-1.107.978-.35 1.344 3.261 1.344 7.395-.305 8.559-3.909.874-2.627.175-6.048-.174-8.736-.35-2.688-.874-5.376-2.038-7.819-1.922-4.032-5.881-7.575-10.364-7.27-3.901.245-7.162 3.788-6.288 8.003.349.855 1.572.489 1.397-.367Z"/>
  <path fill="#161616" d="M383.546 393.338c-.349-3.298 1.805-6.292 5.182-5.925 2.737.305 4.542 2.81 5.473 5.314.641 1.833 1.106 3.91 1.048 5.865-.058 4.398-3.377 6.781-7.278 4.765-.757-.367-1.397.794-.64 1.16 3.027 1.589 6.521 1.589 8.326-1.893 1.746-3.299.757-8.125-.641-11.363-1.397-3.176-4.308-5.925-7.86-5.253-3.377.672-5.298 3.848-4.949 7.269.117.978 1.456.978 1.339.061Zm-9.781-56.751c3.202-2.199 6.812-3.299 10.422-4.398 4.134-1.222 8.209-1.955 12.518-1.283.815.122 1.164-1.222.349-1.344-4.192-.611-8.151-.183-12.227.977-4.076 1.161-8.209 2.383-11.761 4.826-.699.489-.058 1.711.699 1.222Z"/>
  <path fill="#161616" d="M373.299 342.085a27.887 27.887 0 0 1 6.812-3.482c.349-.122.524-.489.466-.855-.233-1.527-.291-2.993 0-4.521.116-.855-1.106-1.221-1.281-.366a15.913 15.913 0 0 0 0 5.253c.175-.305.291-.549.466-.855a29.074 29.074 0 0 0-7.104 3.604c-.698.489-.058 1.711.641 1.222Zm12.809-10.812c.116 1.405-.291 4.215 1.514 4.52 2.562.489 5.764-.305 8.326-.611.291-.061.582-.183.64-.489.175-1.221.408-2.504.583-3.726.116-.855-1.107-1.222-1.281-.366-.175 1.221-.408 2.504-.583 3.726.233-.183.408-.367.641-.489-1.747.245-3.435.428-5.182.489-.466.061-1.747.305-2.213.122-1.281-.427-.989-2.077-1.106-3.176-.116-.917-1.397-.917-1.339 0Zm-11.47 25.901c8.617-5.193 18.224-7.758 28.122-7.575.815 0 .815-1.344 0-1.405-10.131-.183-19.971 2.444-28.762 7.758-.757.489-.117 1.65.64 1.222Z"/>
  <path fill="#161616" d="M384.245 352.653c.466 2.077.815 4.154.99 6.293.058.488.407.733.815.672a239.473 239.473 0 0 1 17.35-2.994c.816-.122.816-1.466 0-1.405-5.938.733-11.819 1.772-17.7 2.993.292.245.524.428.816.672a42.813 42.813 0 0 0-1.048-6.658c-.175-.794-1.456-.428-1.223.427Z"/>
  <path fill="#161616" d="M402.411 349.904c.407 1.711.64 3.483.64 5.254 0 .855 1.281.916 1.339 0 0-1.894-.233-3.787-.64-5.62-.291-.855-1.514-.489-1.339.366Z"/>
  <path fill="#161616" d="M386.05 355.891c5.473-2.138 11.121-3.176 16.943-3.115.815 0 .815-1.344 0-1.405-5.939-.061-11.703.977-17.292 3.115-.816.428-.466 1.711.349 1.405Zm35.808 86.196c7.918-4.46 14.672-10.691 19.97-18.327.524-.733-.64-1.405-1.106-.672-5.124 7.453-11.761 13.501-19.505 17.838-.757.428-.116 1.588.641 1.161Zm21.484-32.682c-2.678 5.62-6.114 10.69-10.306 15.149-.582.611.35 1.589.932.978a57.673 57.673 0 0 0 10.538-15.456c.35-.794-.756-1.466-1.164-.671Z"/>
  <path fill="#161616" d="M432.105 434.39c1.572 2.138 3.319 4.154 5.065 6.047.582.611 1.514-.366.932-.977-1.805-1.894-3.494-3.971-5.066-6.048-.524-.672-1.455.306-.931.978Z"/>
  <path fill="#161616" d="M437.112 439.704c-1.863 3.055-4.367 5.559-7.394 7.27-.757.427-.059 1.588.64 1.16a22.383 22.383 0 0 0 7.86-7.819c.466-.672-.698-1.405-1.106-.611Zm-6.812-25.657c1.805 1.711 3.61 3.421 5.356 5.132.641.611 1.572-.367.932-.978a457.176 457.176 0 0 1-5.357-5.131c-.64-.55-1.572.366-.931.977Z"/>
  <path fill="#161616" d="M430.416 413.436c1.572-1.649 3.086-3.421 4.542-5.192.524-.672-.408-1.65-.932-.978a75.862 75.862 0 0 1-4.541 5.193c-.582.611.349 1.588.931.977Z"/>
  <path fill="#161616" d="M434.958 406.717a66.12 66.12 0 0 1-4.367-5.682c-.058.306-.058.55-.116.856 1.513-1.711 3.027-3.482 4.541-5.193.582-.672-.349-1.649-.932-.977-1.513 1.71-3.027 3.482-4.541 5.192-.175.183-.291.611-.117.855a75.184 75.184 0 0 0 4.6 5.926c.582.672 1.514-.305.932-.977Zm1.455 12.217c2.97-2.932 5.299-6.414 6.929-10.324.349-.794-.815-1.527-1.106-.672a31.037 31.037 0 0 1-6.696 10.019c-.64.611.291 1.588.873.977Zm-5.997-23.58a132.187 132.187 0 0 0-4.658 5.376c-.524.672.408 1.649.932.977 1.514-1.832 3.028-3.665 4.658-5.375.582-.672-.349-1.65-.932-.978Zm-2.445 8.98c.757 1.222 1.572 2.444 2.329 3.727.466.733 1.572.061 1.106-.672-.757-1.222-1.572-2.444-2.329-3.727-.407-.733-1.572-.061-1.106.672Zm-32.314-22.297c5.88 6.048 8.151 14.905 6.055 23.275-.233.855 1.048 1.221 1.281.366 2.212-8.797-.175-18.204-6.405-24.618-.64-.611-1.572.366-.931.977Zm23.464-64.815c1.106 12.646-5.124 24.069-6.987 36.287-1.747 11.179.175 22.602 5.124 32.621.407.794 1.514.061 1.106-.672-5.473-11.057-6.929-23.641-4.192-35.676 2.445-10.751 7.22-21.136 6.23-32.499-.058-.916-1.397-.916-1.281-.061Z"/>
  <path fill="#161616" d="M413.24 349.599c3.96 1.894 8.268 2.016 12.344.244.757-.366.407-1.649-.35-1.344-3.726 1.65-7.627 1.65-11.295-.122-.757-.305-1.456.856-.699 1.222Zm3.144-9.102c3.436 2.077 7.569 1.955 10.83-.367.699-.488.058-1.71-.64-1.16-2.912 2.077-6.463 2.199-9.491.366-.757-.489-1.397.733-.699 1.161Zm34.702-50.215a252.934 252.934 0 0 1-8.909 33.538c-.174.55.35.916.816.855 3.901-.611 7.743-.672 11.644-.061.815.122 1.165-1.222.35-1.344-4.134-.611-8.21-.55-12.344.061l.815.855c3.727-10.935 6.696-22.175 8.909-33.537.174-.855-1.107-1.222-1.281-.367Z"/>
  <path fill="#6D6C6C" d="M389.252 264.87c-3.784 16.616-12.867 66.036 10.597 116.434 3.26 7.025 15.953 33.049 42.736 56.812a174.932 174.932 0 0 0 41.164 27.184c-2.212 1.344-4.425 2.749-6.695 4.093a8353.253 8353.253 0 0 0-5.473 27.185c-3.319 16.432-4.891 24.679-2.329 26.756 4.075 3.299 14.614-2.688 21.193-9.468 5.822-6.048 7.977-12.279 12.926-27.979 4.425-13.928 7.976-25.596 10.596-34.148a185.128 185.128 0 0 1-24.337-17.716c-9.141-7.88-20.786-17.899-29.403-32.499-12.169-20.587-13.857-42.456-13.333-57.179 2.096-3.482 4.949-8.796 7.452-15.638 2.213-6.048 12.169-33.11 3.552-49.787-8.792-16.983-37.671-24.619-68.646-14.05Z" opacity=".19"/>
  <path fill="#6D6C6C" d="M430.649 282.341c-4.425 12.889-10.189 35.187-7.452 62.738 2.911 29.322 14.032 49.603 21.368 62.737 15.254 27.307 34.41 45.267 48.617 56.201-.466 7.209-1.514 15.822-3.785 25.23-3.202 13.378-7.86 24.191-12.11 32.255.815.061 1.863.061 2.969-.123 3.959-.855 6.23-3.909 6.987-5.009a62.545 62.545 0 0 0 9.141-11.24c4.541-7.147 6.463-13.623 10.131-26.268 4.192-14.417 6.928-24.008 8.035-27.856a155.572 155.572 0 0 1-34.178-24.619c-6.113-5.803-14.148-13.5-20.844-24.619-12.518-21.014-13.682-43.678-12.809-58.278 5.182-7.697 14.789-24.557 13.857-46.488-.233-5.437-1.048-10.324-2.154-14.539-9.258-.122-18.515-.122-27.773-.122Z" opacity=".29"/>
  <path fill="#fff" stroke="#161616" stroke-width="2" d="M370.155 113.37c-8.967-3.726-28.413 28.101-31.383 32.927-6.113 10.019-14.09 25.23-20.203 45.877-15.954 4.154-31.907 8.37-47.802 12.524-15.604-10.202-20.844-11.668-22.067-10.202-.873 1.099-.116 4.459 1.106 6.658 1.398 2.566 3.028 2.933 2.97 3.91-.117 2.321-8.792 2.505-15.721 4.704-14.032 4.398-23.697 17.471-22.416 19.609 1.747 2.81 26.084-9.652 26.143-9.407.058.183-12.053 3.176-16.419 12.95-1.689 3.727-2.562 9.102-.35 10.996 1.223 1.039 3.261.733 10.48-2.382 9.142-3.91 15.022-7.27 15.255-6.842.408.733-18.399 12.401-17.176 15.211.99 2.26 14.498-2.321 16.012-2.81 10.363-3.482 18.398-8.125 24.046-11.851 5.881 2.321 16.419 5.498 29.519 4.337 23.523-2.138 38.37-16.86 42.213-20.77 7.976-8.125 12.634-20.465 22.067-45.083 5.531-14.539 12.285-34.882 7.452-54.125-.64-2.565-1.572-5.314-3.726-6.231Z"/>
  <path fill="#161616" d="M225.061 242.694c4.891-7.33 13.508-10.018 20.961-13.622.989-.489.116-2.077-.874-1.589-7.743 3.788-16.419 6.598-21.542 14.295-.699.978.815 1.894 1.455.916Zm27.656-27.611c3.436 4.642 8.676 7.086 14.265 6.841 1.107-.061 1.107-1.893 0-1.832-5.182.244-9.84-2.016-12.984-6.292-.757-.917-1.979.366-1.281 1.283Zm78.661-56.752c2.329 5.865 6.23 10.691 11.412 14.051.931.611 1.863-.978.873-1.588-4.774-3.055-8.442-7.514-10.597-12.951-.407-1.1-2.096-.611-1.688.488Z"/>
  <path fill="#161616" d="M338.656 146.847c2.736 3.787 6.055 6.72 10.131 8.858-.117-.367-.291-.672-.408-1.039-1.281 5.62-3.144 10.935-5.589 16.128-.524 1.038.989 1.954 1.513.916a82.862 82.862 0 0 0 5.765-16.555c.058-.367-.059-.855-.408-1.039-3.784-1.954-6.987-4.642-9.549-8.185-.582-.917-2.096 0-1.455.916Z"/>
  <path fill="#161616" d="M335.919 152.528c2.62 3.727 5.764 6.903 9.491 9.408.931.611 1.805-.917.873-1.589-3.435-2.321-6.463-5.253-8.85-8.735-.64-.917-2.154 0-1.514.916Zm.059 73.734c-1.223-9.225 5.997-16.677 14.672-15.639 1.106.122 1.106-1.71 0-1.833-9.956-1.16-17.758 7.698-16.361 17.96.116 1.161 1.805.672 1.689-.488Zm-51.529-24.802a68.581 68.581 0 0 0-.524 18.265c.117 1.161 1.864 1.161 1.747 0-.64-5.986-.524-11.851.466-17.776.175-1.161-1.514-1.65-1.689-.489Z"/>
  <path fill="#161616" d="M291.029 199.566c-.117 2.138-.291 4.337-.408 6.475-.058.55-.058 1.1-.116 1.65-.524.427-1.048.733-1.689.916-.931.428-1.863.733-2.794 1.1-1.048.427-.583 2.199.465 1.771 1.631-.611 4.891-1.099 5.648-2.932.408-1.038.233-2.566.349-3.665.117-1.772.233-3.482.35-5.254.058-1.222-1.689-1.222-1.805-.061Zm27.54-9.652-.35 6.231c-.058 1.161 1.689 1.161 1.747 0l.349-6.231c.058-1.161-1.688-1.161-1.746 0Zm.174 9.958.35 3.115c.058.489.349.916.873.916.407 0 .932-.427.873-.916l-.349-3.115c-.058-.489-.349-.917-.873-.917-.408 0-.932.428-.874.917Zm30.335-67.87c3.551 2.81 10.538 1.344 14.381-.122 4.716-1.771 8.675-5.009 11.528-9.285.641-.978-.873-1.894-1.513-.917-2.62 3.849-6.23 6.781-10.481 8.431-3.377 1.283-9.84 2.81-13.042.305-.931-.672-1.805.916-.873 1.588Z"/>
  <path fill="#161616" d="M354.667 125.71c7.453 1.1 14.673-2.321 18.748-8.98.583-.977-.931-1.893-1.513-.916-3.61 5.864-10.131 9.163-16.769 8.186-1.106-.245-1.572 1.527-.466 1.71Z"/>
  <path fill="#6D6C6C" d="M375.395 129.498a180.009 180.009 0 0 0-13.741 22.786c-9.781 19.487-11.819 28.589-21.368 41.784-3.552 4.948-9.549 12.218-18.923 19.671-7.161 1.527-17.409 3.909-29.577 7.208-14.847 4.093-22.475 6.231-31.034 10.263-7.045 3.299-17.001 8.919-27.889 18.571a81.867 81.867 0 0 0 19.796-4.338c8.559-2.993 15.255-6.903 20.029-10.262a64.045 64.045 0 0 0 17.758 4.337c19.214 1.71 33.596-6.231 38.312-8.919 4.366-2.505 12.343-7.147 19.272-16.433 2.096-2.749 4.017-5.925 8.966-17.532 7.86-18.327 12.285-28.773 15.43-44.228 1.106-5.315 2.387-13.195 2.969-22.908Z" opacity=".24"/>
  <path fill="#6D6C6C" d="M226.517 238.724c.815-1.1 3.377-4.338 12.052-7.82 3.203-1.282 12.169-4.826 13.333-2.687.35.672.117 2.015-2.853 5.375a67.537 67.537 0 0 1-15.662 8.064 60.335 60.335 0 0 1-9.781 2.688c.524-1.405 1.339-3.482 2.911-5.62Z" opacity=".26"/>
  <path fill="#6D6C6C" d="M374.231 148.374c-3.727 6.781-10.131 18.571-18.108 33.415-11.412 21.32-17.875 31.705-23.231 37.081-6.463 6.414-23.29 19.426-60.844 15.639 6.113 2.382 25.153 8.735 46.812.916 15.604-5.681 24.803-15.883 27.016-18.388 2.27-2.626 6.87-8.308 15.196-29.2a393.267 393.267 0 0 0 13.159-39.463Z" opacity=".34"/>
  <path fill="#6D6C6C" d="M235.891 249.292c6.87-2.382 15.313-5.681 24.745-10.141 6.812-3.237 11.179-5.681 11.412-5.253.291.488-6.521 5.742-14.498 9.53-8.384 3.909-16.07 5.314-21.659 5.864Z" opacity=".47"/>
  <path fill="#161616" stroke="#161616" stroke-width="2" d="M418.655 114.714c3.319-1.099 51.412-16.25 81.805 12.89 32.954 31.583 16.128 87.479 8.326 113.319-8.326 27.734-19.214 35.492-24.92 38.486-11.005 5.803-21.776 3.848-32.547 2.199-18.341-2.81-44.309-5.865-77.962-6.842 3.668-48.688 7.394-97.436 11.063-146.123l34.235-13.929Z"/>
  <path fill="#fff" stroke="#161616" stroke-width="2" d="M462.206 137.073c12.868.183 33.13 2.627 50.772 16.494 11.12 8.735 21.717 22.419 36.913 76.543 19.913 70.679 12.286 84.302 30.451 108.493 2.562 3.421 26.842 34.759 64.629 38.73 46.986 4.948 83.202-35.92 108.005-63.898 42.969-48.504 60.087-103.423 67.365-139.465 7.103 2.26 14.148 4.521 21.251 6.781-22.416 60.172-48.791 105.194-69.228 135.616-39.068 58.095-62.183 71.29-76.622 77.46-10.364 4.459-45.647 19.548-84.017 3.849-35.633-14.539-51.877-46.672-57.234-57.118-6.055-11.912-6.463-17.166-15.72-60.05-17.933-83.263-24.105-98.841-37.846-108.493-7.743-5.437-21.426-11.423-45.24-7.758 2.213-9.102 4.367-18.143 6.521-27.184Z"/>
  <path fill="#161616" d="M501.508 171.038c.698-6.414 4.075-12.035 9.199-15.517.931-.61.058-2.199-.873-1.588-5.706 3.91-9.316 10.019-10.073 17.105-.117 1.222 1.63 1.161 1.747 0Zm17.583 23.58c2.853-5.742 7.627-9.774 13.566-11.546 1.107-.305.641-2.077-.466-1.771-6.346 1.832-11.586 6.231-14.614 12.34-.524 1.099.99 2.015 1.514.977Zm-3.144-14.417c2.387-4.459 6.521-7.453 11.354-8.125 1.106-.122 1.106-1.954 0-1.832-5.473.733-10.131 3.97-12.868 9.041-.524 1.038.99 1.955 1.514.916Zm15.72 58.828c3.61-5.315 9.491-8.247 15.663-8.002 1.106.061 1.106-1.772 0-1.833-6.871-.305-13.217 3.054-17.176 8.919-.699.977.815 1.894 1.513.916Zm-2.27-19.609c2.969-5.071 8.617-6.781 13.915-7.575 1.106-.183.641-1.955-.466-1.772-5.822.856-11.703 2.933-14.963 8.43-.582.978.931 1.894 1.514.917Zm-6.463-10.446c2.853-5.01 7.86-8.064 13.391-8.247 1.107-.061 1.107-1.894 0-1.833-6.171.183-11.703 3.543-14.905 9.102-.582 1.039.932 1.955 1.514.978Zm16.594 70.801c4.89-5.559 11.586-8.43 18.806-8.125 1.106.061 1.106-1.771 0-1.832-7.627-.306-14.847 2.81-20.029 8.674-.815.855.466 2.138 1.223 1.283Zm-2.388-11.118c4.425-5.681 11.063-8.613 18.05-8.003 1.106.123 1.106-1.71 0-1.832-7.395-.672-14.556 2.504-19.272 8.552-.757.855.466 2.199 1.222 1.283Zm-2.561-12.218c3.26-4.031 7.685-6.536 12.751-7.086 1.106-.122 1.106-1.955 0-1.833-5.473.611-10.364 3.177-13.974 7.636-.757.917.466 2.2 1.223 1.283Zm5.007-10.018c3.61-2.627 7.685-3.727 12.052-3.238 1.106.122 1.106-1.71 0-1.832-4.599-.489-9.083.672-12.926 3.482-.931.733-.058 2.321.874 1.588Zm17.875 97.924c3.377-6.169 8.733-10.629 15.196-12.706 1.048-.366.64-2.138-.466-1.772-6.928 2.2-12.634 6.965-16.244 13.562-.582 1.039.931 1.955 1.514.916Zm-7.22-16.127c3.551-6.292 9.723-10.324 16.652-10.874 1.106-.061 1.106-1.893 0-1.832-7.569.611-14.265 4.948-18.166 11.79-.582.977.931 1.894 1.514.916Zm-4.542-20.526c4.134-5.864 10.83-8.98 17.759-8.369 1.106.123 1.106-1.71 0-1.832-7.57-.672-14.789 2.871-19.272 9.285-.699.978.815 1.894 1.513.916Zm5.24 4.521c4.425-3.299 9.433-4.948 14.848-4.887 1.106 0 1.106-1.833 0-1.833-5.706-.061-11.063 1.65-15.721 5.132-.931.672-.058 2.26.873 1.588Zm66.492 58.95c1.165 3.849 1.747 7.881 1.572 11.912-.175 3.788-.757 8.553-3.726 11.057-.874.733.349 2.016 1.222 1.283 2.853-2.504 3.61-6.536 4.076-10.263.582-4.948 0-9.835-1.455-14.539-.35-1.038-2.038-.549-1.689.55Zm20.961 8.98c2.62 6.17 2.037 13.073-1.398 18.754-.582.978.932 1.894 1.514.917 3.785-6.231 4.25-13.867 1.397-20.587-.465-1.1-1.979-.183-1.513.916Zm37.03-4.398c4.774 6.17 5.939 14.417 3.377 21.869-.408 1.1 1.281 1.589 1.688.489 2.853-8.063 1.34-16.982-3.784-23.641-.757-.916-1.98.367-1.281 1.283Zm81.513-65.12c3.901 1.649 6.463 5.375 7.103 9.652.175 1.16 1.864.672 1.689-.489-.699-5.009-3.901-9.041-8.326-10.935-1.048-.428-1.514 1.344-.466 1.772Zm30.568-44.106c3.784 1.588 6.754 4.826 8.035 8.858.349 1.099 2.037.611 1.688-.489-1.514-4.704-4.833-8.308-9.258-10.141-1.048-.427-1.455 1.344-.465 1.772Zm-72.78 86.257c4.367 6.047 6.172 13.439 5.007 20.892-.175 1.161 1.514 1.649 1.689.489 1.222-7.942-.583-15.883-5.182-22.298-.699-.916-2.213 0-1.514.917Zm-16.71 13.989c4.425 5.376 9.141 11.912 6.637 19.365-.349 1.099 1.339 1.588 1.689.489 2.678-8.125-2.271-15.273-7.104-21.198-.757-.794-1.979.489-1.222 1.344Zm-123.959 1.649c1.631-6.658 5.881-12.034 11.762-15.027.989-.489.116-2.077-.874-1.589-6.288 3.177-10.829 9.041-12.576 16.128-.291 1.16 1.397 1.649 1.688.488Zm10.131 10.507c3.377-7.33 8.617-13.317 15.371-17.41.99-.611.117-2.199-.873-1.588-6.987 4.215-12.518 10.446-15.953 18.082-.583 1.039.931 2.016 1.455.916Zm-17.467-25.351c2.154-4.276 5.59-7.636 9.84-9.469 1.048-.428.582-2.199-.466-1.771-4.716 2.015-8.559 5.559-10.888 10.323-.465.978.99 1.955 1.514.917Zm169.781-20.709c5.997 2.077 10.422 7.269 11.819 13.745.233 1.16 1.921.672 1.689-.489-1.514-7.086-6.463-12.767-12.984-15.028-1.107-.366-1.572 1.405-.524 1.772Zm10.829-5.071c2.795 1.589 4.891 4.093 5.881 7.27.349 1.1 2.038.611 1.688-.489-1.164-3.604-3.493-6.536-6.695-8.369-.99-.55-1.864 1.039-.874 1.588Zm20.553-31.155c3.144 1.161 5.764 3.299 7.686 6.17.64.978 2.154.061 1.514-.916-2.213-3.299-5.182-5.681-8.734-7.025-1.048-.367-1.514 1.405-.466 1.771Zm34.178-63.165c4.832.855 9.082 3.482 11.935 7.636.641.917 2.155 0 1.514-.916-3.144-4.521-7.685-7.575-12.984-8.491-1.106-.184-1.572 1.588-.465 1.771ZM662.147 382.281c2.62 5.071 2.911 10.752.873 16.128-.407 1.099 1.281 1.588 1.689.488a21.656 21.656 0 0 0-1.048-17.532c-.524-1.039-2.038-.122-1.514.916Zm71.848-35.492c3.261 3.299 4.949 7.575 4.833 12.34 0 1.161 1.746 1.161 1.746 0 .117-5.193-1.746-10.019-5.356-13.623-.815-.855-2.038.489-1.223 1.283Z"/>
  <path fill="#6D6C6C" d="M459.004 144.831c20.262 6.17 49.374 18.876 67.482 47.282 17.234 27.001 10.305 44.289 24.919 96.581 10.655 38.119 20.786 74.222 50.48 91.877 37.846 22.48 84.367 1.344 92.693-2.688 23.231-11.24 37.787-28.467 60.086-54.98 16.594-19.67 27.424-36.958 32.606-45.633 12.867-21.442 29.752-55.04 40.873-100.307 4.308 1.222 8.617 2.505 12.867 3.727-7.976 23.458-16.186 42.334-22.649 55.957-13.333 28.1-25.502 46.671-49.781 83.935-9.549 14.6-16.419 24.497-26.667 35.92-9.49 10.507-17.583 19.548-30.218 27.978-7.976 5.315-33.245 21.626-68.005 19.61-19.854-1.161-34.236-7.819-39.126-10.263-4.193-2.077-25.037-12.829-41.747-37.753-11.412-16.982-15.313-34.453-23.115-69.457-6.754-30.178-7.336-44.228-16.885-75.505-6.928-22.725-11.12-30.178-17.35-36.348-16.419-16.371-39.534-16.494-49.782-15.822 1.281-4.764 2.271-9.468 3.319-14.111Z" opacity=".29"/>
  <path fill="#fff" stroke="#161616" stroke-width="2" d="M365.788 115.081c-7.569 9.957-7.744 30.85-8.21 72.695a696.626 696.626 0 0 0 .466 32.438 42481.423 42481.423 0 0 1-24.163 37.264c8.385 6.781 18.981 13.867 31.849 19.731 38.66 17.716 74.934 13.929 93.1 10.569 7.569-22.298 12.925-41.174 16.593-54.919 17.118-64.509 13.508-81.797 8.035-93.465-5.589-12.034-13.508-19.059-17.118-22.175-29.577-25.901-81.92-26.757-100.552-2.138Z"/>
  <path fill="#161616" d="M370.271 232.493c1.514 1.588 3.261 2.749 5.182 3.604 1.048.428 1.514-1.344.466-1.772-1.689-.733-3.144-1.832-4.425-3.115-.815-.794-2.038.489-1.223 1.283Zm-12.867-18.877c-.117 4.826 1.222 9.408 3.959 13.318.466.733 1.63 0 1.106-.672-2.62-3.727-3.901-8.003-3.726-12.584 0-.917-1.281-.917-1.339-.062Zm69.402-5.864c19.505 6.17 41.106 2.26 57.526-10.385.698-.489 0-1.711-.641-1.161-16.128 12.462-37.321 16.311-56.535 10.202-.815-.244-1.165 1.1-.35 1.344Z"/>
  <path fill="#161616" d="M426.108 206.775c-.35 1.71-1.805 5.314-.874 7.025.99 1.71 4.542 1.955 6.172 2.26a61.724 61.724 0 0 0 17.409 1.222c11.878-.794 23.348-4.948 33.188-11.974.698-.488.058-1.71-.641-1.16-8.501 6.109-18.224 10.018-28.413 11.362-4.949.672-9.956.733-14.905.245a73.772 73.772 0 0 1-8.152-1.405c-1.979-.489-3.318-.245-3.377-3.116-.058-1.283.524-2.81.757-4.032.291-.916-.99-1.283-1.164-.427Zm-82.387 36.103c10.073 13.012 23.814 22.419 39.185 27.001.815.244 1.164-1.1.349-1.344-15.196-4.46-28.646-13.806-38.602-26.635-.524-.672-1.456.306-.932.978Z"/>
  <path fill="#161616" d="M339.704 248.864a509.568 509.568 0 0 1 6.055 5.559c1.514 1.405 3.261 3.605 5.065 4.582 2.737 1.527 4.542-1.1 5.823-3.482.407-.794-.699-1.466-1.106-.672-1.048 1.955-1.922 3.726-4.542 2.505-1.164-.55-2.445-2.261-3.435-3.177-2.271-2.138-4.6-4.215-6.87-6.353-.699-.489-1.631.489-.99 1.038Zm23.639 12.707c-2.271 5.864 4.832 8.552 9.024 10.324 3.668 1.588 9.956 3.848 11.703-1.65.233-.855-.99-1.221-1.281-.366-1.572 5.009-8.675 1.466-11.586 0-2.911-1.466-8.21-3.666-6.58-7.942.292-.794-.989-1.16-1.28-.366Zm-15.139-25.657c6.987 7.88 15.255 14.233 24.571 18.754.757.366 1.455-.794.64-1.161-9.199-4.459-17.409-10.69-24.337-18.51-.524-.733-1.456.245-.874.917Zm23.93-81.003c-1.921.244-3.61-3.36-4.017-4.826-.641-2.2-.524-4.582.291-6.72 1.63-4.337 5.997-6.964 10.306-5.315 4.017 1.527 6.055 6.476 4.716 10.63-.757 2.382-2.504 4.215-4.658 5.253-1.922.916-5.182 1.955-7.162.794-.757-.427-1.397.733-.64 1.161 2.329 1.405 5.939.428 8.209-.672 2.271-1.038 4.076-2.871 5.124-5.254 2.096-4.948-.058-11.057-4.891-13.134-5.24-2.26-10.713 1.1-12.46 6.415-.873 2.626-.815 5.559.233 8.124.757 1.894 2.679 5.132 4.949 4.826.815 0 .874-1.344 0-1.282Zm-14.497 44.228c7.161 5.986 15.895 9.163 25.094 9.041.815 0 .873-1.405 0-1.405-8.792.122-17.234-2.872-24.163-8.614-.64-.55-1.572.428-.931.978Z"/>
  <path fill="#161616" d="M358.219 193.824c-.117.489 5.531 2.688 6.404 3.054.932.428 2.446.733 3.261 1.405 1.572 1.344.699 4.215.349 5.987-.174.855 1.107 1.222 1.281.366.291-1.527 1.281-4.948.582-6.414-.582-1.283-3.144-1.832-4.25-2.321-2.271-.978-4.541-2.199-6.87-3.055-.757-.244-1.631-.488-1.922.55-.349.917.932 1.283 1.165.428Zm32.081 48.015a124.03 124.03 0 0 0 49.141 7.82c.815-.062.873-1.405 0-1.405-16.594.733-33.129-1.894-48.792-7.759-.815-.305-1.164 1.039-.349 1.344Zm-32.372-75.077c2.562 1.466 5.24 2.26 8.093 2.871 1.63.366 3.901.305 4.483 2.321.524 1.772-.058 4.582-.116 6.414-.059.856 1.281.856 1.339 0 .116-2.382.407-5.131.058-7.513-.175-1.1-.291-1.283-1.281-1.711-1.747-.733-3.959-.794-5.822-1.283-2.155-.549-4.192-1.221-6.114-2.382-.698-.367-1.397.794-.64 1.283Z"/>
  <path fill="#161616" d="M359.791 176.108c1.863 2.138 6.405 2.26 8.966 2.81 3.901.856 7.861 1.527 11.82 2.138.815.123 1.164-1.221.349-1.344-3.435-.488-6.812-1.099-10.189-1.771-1.63-.306-3.202-.672-4.774-1.039-1.514-.366-4.134-.427-5.241-1.71-.582-.733-1.513.244-.931.916Zm53.275 51.009c-.641 2.382-.932 4.826-1.048 7.269 0 .856 1.28.856 1.339 0 .058-2.321.407-4.642.99-6.903.174-.855-1.049-1.221-1.281-.366Z"/>
  <path fill="#161616" d="M413.823 227.545c8.733.427 18.34-.184 26.666 2.993.815.305 1.164-1.039.349-1.344-8.442-3.177-18.165-2.566-27.015-2.993-.816-.123-.816 1.282 0 1.344Zm-.466 8.185c8.384.734 16.768 1.467 25.094 2.139.815.061.815-1.283 0-1.405-8.384-.734-16.768-1.467-25.094-2.139-.815-.061-.815 1.344 0 1.405Z"/>
  <path fill="#161616" d="M439.79 230.049a20.67 20.67 0 0 1-1.455 6.17c-.35.794.931 1.161 1.281.367a22.7 22.7 0 0 0 1.514-6.537c.058-.855-1.281-.855-1.34 0Zm-21.31-2.199c-.698 2.321-.989 4.643-1.048 7.025 0 .855 1.281.855 1.34 0 0-2.26.349-4.52.989-6.658.233-.856-1.048-1.222-1.281-.367Zm5.881.244c-.815 2.383-1.339 4.765-1.514 7.27-.058.855 1.223.855 1.339 0 .175-2.383.699-4.643 1.456-6.903.291-.794-.99-1.161-1.281-.367Zm6.812.306c-.698 2.26-1.339 4.52-2.038 6.781-.233.855.99 1.221 1.281.366.699-2.26 1.339-4.52 2.038-6.781.233-.855-.99-1.221-1.281-.366Zm11.005 55.957a25.71 25.71 0 0 1-1.223 5.07c-.291.855.99 1.222 1.281.367.582-1.65.99-3.299 1.222-5.071.117-.855-1.164-1.222-1.28-.366Zm6.288-.306c0 1.466-.291 2.871-.932 4.154-.407.794.757 1.466 1.106.672.757-1.527 1.165-3.176 1.107-4.887.058-.855-1.281-.855-1.281.061Zm6.521-1.038c0 1.222-.291 2.382-.932 3.421-.466.733.699 1.466 1.106.672.757-1.222 1.107-2.688 1.107-4.154.058-.794-1.281-.794-1.281.061Zm-49.956-130.974c-.699 5.926-1.339 11.79-2.038 17.716-.116 1.161-.699 3.116.058 4.154.99 1.344 3.61 1.161 5.007 1.405 10.481 1.711 21.077 2.871 31.616 3.604.815.061.815-1.344 0-1.405-9.374-.672-18.69-1.649-27.947-3.054-1.107-.183-2.213-.367-3.377-.55-.932-.122-2.62-.061-3.377-.55-1.864-1.222-.583-5.314-.35-7.208.524-4.704 1.048-9.408 1.631-14.173.232-.855-1.107-.855-1.223.061Z"/>
  <path fill="#161616" d="M406.021 151.978c10.131-1.771 20.378-.549 30.451 1.161 2.27.367 5.997.122 6.695 2.932.466 1.894-.116 4.765-.291 6.72-.466 5.131-1.572 10.202-3.086 15.15-.232.855.99 1.222 1.281.366a74.403 74.403 0 0 0 3.261-17.165c.116-1.955.757-4.826-.058-6.72-.641-1.527-2.096-1.65-3.494-1.894-11.586-2.138-23.348-3.91-35.05-1.833-.874.123-.524 1.467.291 1.283Z"/>
  <path fill="#161616" d="M405.322 159.309c12.693-2.321 25.618-1.1 37.729 3.543.815.306 1.106-1.038.349-1.344-12.343-4.704-25.502-5.925-38.428-3.543-.815.183-.465 1.466.35 1.344Z"/>
  <path fill="#161616" d="M412.251 150.39a32.114 32.114 0 0 0-.874 6.72c0 .855 1.281.855 1.339 0 .059-2.138.291-4.276.815-6.353.175-.856-1.106-1.222-1.28-.367Zm9.199.733a23.69 23.69 0 0 0-.524 5.742c0 .856 1.339.917 1.339 0a20.785 20.785 0 0 1 .524-5.375c.116-.856-1.164-1.222-1.339-.367Zm11.528 1.222a45.11 45.11 0 0 0-.582 6.231c0 .855 1.281.855 1.339 0 0-1.955.175-3.91.524-5.865.117-.855-1.164-1.221-1.281-.366Zm-9.665 12.767c-.466 3.605-.932 7.209-1.281 10.874-.116.855 1.223.855 1.339 0 .35-3.482.757-7.025 1.223-10.507.116-.855-1.165-1.222-1.281-.367Z"/>
  <path fill="#161616" d="M423.895 165.784c5.764 1.039 11.529 2.138 17.293 3.177.815.122 1.164-1.161.349-1.344-5.764-1.039-11.528-2.138-17.292-3.177-.815-.183-1.165 1.161-.35 1.344Zm2.329 3.971c-.698 2.199-1.106 4.459-1.397 6.72-.117.855 1.223.855 1.339 0 .233-2.138.699-4.276 1.339-6.353.233-.856-1.048-1.222-1.281-.367Z"/>
  <path fill="#161616" d="M426.865 171.099c4.367.183 8.792.367 13.158.611.815.061.815-1.344 0-1.405-4.366-.183-8.791-.367-13.158-.611-.874-.061-.874 1.344 0 1.405Zm-22.125-6.17c2.096.367 4.134.733 6.23 1.1-.175-.306-.291-.55-.466-.856-.815 2.933-1.456 5.926-1.98 8.919-.116.856 1.106 1.222 1.281.367.524-2.993 1.165-5.987 1.98-8.919.116-.306-.117-.794-.466-.855-2.096-.367-4.134-.733-6.23-1.1-.815-.122-1.223 1.222-.349 1.344Zm-.699 13.256c11.004 2.994 22.3 4.399 33.653 4.276.815 0 .874-1.405 0-1.405a122.711 122.711 0 0 1-33.304-4.215c-.815-.183-1.164 1.161-.349 1.344Zm-20.029 16.922a336.097 336.097 0 0 1-3.668 21.442c-.175.855 1.106 1.221 1.281.366a329.34 329.34 0 0 0 3.668-21.442c.116-.855-1.165-1.222-1.281-.366Zm24.221 64.937c-.291 4.703-2.212 9.407-3.668 13.867-1.456 4.52-2.969 9.041-4.6 13.5-.291.855.99 1.161 1.281.367 1.747-4.826 3.377-9.713 4.949-14.662 1.339-4.215 3.086-8.613 3.319-13.072.058-.856-1.223-.856-1.281 0Z"/>
  <path fill="#161616" d="M408.757 259.921c10.248 1.955 20.553 3.116 30.917 3.605a346.91 346.91 0 0 0-.641-.672c.35 9.407-1.397 18.632-5.24 27.123-.349.794.757 1.466 1.107.672 3.959-8.736 5.764-18.204 5.414-27.856 0-.367-.291-.672-.64-.672-10.247-.489-20.437-1.65-30.567-3.544-.816-.122-1.165 1.222-.35 1.344Z"/>
  <path fill="#161616" d="M408.058 268.413c9.666 1.955 19.447 4.337 29.345 3.482.815-.061.815-1.466 0-1.405-9.781.916-19.447-1.466-28.995-3.421-.815-.184-1.165 1.16-.35 1.344Zm-2.27 5.864c9.898 4.154 20.553 5.559 31.149 4.093.816-.122.816-1.466 0-1.405-10.48 1.466-20.96.061-30.8-4.032-.757-.305-1.106.978-.349 1.344Z"/>
  <path fill="#161616" d="M418.888 261.51a118.306 118.306 0 0 0-2.038 7.819c-.174.855 1.048 1.222 1.281.367a117.876 117.876 0 0 1 2.038-7.82c.233-.794-.99-1.16-1.281-.366Zm7.86 10.201-1.048 5.682c-.175.855 1.106 1.221 1.281.366l1.048-5.681c.175-.855-1.106-1.222-1.281-.367Zm-18.049 13.562c-.524-.061-.582-.855-.466-1.222a1.72 1.72 0 0 1 .815-1.099c.815-.55 1.747-.306 2.271.549.99 1.711-.99 3.544-2.504 2.322-.64-.55-1.572.427-.931.977 1.281 1.039 3.144.978 4.25-.244 1.165-1.283.873-3.482-.408-4.582-1.339-1.16-3.318-.733-4.308.733-.99 1.466-.582 3.788 1.281 4.032.815 0 .815-1.344 0-1.466Zm9.898.977c-.873-.183-1.397-1.16-.873-1.954.524-.917 1.688-.917 2.387-.184.582.611.815 1.65 0 2.138-.582.367-1.456.367-2.096.306-.815 0-.815 1.344 0 1.405 1.281.061 2.969-.122 3.668-1.466.757-1.527-.233-3.36-1.63-3.971-1.398-.611-3.086.061-3.669 1.527-.582 1.527.35 3.299 1.864 3.604.815.123 1.164-1.221.349-1.405Zm9.665.489c-1.863-.489-.932-3.36.815-2.627.641.245 1.048 1.161.873 1.833-.232.855-1.164 1.344-1.979 1.161-.815-.184-1.165 1.16-.349 1.344 1.513.366 3.144-.489 3.551-2.077.35-1.405-.466-3.116-1.805-3.544-1.339-.427-2.969.367-3.377 1.833-.466 1.527.524 3.116 1.922 3.482.815.122 1.164-1.161.349-1.405Zm7.394-171.047c8.676 3.787 16.652 8.919 23.814 15.272.873.733 2.096-.55 1.223-1.283-7.395-6.597-15.604-11.851-24.571-15.761-1.048-.488-1.455 1.283-.466 1.772Z"/>
  <path fill="#161616" d="M436.297 114.47c1.048-1.1 2.271-2.443 3.668-3.115 2.096-.978 3.552-.428 5.531.61 2.038 1.039 3.96 2.322 5.764 3.727 4.134 3.176 7.802 6.964 11.471 10.751.815.856 2.037-.488 1.222-1.282-4.658-4.826-9.374-9.713-15.021-13.318-1.864-1.16-5.008-3.421-7.337-3.176-2.387.244-4.89 2.871-6.463 4.52-.873.794.35 2.138 1.165 1.283Z"/>
  <path fill="#161616" d="M460.926 130.903c.931-1.222 1.863-2.505 2.853-3.665.698-.917-.524-2.2-1.223-1.283l-3.144 4.032c-.291.366-.058 1.038.291 1.282.524.245.931 0 1.223-.366Zm-8.734-8.064c.116-1.832 1.456-3.237 3.086-3.604 1.106-.244.64-2.016-.466-1.772-2.445.55-4.192 2.811-4.367 5.376-.058 1.161 1.689 1.161 1.747 0Zm4.017 2.994c.35-1.222 1.398-2.077 2.562-2.139 1.106-.061 1.106-1.893 0-1.832-1.979.122-3.668 1.466-4.25 3.482-.291 1.16 1.397 1.649 1.688.489Z"/>
  <path fill="#6D6C6C" d="M368.175 117.952c7.86 2.322 16.303 4.46 25.211 6.414a371.91 371.91 0 0 0 30.684 5.437c-9.258 54.919-12.46 75.505-13.566 83.386-.175 1.466-1.398 10.385-3.202 22.358-.583 3.727-1.048 6.72-1.281 8.491-2.679.184-5.415.428-8.093.611-6.929 11.851-13.8 23.703-20.728 35.493 7.744 3.543 17.7 7.208 29.578 9.285 21.95 3.91 40.407.916 51.935-2.077 2.038-6.048 5.007-15.272 8.559-26.573 17.467-55.896 18.923-71.168 19.389-78.254 1.28-19.488 1.979-31.705-4.6-45.511-13.217-27.612-49.956-36.103-51.761-36.409-33.188-5.742-57.874 13.867-62.125 17.349Z" opacity=".18"/>
  <path fill="#6D6C6C" d="M357.986 220.764c-.349.122.757 7.453 6.055 11.545 2.329 1.833 5.008 2.566 5.182 2.261.233-.367-3.319-2.077-6.695-6.109-3.494-4.154-4.309-7.819-4.542-7.697Z" opacity=".28"/>
  <path fill="#6D6C6C" d="M390.417 241.595c3.435 3.054 8.733 6.903 15.953 9.408 15.837 5.497 29.752.488 34.468-1.406-6.928.428-15.662.306-25.502-1.221a120.945 120.945 0 0 1-24.919-6.781Z" opacity=".33"/>
  <path fill="#6D6C6C" d="M481.944 153.933c-4.774 28.284-10.538 51.314-15.196 67.808-9.258 33.049-14.672 40.746-19.854 46.183-17.642 18.388-43.377 18.998-55.08 18.388 8.675 1.954 19.214 3.665 31.15 4.092 13.857.489 25.909-.733 35.633-2.443 7.161-19.793 12.11-36.958 15.604-50.276 10.072-38.974 10.189-56.69 9.548-67.808a192.095 192.095 0 0 0-1.805-15.944Z" opacity=".38"/>
  <path fill="#fff" stroke="#161616" stroke-width="2" d="M470.533 119.602c9.432.61 15.312 20.464 18.922 32.804 4.076 13.806 13.334 45.205-.698 77.155-8.501 19.303-22.125 31.399-36.332 43.922-8.384 7.392-15.953 12.706-21.426 16.311.291 2.321 1.164 11.667-4.716 20.403-7.395 11.118-19.505 12.218-21.136 12.34 7.22-9.957 8.326-12.096 8.035-12.34-.407-.366-3.901 5.07-9.723 7.392-6.055 2.382-12.344.427-16.478-1.405 3.145-1.405 7.57-3.849 11.645-8.369 2.387-2.627 4.367-5.62 3.901-6.109-.64-.733-5.182 5.009-11.47 5.315-4.017.183-7.394-1.894-9.374-3.544 2.329-.366 7.86-1.588 12.751-6.353 2.911-2.81 4.542-5.864 5.473-7.88-1.514-.428-3.202-.733-5.124-.917a30.274 30.274 0 0 0-10.713 1.039c5.764-7.758 11.529-11.301 15.779-13.012 7.394-3.054 12.227-1.771 19.272-6.353 4.134-2.688 6.637-5.926 9.316-9.774 14.032-20.404 24.104-34.943 25.152-54.308 1.107-19.609-8.326-20.342-7.743-40.135.698-22.908 14.09-46.854 24.687-46.182Z"/>
  <path fill="#161616" d="M388.204 316.734c7.103 1.71 16.186-3.299 20.553-9.103.699-.916-.524-2.199-1.223-1.282-3.901 5.192-12.343 10.14-18.864 8.613-1.106-.244-1.572 1.527-.466 1.772Zm65.618-122.727c5.765-7.147 14.615-8.797 23.057-9.407.815-.062.815-1.467 0-1.405-8.792.671-17.991 2.382-23.988 9.835-.524.672.407 1.649.931.977Z"/>
  <path fill="#161616" d="M476.355 184.844c1.106 5.437 1.281 10.874.64 16.433-.116.855 1.223.855 1.34 0a54.271 54.271 0 0 0-.699-16.8c-.175-.855-1.456-.488-1.281.367Z"/>
  <path fill="#161616" d="M454.172 209.157c6.346-5.559 14.556-6.536 22.474-7.392.815-.061.815-1.466 0-1.405-8.326.856-16.768 2.016-23.406 7.82-.64.549.291 1.527.932.977Zm.233-9.163c6.171-6.17 14.264-9.469 22.765-9.347.815 0 .815-1.344 0-1.405-8.85-.183-17.292 3.299-23.697 9.713-.582.672.291 1.65.932 1.039Z"/>
  <path fill="#161616" d="M465.467 186.249c.408 1.466.815 2.871 1.223 4.337.233.855 1.514.489 1.281-.366-.408-1.467-.815-2.872-1.223-4.338-.291-.855-1.514-.488-1.281.367Zm-6.463 9.713c.524 2.382.874 4.826.99 7.331.058.855 1.339.855 1.339 0a43.657 43.657 0 0 0-1.048-7.698c-.233-.855-1.455-.488-1.281.367Zm18.399-70.313c-4.076 6.476-9.84 11.424-16.768 14.295-.757.305-.466 1.649.349 1.344 7.22-2.993 13.217-8.125 17.525-14.906.466-.794-.64-1.466-1.106-.733Z"/>
  <path fill="#161616" d="M465.176 139.822c.815.916 1.921 2.688 3.319 2.321.815-.183 1.455-.977 2.096-1.466.873-.733 1.805-1.405 2.678-2.138.641-.55 0-1.711-.64-1.161-1.048.855-2.096 1.65-3.144 2.505-.583.489-.99 1.038-1.864.611-.524-.245-1.106-1.161-1.513-1.589-.583-.672-1.514.306-.932.917Zm20.378 5.559a7.899 7.899 0 0 0 1.922 3.054c.64.611 1.572-.366.931-.977-.698-.672-1.281-1.527-1.572-2.444-.291-.794-1.514-.427-1.281.367Zm7.569 66.586c-11.004 5.009-16.186 18.021-11.994 29.811.291.794 1.572.489 1.281-.366-4.017-11.302.874-23.458 11.412-28.284.757-.306.117-1.527-.699-1.161Zm-66.666 51.681c2.096 3.909 3.959 8.613 6.929 11.851 2.562 2.749 6.055 4.276 9.49 5.376.815.244 1.165-1.039.35-1.344-3.552-1.1-7.045-2.688-9.491-5.743-2.562-3.176-4.25-7.33-6.172-10.934-.349-.672-1.513.061-1.106.794Zm-.524 12.645c2.678 4.398 6.696 7.514 11.528 8.736.816.183 1.165-1.1.35-1.344-4.483-1.161-8.268-3.971-10.772-8.125-.465-.733-1.572-.061-1.106.733Zm-21.193-.733c3.668 3.177 4.425 10.629 4.832 15.272.058.855 1.398.855 1.339 0-.407-5.07-1.164-12.767-5.182-16.249-.698-.611-1.63.366-.989.977Zm7.918-1.955c1.805 2.871 2.853 6.048 3.028 9.469.058.855 1.339.855 1.339 0-.233-3.665-1.281-7.147-3.261-10.202-.407-.733-1.572 0-1.106.733Z"/>
  <path fill="#161616" d="M409.863 285.945c1.98-1.344 4.134-2.016 6.521-2.138.816-.061.874-1.405 0-1.405-2.561.122-5.007.855-7.161 2.321-.757.489-.058 1.711.64 1.222Zm32.373-31.033c2.853 6.476 7.569 11.607 13.624 14.784.757.366 1.398-.795.641-1.161-5.881-3.116-10.422-8.003-13.159-14.295-.349-.855-1.456-.122-1.106.672Z"/>
  <path fill="#161616" d="M444.157 254.423c4.018-5.925 8.617-11.362 13.799-16.249 3.785-3.543 7.686-.489 11.063 1.894a46.934 46.934 0 0 1 8.035 7.33c.582.672 1.513-.305.931-.977-2.736-3.055-5.764-5.804-9.141-8.125-2.212-1.527-6.172-4.826-8.966-3.604-1.398.611-2.912 2.505-4.018 3.543a122.206 122.206 0 0 0-4.716 4.887c-2.969 3.299-5.648 6.842-8.151 10.507-.466.794.698 1.466 1.164.794Z"/>
  <path fill="#161616" d="M457.083 242.45c5.473 3.116 10.247 7.147 14.381 12.035.582.672 1.456-.306.932-.978-4.192-4.948-9.083-9.041-14.614-12.218-.757-.427-1.398.734-.699 1.161Zm-4.425 13.684a58.745 58.745 0 0 0 8.035 8.736c.64.549 1.572-.428.931-.978-2.969-2.627-5.647-5.498-8.035-8.735-.524-.734-1.455.244-.931.977Z"/>
  <path fill="#161616" d="M453.997 255.584c.699-1.038 1.514-2.627 2.562-3.36 1.688-1.16 2.445-.061 3.726.856a81.063 81.063 0 0 1 6.696 5.314c.64.55 1.572-.427.931-.977a79.768 79.768 0 0 0-4.89-4.032c-1.398-1.039-3.203-2.932-4.833-3.36-2.329-.611-4.25 3.116-5.356 4.765-.466.794.698 1.527 1.164.794Z"/>
  <path fill="#6D6C6C" d="M454.987 130.659c5.589 6.231 17.583 21.442 21.484 44.472 3.61 21.564-1.863 38.302-5.007 48.076-11.703 35.92-37.845 55.041-47.336 61.272a537.513 537.513 0 0 0-3.319 13.5c-1.863 7.942-1.979 9.042-2.969 11.241-4.017 8.98-11.761 12.034-11.354 12.828.524.917 13.159-1.893 19.971-12.828 5.182-8.308 4.542-17.166 4.192-20.343 9.141-5.437 19.389-12.706 29.52-22.541 9.316-8.98 19.039-18.388 26.55-34.454 7.336-15.639 8.85-29.689 9.257-36.592.815-14.356-1.688-24.924-4.192-35.065-4.134-16.86-9.607-38.608-20.611-40.074-2.154-.244-7.918-.122-16.186 10.508Z" opacity=".25"/>
  <path fill="#6D6C6C" d="M490.853 220.458a189.824 189.824 0 0 1-22.941 32.499c-11.819 13.44-22.183 24.924-38.136 27.368-4.309.672-7.919.489-10.48.244 1.921.672 5.822 2.444 8.034 6.537 3.086 5.742.641 12.217-1.106 16.86-3.027 8.064-8.326 13.195-11.819 15.883 2.62-1.1 6.696-3.299 10.247-7.514 8.035-9.53 6.929-21.564 6.696-23.885 13.217-7.82 22.998-16.067 29.636-22.481 8.5-8.125 17.525-16.921 24.512-31.582 2.678-5.498 4.367-10.447 5.357-13.929Z" opacity=".28"/>
  <path fill="#fff" stroke="#161616" stroke-width="2" d="M355.948 53.748c-3.144 13.684 2.853 24.985 7.744 34.27 4.774 9.103 8.733 16.617 17.525 20.282.815.367 12.46 4.948 23.523-1.466 12.285-7.147 14.206-22.236 15.08-29.078.698-5.376 2.62-20.342-6.696-32.804-10.015-13.379-30.393-20.22-44.25-11.424-9.724 6.231-12.344 17.777-12.926 20.22Z"/>
  <path fill="#EC615B" d="M379.762 33.284c.931 1.344 2.678 3.42 5.356 5.009 4.542 2.749 8.967 2.505 10.713 2.321.35 2.505 1.805 10.874 8.734 16.86 4.367 3.788 13.042 8.43 17.758 5.01 5.415-3.91 3.494-17.105-1.106-25.23-5.881-10.507-17.234-12.706-23.872-14.11-4.075-.856-14.963-3.177-17.933 2.015-.64 1.039-1.514 3.42.35 8.125Zm-6.812-3.849c1.222.489 1.979.794 2.561 1.527 2.62 3.421-.698 13.012-7.161 17.227-3.435 2.2-6.929 2.383-9.025 2.322.582 2.321 1.63 7.575-.175 13.744a23.136 23.136 0 0 1-4.25 8.125c-1.048-1.466-2.329-3.665-3.319-6.597-2.387-7.209-.873-13.562 0-16.983 1.107-4.398 4.251-16.982 13.45-19.548 4.367-1.222 7.919.183 7.919.183Z"/>
  <path fill="#161616" d="M351.64 74.274c-.35-4.093-2.271-28.223 13.624-38.241 14.207-8.98 31.091.55 33.537 1.893 13.275 7.698 20.087 22.603 20.378 36.104.058 3.237.349 17.654-9.141 26.145-4.833 4.338-10.131 5.315-17.176 6.659-10.422 1.955-19.214 1.039-24.92 0 .35 3.543.699 7.147 1.048 10.691 12.227 2.687 22.475 2.687 29.461 2.199 9.899-.672 17.468-2.688 22.475-4.032 8.792-2.383 16.011-5.254 21.426-7.758 1.165-6.964 2.387-16.983 2.446-29.078.058-17.105.116-28.406-5.357-40.685-2.213-4.948-10.306-23.153-29.752-29.995-22.009-7.758-40.99 5.07-44.25 7.392-4.484 3.177-15.371 11.973-20.379 27.979-.757 2.382-4.483 15.027-.698 30.544 5.822 24.007 25.327 37.447 26.259 36.653-3.261-2.871-17.293-15.578-18.981-36.47Z"/>
  <path fill="#161616" d="M377.025 63.34c1.863 6.902 3.319 13.927 4.425 21.014.175 1.16 1.863.671 1.689-.49-1.107-7.085-2.562-14.11-4.425-21.014-.292-1.1-1.98-.61-1.689.49Z"/>
  <path fill="#161616" d="M381.916 84.964c3.377.734 6.754.184 9.782-1.649.989-.61.116-2.2-.874-1.588-2.62 1.588-5.473 2.077-8.442 1.466-1.106-.245-1.572 1.527-.466 1.771Zm-12.402-7.697c-2.038-2.321-2.853-5.437-2.271-8.552-.465.122-.989.244-1.455.428 1.106 1.221 1.805 2.626 2.271 4.215.174.55.349 1.16.524 1.771.116.367.174.794.291 1.16 0 .55.233.856.815.978-.582-.977-2.096-.06-1.514.917.349.672 1.048.977 1.747.61.931-.427.931-1.527.757-2.443-.583-3.054-1.631-6.17-3.668-8.491-.408-.489-1.34-.245-1.456.427-.699 3.788.233 7.453 2.736 10.324.757.855 1.98-.489 1.223-1.344Z"/>
  <path fill="#161616" d="M366.079 70.181c.524 2.566 1.339 5.07 2.446 7.392.465 1.038 1.979.122 1.513-.917-1.048-2.199-1.746-4.52-2.27-6.964-.233-1.16-1.922-.672-1.689.49Zm28.122-4.276c-1.455-2.077-1.747-4.582-.931-6.964-.408.183-.874.366-1.281.55 1.339.794 1.513 2.565 1.863 3.97.174.794.349 1.589.466 2.383.349 1.955-.583-1.16-.641-1.588-.058-1.161-1.805-1.161-1.747 0 .059 1.404.641 3.115 1.922 3.787.99.489 2.096.061 2.27-1.1.233-1.649-.582-3.97-1.048-5.559-.407-1.405-.989-2.688-2.27-3.482-.524-.305-1.107 0-1.281.55a9.295 9.295 0 0 0 1.106 8.37c.699.977 2.213.06 1.572-.917Z"/>
  <path fill="#161616" d="M392.105 59.918c.349 2.505.932 4.887 1.863 7.209.408 1.1 2.096.61 1.689-.49-.874-2.32-1.514-4.703-1.863-7.208-.117-1.16-1.805-.672-1.689.49Zm-31.324 5.376c.407-3.054 3.086-5.131 5.997-4.643 1.106.184 1.572-1.588.466-1.771-4.134-.672-7.686 2.077-8.21 6.414-.175 1.222 1.572 1.16 1.747 0Zm25.56-11.484c3.144-2.994 7.569-2.933 10.655.06.815.795 2.038-.488 1.223-1.282-3.843-3.727-9.258-3.788-13.101-.062-.815.795.408 2.077 1.223 1.283Zm-2.504 41.845c7.628.183 14.789-3.299 19.622-9.53.698-.916-.524-2.199-1.223-1.283-4.483 5.865-11.179 9.163-18.34 8.98-1.223-.06-1.223 1.772-.059 1.833Z"/>
  <path fill="#161616" d="M400.431 84.842c1.339.306 2.504 1.222 2.97 2.566.407 1.1 2.096.61 1.688-.489-.699-1.955-2.212-3.42-4.192-3.848-1.106-.245-1.572 1.527-.466 1.771Z"/>
  <path fill="#6D6C6C" d="M403.284 41.103c4.6 13.562 6.172 24.985 6.754 32.804.932 12.646-.64 17.044-1.98 19.67-4.716 9.225-14.439 12.402-17.991 13.379 2.679.061 12.46.061 20.262-7.33 9.374-8.98 8.734-22.053 8.501-27.001-.874-17.777-12.693-28.956-15.546-31.522Z" opacity=".29"/>
</svg>
