<svg width="92" height="84" viewBox="0 0 92 84" fill="none" xmlns="http://www.w3.org/2000/svg">
<path d="M74.75 5.25H21.5625C19.275 5.25 17.0812 6.07969 15.4637 7.55653C13.8462 9.03338 12.9375 11.0364 12.9375 13.125V72.1875C13.0121 73.9585 13.8384 75.6336 15.2415 76.8584C16.6446 78.0832 18.5145 78.7615 20.4556 78.75H47.4375C47.8187 78.75 48.1844 78.6117 48.454 78.3656C48.7235 78.1194 48.875 77.7856 48.875 77.4375C48.875 77.0894 48.7235 76.7556 48.454 76.5094C48.1844 76.2633 47.8187 76.125 47.4375 76.125H20.4556C19.2744 76.1437 18.1312 75.7441 17.2656 75.01C16.3999 74.276 15.8792 73.2644 15.8125 72.1875V71.8331C15.8328 71.5661 15.8859 71.3019 15.9706 71.0456C16.0203 70.9116 16.0779 70.7802 16.1431 70.6519C16.1431 70.5469 16.2437 70.4419 16.2869 70.35C16.4949 70.0135 16.7458 69.7007 17.0344 69.4181C17.4384 69.0453 17.9199 68.7499 18.4506 68.5493C18.9813 68.3487 19.5506 68.247 20.125 68.25H74.75C75.0207 68.2504 75.2906 68.224 75.555 68.1712H75.8138L76.1875 68.0794V69.5625C76.1875 69.9106 76.036 70.2444 75.7665 70.4906C75.4969 70.7367 75.1312 70.875 74.75 70.875H20.125C19.7438 70.875 19.3781 71.0133 19.1085 71.2594C18.839 71.5056 18.6875 71.8394 18.6875 72.1875C18.6875 72.5356 18.839 72.8694 19.1085 73.1156C19.3781 73.3617 19.7438 73.5 20.125 73.5H74.75C75.2404 73.4965 75.7265 73.4166 76.1875 73.2637V74.8125C76.1875 75.1606 76.036 75.4944 75.7665 75.7406C75.4969 75.9867 75.1312 76.125 74.75 76.125H60.375C59.9938 76.125 59.6281 76.2633 59.3585 76.5094C59.089 76.7556 58.9375 77.0894 58.9375 77.4375C58.9375 77.7856 59.089 78.1194 59.3585 78.3656C59.6281 78.6117 59.9938 78.75 60.375 78.75H74.75C75.8937 78.75 76.9906 78.3352 77.7994 77.5967C78.6081 76.8583 79.0625 75.8568 79.0625 74.8125V9.1875C79.0625 8.14321 78.6081 7.14169 77.7994 6.40327C76.9906 5.66484 75.8937 5.25 74.75 5.25ZM18.8313 65.7431L18.4287 65.835C18.1404 65.8957 17.857 65.9746 17.5806 66.0713C17.4369 66.0713 17.2931 66.1763 17.1494 66.2287C16.8928 66.3382 16.6432 66.4609 16.4019 66.5963L16.0138 66.8194L15.8125 66.9375V13.125C15.8125 11.7326 16.4183 10.3973 17.4966 9.41269C18.575 8.42812 20.0375 7.875 21.5625 7.875V65.625H20.125C19.6905 65.624 19.257 65.6636 18.8313 65.7431ZM24.4375 65.625V7.875H74.75C75.1312 7.875 75.4969 8.01328 75.7665 8.25942C76.036 8.50556 76.1875 8.8394 76.1875 9.1875V64.3125C76.1875 64.6606 76.036 64.9944 75.7665 65.2406C75.4969 65.4867 75.1312 65.625 74.75 65.625H24.4375Z" fill="white"/>
<path d="M66.125 18.375H34.5C34.1188 18.375 33.7531 18.5133 33.4835 18.7594C33.2139 19.0056 33.0625 19.3394 33.0625 19.6875V28.875C33.0625 29.2231 33.2139 29.5569 33.4835 29.8031C33.7531 30.0492 34.1188 30.1875 34.5 30.1875H66.125C66.5062 30.1875 66.8719 30.0492 67.1415 29.8031C67.411 29.5569 67.5625 29.2231 67.5625 28.875V19.6875C67.5625 19.3394 67.411 19.0056 67.1415 18.7594C66.8719 18.5133 66.5062 18.375 66.125 18.375ZM64.6875 27.5625H35.9375V21H64.6875V27.5625ZM63.25 49.875H37.375C36.9938 49.875 36.6281 50.0133 36.3585 50.2594C36.0889 50.5056 35.9375 50.8394 35.9375 51.1875C35.9375 51.5356 36.0889 51.8694 36.3585 52.1156C36.6281 52.3617 36.9938 52.5 37.375 52.5H63.25C63.6312 52.5 63.9969 52.3617 64.2665 52.1156C64.5361 51.8694 64.6875 51.5356 64.6875 51.1875C64.6875 50.8394 64.5361 50.5056 64.2665 50.2594C63.9969 50.0133 63.6312 49.875 63.25 49.875ZM63.25 56.4375H37.375C36.9938 56.4375 36.6281 56.5758 36.3585 56.8219C36.0889 57.0681 35.9375 57.4019 35.9375 57.75C35.9375 58.0981 36.0889 58.4319 36.3585 58.6781C36.6281 58.9242 36.9938 59.0625 37.375 59.0625H63.25C63.6312 59.0625 63.9969 58.9242 64.2665 58.6781C64.5361 58.4319 64.6875 58.0981 64.6875 57.75C64.6875 57.4019 64.5361 57.0681 64.2665 56.8219C63.9969 56.5758 63.6312 56.4375 63.25 56.4375ZM54.625 76.125H53.1875C52.8063 76.125 52.4406 76.2633 52.171 76.5094C51.9014 76.7556 51.75 77.0894 51.75 77.4375C51.75 77.7856 51.9014 78.1194 52.171 78.3656C52.4406 78.6117 52.8063 78.75 53.1875 78.75H54.625C55.0062 78.75 55.3719 78.6117 55.6415 78.3656C55.9111 78.1194 56.0625 77.7856 56.0625 77.4375C56.0625 77.0894 55.9111 76.7556 55.6415 76.5094C55.3719 76.2633 55.0062 76.125 54.625 76.125Z" fill="white"/>
</svg>
