<svg width="201" height="201" viewBox="0 0 201 201" fill="none" xmlns="http://www.w3.org/2000/svg">
<g filter="url(#filter0_d_4269_1396)">
<path d="M100.5 106.15C96.8276 106.116 93.2301 106.982 90.1919 108.633C87.1537 110.284 84.8205 112.64 83.5065 115.383C82.1925 118.127 81.9607 121.127 82.8423 123.979C83.7239 126.831 85.6766 129.399 88.4375 131.336V144.75C88.4375 147.309 89.7084 149.764 91.9705 151.574C94.2327 153.383 97.3008 154.4 100.5 154.4C103.699 154.4 106.767 153.383 109.029 151.574C111.292 149.764 112.562 147.309 112.562 144.75V131.336C115.323 129.399 117.276 126.831 118.158 123.979C119.039 121.127 118.808 118.127 117.493 115.383C116.179 112.64 113.846 110.284 110.808 108.633C107.77 106.982 104.172 106.116 100.5 106.15ZM160.812 67.55V48.25C160.812 35.4533 154.458 23.1807 143.147 14.1321C131.837 5.08347 116.496 0 100.5 0C84.5041 0 69.1634 5.08347 57.8526 14.1321C46.5418 23.1807 40.1875 35.4533 40.1875 48.25V67.55C30.59 67.55 21.3855 70.6001 14.5991 76.0293C7.8126 81.4584 4 88.822 4 96.5V164.05C4 171.728 7.8126 179.092 14.5991 184.521C21.3855 189.95 30.59 193 40.1875 193H160.812C170.41 193 179.614 189.95 186.401 184.521C193.187 179.092 197 171.728 197 164.05V96.5C197 88.822 193.187 81.4584 186.401 76.0293C179.614 70.6001 170.41 67.55 160.812 67.55ZM64.3125 48.25C64.3125 40.572 68.1251 33.2084 74.9116 27.7793C81.698 22.3501 90.9025 19.3 100.5 19.3C110.098 19.3 119.302 22.3501 126.088 27.7793C132.875 33.2084 136.688 40.572 136.688 48.25V67.55H64.3125V48.25ZM172.875 164.05C172.875 166.609 171.604 169.064 169.342 170.874C167.08 172.683 164.012 173.7 160.812 173.7H40.1875C36.9883 173.7 33.9202 172.683 31.658 170.874C29.3959 169.064 28.125 166.609 28.125 164.05V96.5C28.125 93.9407 29.3959 91.4861 31.658 89.6764C33.9202 87.8667 36.9883 86.85 40.1875 86.85H160.812C164.012 86.85 167.08 87.8667 169.342 89.6764C171.604 91.4861 172.875 93.9407 172.875 96.5V164.05Z" fill="#D9D9D9" fill-opacity="0.32" shape-rendering="crispEdges"/>
<path d="M88.9375 131.336V131.077L88.7247 130.927C86.0421 129.045 84.1646 126.564 83.32 123.831C82.4763 121.102 82.6967 118.232 83.9575 115.599C85.2199 112.963 87.4717 110.68 90.4306 109.072C93.3895 107.465 96.9024 106.616 100.495 106.65L100.505 106.65C104.098 106.616 107.61 107.465 110.569 109.072C113.528 110.68 115.78 112.963 117.043 115.599C118.303 118.232 118.524 121.102 117.68 123.831C116.835 126.564 114.958 129.045 112.275 130.927L112.062 131.077V131.336V144.75C112.062 147.136 110.878 149.454 108.717 151.183C106.553 152.914 103.598 153.9 100.5 153.9C97.4018 153.9 94.447 152.914 92.2829 151.183C90.1216 149.454 88.9375 147.136 88.9375 144.75V131.336ZM160.312 67.55V68.05H160.812C170.309 68.05 179.4 71.0689 186.089 76.4197C192.774 81.7681 196.5 88.9952 196.5 96.5V164.05C196.5 171.555 192.774 178.782 186.089 184.13C179.4 189.481 170.309 192.5 160.812 192.5H40.1875C30.6909 192.5 21.5999 189.481 14.9114 184.13C8.22586 178.782 4.5 171.555 4.5 164.05V96.5C4.5 88.9952 8.22586 81.7681 14.9114 76.4197C21.5999 71.0689 30.6909 68.05 40.1875 68.05H40.6875V67.55V48.25C40.6875 35.6265 46.9551 23.4904 58.165 14.5225C69.3778 5.55231 84.6051 0.5 100.5 0.5C116.395 0.5 131.622 5.55231 142.835 14.5225C154.045 23.4904 160.312 35.6265 160.312 48.25V67.55ZM136.688 68.05H137.188V67.55V48.25C137.188 40.3988 133.288 32.8987 126.401 27.3888C119.516 21.8812 110.198 18.8 100.5 18.8C90.8015 18.8 81.4837 21.8812 74.5992 27.3888C67.7118 32.8987 63.8125 40.3988 63.8125 48.25V67.55V68.05H64.3125H136.688ZM169.654 171.264C172.017 169.374 173.375 166.783 173.375 164.05V96.5C173.375 93.7675 172.017 91.1764 169.654 89.286C167.294 87.3979 164.113 86.35 160.812 86.35H40.1875C36.8874 86.35 33.7058 87.3979 31.3457 89.286C28.9826 91.1764 27.625 93.7675 27.625 96.5V164.05C27.625 166.783 28.9826 169.374 31.3457 171.264C33.7058 173.152 36.8874 174.2 40.1875 174.2H160.812C164.113 174.2 167.294 173.152 169.654 171.264Z" stroke="black" shape-rendering="crispEdges"/>
</g>
<defs>
<filter id="filter0_d_4269_1396" x="0" y="0" width="201" height="201" filterUnits="userSpaceOnUse" color-interpolation-filters="sRGB">
<feFlood flood-opacity="0" result="BackgroundImageFix"/>
<feColorMatrix in="SourceAlpha" type="matrix" values="0 0 0 0 0 0 0 0 0 0 0 0 0 0 0 0 0 0 127 0" result="hardAlpha"/>
<feOffset dy="4"/>
<feGaussianBlur stdDeviation="2"/>
<feComposite in2="hardAlpha" operator="out"/>
<feColorMatrix type="matrix" values="0 0 0 0 0 0 0 0 0 0 0 0 0 0 0 0 0 0 0.25 0"/>
<feBlend mode="normal" in2="BackgroundImageFix" result="effect1_dropShadow_4269_1396"/>
<feBlend mode="normal" in="SourceGraphic" in2="effect1_dropShadow_4269_1396" result="shape"/>
</filter>
</defs>
</svg>
