<svg width="84" height="84" viewBox="0 0 84 84" fill="none" xmlns="http://www.w3.org/2000/svg">
<path d="M44.625 52.5C46.7136 52.5 48.7166 53.3297 50.1935 54.8065C51.6703 56.2834 52.5 58.2864 52.5 60.375V63C52.5 73.3477 42.735 84 26.25 84C9.765 84 0 73.3477 0 63V60.375C0 58.2864 0.829685 56.2834 2.30653 54.8065C3.78338 53.3297 5.78642 52.5 7.875 52.5H44.625ZM26.25 18.375C30.0791 18.375 33.7513 19.8961 36.4589 22.6036C39.1664 25.3112 40.6875 28.9834 40.6875 32.8125C40.6875 36.6416 39.1664 40.3138 36.4589 43.0214C33.7513 45.7289 30.0791 47.25 26.25 47.25C22.4209 47.25 18.7487 45.7289 16.0411 43.0214C13.3336 40.3138 11.8125 36.6416 11.8125 32.8125C11.8125 28.9834 13.3336 25.3112 16.0411 22.6036C18.7487 19.8961 22.4209 18.375 26.25 18.375ZM73.5 0C76.1481 0.000486023 78.6983 1.00155 80.6395 2.80264C82.5808 4.60374 83.7699 7.07184 83.9685 9.7125L84 10.5V21C84.0008 23.649 83.0004 26.2005 81.1991 28.1429C79.3979 30.0853 76.9291 31.2751 74.2875 31.4737L73.5 31.5H65.6198L59.3302 39.9C56.5477 43.6065 50.9093 42.105 50.001 37.926L49.9118 37.3433L49.875 36.75V31.1588L49.4655 31.0537C47.5775 30.4837 45.8882 29.3934 44.5911 27.9078C43.294 26.4222 42.4415 24.6014 42.1312 22.6537L42.0262 21.7823L42 21V10.5C41.9992 7.85097 42.9996 5.29953 44.8009 3.35712C46.6021 1.41472 49.0709 0.224927 51.7125 0.0262506L52.5 0H73.5Z" fill="white"/>
</svg>
