<svg width="68" height="68" viewBox="0 0 68 68" fill="none" xmlns="http://www.w3.org/2000/svg">
<path d="M33.9774 41.5083C32.4897 41.5096 31.0352 41.069 29.7983 40.2423C28.5615 39.4156 27.5981 38.2401 27.0305 36.8649C26.4628 35.4898 26.3165 33.977 26.61 32.5186C26.9035 31.0602 27.6237 29.7218 28.6791 28.6733C28.8781 28.4761 29.1141 28.32 29.3735 28.214C29.6328 28.108 29.9106 28.0541 30.1908 28.0554C30.471 28.0568 30.7482 28.1133 31.0065 28.2217C31.2649 28.3301 31.4994 28.4884 31.6966 28.6875C31.8938 28.8865 32.0498 29.1225 32.1559 29.3819C32.2619 29.6412 32.3158 29.919 32.3144 30.1992C32.3131 30.4794 32.2566 30.7566 32.1482 31.0149C32.0397 31.2733 31.8815 31.5078 31.6824 31.705C31.3768 32.0038 31.134 32.3609 30.9686 32.755C30.8031 33.1492 30.7183 33.5725 30.7191 34C30.6814 34.6729 30.8552 35.3408 31.2161 35.91C31.5769 36.4792 32.1068 36.9213 32.7315 37.1743C33.3562 37.4273 34.0444 37.4786 34.6997 37.3209C35.355 37.1632 35.9445 36.8045 36.3857 36.295C36.789 35.8953 37.3338 35.671 37.9016 35.671C38.4694 35.671 39.0141 35.8953 39.4174 36.295C39.8104 36.7017 40.03 37.2452 40.03 37.8108C40.03 38.3764 39.8104 38.9199 39.4174 39.3266C38.7014 40.0339 37.8514 40.5911 36.9173 40.9657C35.9832 41.3403 34.9837 41.5248 33.9774 41.5083Z" fill="white"/>
<path d="M63.0189 34C63.0189 41.7023 59.9591 49.0892 54.5128 54.5355C49.0664 59.9819 41.6795 63.0416 33.9772 63.0416C26.2749 63.0416 18.888 59.9819 13.4417 54.5355C7.99528 49.0892 4.93555 41.7023 4.93555 34C4.93555 26.2977 7.99528 18.9108 13.4417 13.4644C18.888 8.01805 26.2749 4.95831 33.9772 4.95831C34.5408 4.95831 35.0813 5.1822 35.4798 5.58071C35.8783 5.97923 36.1022 6.51973 36.1022 7.08331V17.85C36.0949 18.4113 35.8686 18.9475 35.4717 19.3445C35.0748 19.7414 34.5385 19.9676 33.9772 19.975C31.2024 19.9559 28.4865 20.7756 26.1855 22.3266C23.8716 23.8602 22.0671 26.0484 21.0023 28.612C19.9375 31.1756 19.6607 33.9984 20.2072 36.72C21.096 39.9488 23.0999 42.7584 25.8633 44.6501C28.6267 46.5419 31.9709 47.3935 35.3025 47.0539C38.6342 46.7143 41.7378 45.2054 44.0626 42.7949C46.3875 40.3845 47.7832 37.2284 48.0022 33.8866C47.9988 33.6066 48.0514 33.3288 48.157 33.0694C48.2626 32.8101 48.419 32.5744 48.617 32.3764C48.815 32.1784 49.0506 32.022 49.31 31.9164C49.5693 31.8109 49.8472 31.7582 50.1272 31.7616H60.8939C61.1827 31.7612 61.4686 31.8197 61.7341 31.9335C61.9996 32.0473 62.2391 32.2141 62.438 32.4236C62.6369 32.6331 62.791 32.8809 62.8909 33.1519C62.9907 33.423 63.0343 33.7115 63.0189 34Z" fill="white"/>
<path d="M61.9991 17.3684C61.9251 17.9196 61.6995 18.4395 61.3474 18.87L55.1991 25.0184C54.327 25.8992 53.2445 26.5429 52.0541 26.8884C51.3571 27.1048 50.6304 27.21 49.9007 27.2C49.401 27.2419 48.8987 27.2419 48.3991 27.2L44.6307 26.4634L38.1707 32.9517C37.766 33.3404 37.23 33.5628 36.6691 33.575C36.1057 33.5745 35.5655 33.3503 35.1674 32.9517C34.9669 32.7563 34.8076 32.5228 34.6988 32.2649C34.59 32.007 34.5339 31.7299 34.5339 31.45C34.5339 31.1701 34.59 30.893 34.6988 30.6351C34.8076 30.3772 34.9669 30.1437 35.1674 29.9484L41.6557 23.4317L40.8907 19.6917C40.6621 18.4862 40.7203 17.2438 41.0607 16.065C41.4062 14.8746 42.0499 13.7921 42.9307 12.92L49.0224 6.82836C49.441 6.44759 49.964 6.20089 50.5241 6.12003C51.0482 6.04217 51.5835 6.13139 52.0541 6.37503C52.5216 6.61283 52.9139 6.97574 53.1874 7.42336C53.4641 7.92424 53.5826 8.49715 53.5274 9.06669L52.6207 15.47L58.9957 14.5917C59.5293 14.5393 60.0664 14.6492 60.5365 14.907C61.0066 15.1649 61.388 15.5586 61.6307 16.0367C61.8615 16.4434 61.988 16.9009 61.9991 17.3684Z" fill="white"/>
</svg>
