<svg width="158" height="160" viewBox="0 0 158 160" fill="none" xmlns="http://www.w3.org/2000/svg">
<path fill-rule="evenodd" clip-rule="evenodd" d="M37.384 47.3199C35.3468 45.6232 32.7193 44.805 30.079 45.045C27.4387 45.285 25.0018 46.5637 23.304 48.5999L2.47401 73.5999C0.85136 75.6449 0.0927748 78.2435 0.360312 80.8403C0.627848 83.4372 1.90028 85.8264 3.9058 87.4977C5.91132 89.169 8.49091 89.9897 11.0934 89.7846C13.696 89.5794 16.1151 88.3647 17.834 86.3999L38.664 61.3999C40.3607 59.3627 41.1789 56.7352 40.9389 54.0949C40.6989 51.4546 39.4202 49.0177 37.384 47.3199Z" fill="#A014F6"/>
<path fill-rule="evenodd" clip-rule="evenodd" d="M37.384 112.68C39.4216 110.983 40.7022 108.547 40.9441 105.907C41.186 103.267 40.3695 100.638 38.674 98.5998L17.834 73.5998C17.0052 72.5552 15.9758 71.687 14.8065 71.0461C13.6372 70.4053 12.3515 70.0047 11.0251 69.8681C9.69873 69.7314 8.35839 69.8614 7.08298 70.2504C5.80757 70.6394 4.62284 71.2796 3.59848 72.1332C2.57412 72.9869 1.73082 74.0367 1.11821 75.2211C0.505587 76.4054 0.136022 77.7004 0.0312452 79.0296C-0.0735316 80.3589 0.0886011 81.6958 0.508101 82.9615C0.927602 84.2272 1.596 85.3962 2.47397 86.3998L23.304 111.4C25.0018 113.436 27.4387 114.715 30.079 114.955C32.7193 115.195 35.3468 114.376 37.384 112.68Z" fill="#A014F6"/>
<path fill-rule="evenodd" clip-rule="evenodd" d="M12.6538 80C12.6538 82.6522 13.7074 85.1957 15.5827 87.0711C17.4581 88.9464 20.0016 90 22.6538 90H87.6538C90.306 90 92.8495 88.9464 94.7249 87.0711C96.6002 85.1957 97.6538 82.6522 97.6538 80C97.6538 77.3478 96.6002 74.8043 94.7249 72.9289C92.8495 71.0536 90.306 70 87.6538 70H22.6538C20.0016 70 17.4581 71.0536 15.5827 72.9289C13.7074 74.8043 12.6538 77.3478 12.6538 80ZM157.654 10C157.654 7.34784 156.6 4.8043 154.725 2.92893C152.85 1.05357 150.306 0 147.654 0H57.6538C55.0016 0 52.4581 1.05357 50.5827 2.92893C48.7074 4.8043 47.6538 7.34784 47.6538 10C47.6538 12.6522 48.7074 15.1957 50.5827 17.0711C52.4581 18.9464 55.0016 20 57.6538 20H147.654C150.306 20 152.85 18.9464 154.725 17.0711C156.6 15.1957 157.654 12.6522 157.654 10ZM157.654 150C157.654 147.348 156.6 144.804 154.725 142.929C152.85 141.054 150.306 140 147.654 140H57.6538C55.0016 140 52.4581 141.054 50.5827 142.929C48.7074 144.804 47.6538 147.348 47.6538 150C47.6538 152.652 48.7074 155.196 50.5827 157.071C52.4581 158.946 55.0016 160 57.6538 160H147.654C150.306 160 152.85 158.946 154.725 157.071C156.6 155.196 157.654 152.652 157.654 150Z" fill="#A014F6"/>
<path fill-rule="evenodd" clip-rule="evenodd" d="M57.6538 0C55.0016 0 52.4581 1.05357 50.5827 2.92893C48.7074 4.8043 47.6538 7.34784 47.6538 10V50C47.6538 52.6522 48.7074 55.1957 50.5827 57.0711C52.4581 58.9464 55.0016 60 57.6538 60C60.306 60 62.8495 58.9464 64.7249 57.0711C66.6002 55.1957 67.6538 52.6522 67.6538 50V10C67.6538 7.34784 66.6002 4.8043 64.7249 2.92893C62.8495 1.05357 60.306 0 57.6538 0ZM57.6538 100C55.0016 100 52.4581 101.054 50.5827 102.929C48.7074 104.804 47.6538 107.348 47.6538 110V150C47.6538 152.652 48.7074 155.196 50.5827 157.071C52.4581 158.946 55.0016 160 57.6538 160C60.306 160 62.8495 158.946 64.7249 157.071C66.6002 155.196 67.6538 152.652 67.6538 150V110C67.6538 107.348 66.6002 104.804 64.7249 102.929C62.8495 101.054 60.306 100 57.6538 100ZM147.654 0C145.002 0 142.458 1.05357 140.583 2.92893C138.707 4.8043 137.654 7.34784 137.654 10V150C137.654 152.652 138.707 155.196 140.583 157.071C142.458 158.946 145.002 160 147.654 160C150.306 160 152.85 158.946 154.725 157.071C156.6 155.196 157.654 152.652 157.654 150V10C157.654 7.34784 156.6 4.8043 154.725 2.92893C152.85 1.05357 150.306 0 147.654 0Z" fill="#A014F6"/>
</svg>
