<svg width="26" height="34" viewBox="0 0 26 34" fill="none" xmlns="http://www.w3.org/2000/svg">
<path d="M1.05959 15.1122L19.6904 0.751821C19.9964 0.513594 20.3605 0.324509 20.7616 0.195472C21.1627 0.0664353 21.593 0 22.0275 0C22.462 0 22.8923 0.0664353 23.2934 0.195472C23.6945 0.324509 24.0586 0.513594 24.3646 0.751821C24.9777 1.22803 25.3218 1.87222 25.3218 2.5437C25.3218 3.21517 24.9777 3.85936 24.3646 4.33557L8.07084 17.0439L24.3646 29.6252C24.9777 30.1014 25.3218 30.7456 25.3218 31.417C25.3218 32.0885 24.9777 32.7327 24.3646 33.2089C24.0597 33.4491 23.6962 33.6401 23.295 33.771C22.8938 33.9019 22.463 33.97 22.0275 33.9714C21.592 33.97 21.1612 33.9019 20.76 33.771C20.3588 33.6401 19.9953 33.4491 19.6904 33.2089L1.05959 18.8485C0.725467 18.6105 0.458813 18.3216 0.276431 18.0001C0.0940487 17.6786 -0.00010849 17.3314 -0.00010849 16.9804C-0.00010849 16.6294 0.0940487 16.2821 0.276431 15.9606C0.458813 15.6391 0.725467 15.3502 1.05959 15.1122Z" fill="white"/>
</svg>
