<svg width="841" height="537" viewBox="0 0 841 537" fill="none" xmlns="http://www.w3.org/2000/svg">
<path d="M839.468 506.78C814.43 506.78 789.392 506.78 764.355 506.78C763.014 506.78 763.014 505.232 764.355 505.232C789.392 505.232 814.43 505.232 839.468 505.232C840.808 505.232 840.808 506.78 839.468 506.78V506.78Z" fill="#161616"/>
<path d="M759.841 521.741C706.732 521.741 653.695 521.741 600.586 521.741C599.246 521.741 599.246 520.193 600.586 520.193C653.695 520.193 706.732 520.193 759.841 520.193C761.181 520.193 761.181 521.741 759.841 521.741V521.741Z" fill="#161616"/>
<path d="M557.352 507.605C505.513 507.605 453.745 507.605 401.906 507.605C350.349 507.605 298.722 507.605 247.165 507.605C217.825 507.605 188.556 507.605 159.216 507.605C157.876 507.605 157.876 506.057 159.216 506.057C211.055 506.057 262.823 506.057 314.662 506.057C366.218 506.057 417.846 506.057 469.402 506.057C498.742 506.057 528.012 506.057 557.352 506.057C558.692 506.057 558.692 507.605 557.352 507.605V507.605Z" fill="#161616"/>
<path d="M327.569 496.771C267.337 496.771 207.105 496.771 146.873 496.771C129.735 496.771 112.667 496.771 95.5284 496.771C94.1884 496.771 94.1884 495.223 95.5284 495.223C155.76 495.223 215.992 495.223 276.224 495.223C293.362 495.223 310.43 495.223 327.569 495.223C328.909 495.223 328.909 496.771 327.569 496.771V496.771Z" fill="#161616"/>
<path d="M208.092 524.217C154.773 524.217 101.382 524.217 48.0622 524.217C32.7574 524.217 17.5232 524.217 2.21837 524.217C0.878323 524.217 0.878323 522.67 2.21837 522.67C55.5383 522.67 108.929 522.67 162.249 522.67C177.553 522.67 192.788 522.67 208.092 522.67C209.503 522.67 209.503 524.217 208.092 524.217V524.217Z" fill="#161616"/>
<path d="M196.032 27.9108C181.715 33.0183 177.201 45.0906 175.579 55.77C173.392 70.1123 173.886 84.919 174.027 99.3129C174.309 130.784 176.848 162.254 179.176 193.673C183.76 256.46 188.415 319.246 192.999 382.032C195.609 417.372 198.219 452.712 200.758 488.052C200.828 489.032 198.712 489.032 198.642 488.052C193.916 423.873 189.191 359.693 184.536 295.566C182.208 263.631 179.881 231.747 177.483 199.812C175.156 168.032 172.475 136.252 171.911 104.42C171.77 95.5468 171.77 86.6731 172.052 77.7478C172.264 70.1639 172.334 62.5285 173.533 54.9961C175.367 44.0072 180.234 31.7285 194.904 26.5178C196.173 26.1567 197.231 27.4981 196.032 27.9108V27.9108Z" fill="#E8E8E8"/>
<path d="M233.06 17.6958C216.979 19.6563 201.886 24.1963 188.556 31.0063C187.427 31.5738 186.37 30.2325 187.498 29.6649C200.969 22.8033 216.344 18.2117 232.495 16.1997C233.836 15.9933 234.4 17.4894 233.06 17.6958V17.6958Z" fill="#E8E8E8"/>
<path d="M295.478 2.63128C273.543 4.2822 249.916 6.39744 233.06 17.9023C232.072 18.5729 230.591 17.4895 231.579 16.8188C248.858 5.00448 272.909 2.78606 295.478 1.08355C296.888 0.980367 296.818 2.5281 295.478 2.63128V2.63128Z" fill="#E8E8E8"/>
<path d="M233.553 17.9537C236.586 34.4628 249.07 49.6822 267.619 59.3298C268.747 59.8973 267.689 61.2386 266.561 60.6711C247.307 50.6109 234.541 35.0819 231.438 17.9537C231.226 16.9734 233.342 16.9734 233.553 17.9537V17.9537Z" fill="#E8E8E8"/>
<path d="M296.818 1.75418C278.339 18.1602 268.395 39.1578 268.959 60.4133C268.959 61.3935 266.843 61.3935 266.843 60.4133C266.349 38.745 276.505 17.3863 295.337 0.67077C296.183 -0.103097 297.664 0.980317 296.818 1.75418V1.75418Z" fill="#E8E8E8"/>
<path d="M285.745 19.7594C294.208 19.3467 302.037 27.1369 297.946 32.9151C294.914 37.1972 283.417 39.4672 279.397 34.824C278.692 33.9985 280.526 33.2247 281.231 34.0501C284.405 37.7647 294.279 35.2367 296.183 31.8833C299.004 27.0337 292.516 20.946 285.674 21.3071C284.405 21.3587 284.405 19.811 285.745 19.7594V19.7594Z" fill="#E8E8E8"/>
<path d="M297.382 1.44465C296.606 8.66741 295.055 15.8386 292.657 22.855C292.304 23.8352 290.259 23.4225 290.611 22.4422C292.939 15.529 294.49 8.51263 295.266 1.44465C295.407 0.464415 297.523 0.464415 297.382 1.44465V1.44465Z" fill="#E8E8E8"/>
<path d="M284.193 37.6101C279.538 45.3488 274.883 53.0875 270.299 60.8261C269.735 61.7548 267.901 60.9293 268.465 60.0523C273.12 52.3136 277.775 44.5749 282.36 36.8362C282.853 35.9592 284.687 36.7331 284.193 37.6101V37.6101Z" fill="#E8E8E8"/>
<path d="M283.629 36.9393C280.878 42.7175 278.057 48.4957 273.755 53.8096C273.05 54.6866 271.287 53.9127 271.921 53.0357C275.73 47.825 278.481 42.3563 280.244 36.6297C280.808 36.8877 281.443 37.1456 282.007 37.4036C281.936 37.4552 281.936 37.4552 281.866 37.5068C281.936 37.1972 282.007 36.8877 282.007 36.5781C282.077 36.6297 282.077 36.6813 282.148 36.7329C281.584 36.6813 281.02 36.6297 280.455 36.5781C280.526 36.4749 274.249 32.296 273.826 32.0381C274.39 31.9349 275.025 31.8317 275.589 31.677C274.108 36.3717 273.12 41.1181 272.486 45.9161C271.78 45.8645 271.075 45.7613 270.44 45.7097C271.639 42.3563 273.191 39.0545 275.025 35.8558C275.518 34.9788 277.352 35.2883 277.07 36.2686C275.871 40.4474 274.742 44.6263 273.543 48.8568C272.838 48.702 272.203 48.5988 271.498 48.4441C273.05 44.9359 274.742 41.5309 276.647 38.1258C277.14 37.1972 279.045 37.5583 278.692 38.5386C277.282 42.4079 275.871 46.3288 274.46 50.1982C273.826 49.9918 273.191 49.7854 272.556 49.5791C274.531 46.2257 276.435 42.8722 278.41 39.4672C278.904 38.6933 280.737 39.2609 280.314 40.0863C277.493 45.6582 274.672 51.23 271.992 56.8534C271.569 57.7821 269.594 57.4209 269.947 56.4407C271.004 53.7064 271.78 50.9204 272.133 48.0829C272.838 48.1345 273.543 48.2377 274.178 48.2893C272.909 51.4879 271.639 54.6866 270.37 57.8852C270.017 58.8655 268.042 58.4528 268.324 57.4725C269.453 53.8611 270.229 50.1982 270.722 46.4836C271.428 46.5352 272.133 46.6384 272.768 46.69C271.851 50.4561 271.004 54.2223 269.735 57.9368C269.453 58.7623 267.549 58.6075 267.69 57.7305C268.254 53.0873 269.312 48.4957 270.863 43.9556C271.216 42.9754 273.191 43.3881 272.909 44.3684C272.415 45.9677 272.415 47.5154 272.697 49.1663C272.062 49.0116 271.357 48.9084 270.722 48.7536C272.486 46.5352 273.614 44.2652 274.037 41.7372C274.178 40.9634 275.377 40.6538 276.012 41.3245C276.506 41.8404 276.929 42.3563 277.423 42.8722C276.788 42.8722 276.224 42.8722 275.589 42.8722C276.506 41.3245 276.858 39.8799 276.788 38.1774C277.493 38.1774 278.198 38.1774 278.904 38.1774C279.045 38.5386 279.186 38.8997 279.327 39.2609C278.763 39.364 278.128 39.4672 277.564 39.622C277.916 38.2806 277.916 37.2488 277.775 35.959C278.481 36.0106 279.186 36.1138 279.821 36.1654C279.962 36.7329 280.032 37.3004 280.173 37.8679C279.538 37.8679 278.974 37.8679 278.339 37.8679C278.057 37.1456 277.705 36.4233 277.423 35.7011C277.916 35.5463 278.481 35.3915 278.974 35.2367C279.327 36.0622 279.68 36.8877 280.032 37.7131C279.468 37.9711 278.833 38.229 278.269 38.487C277.775 36.8361 276.788 35.6495 275.095 34.4629C275.659 34.3597 276.294 34.2565 276.858 34.1017C276.576 35.4947 276.788 36.6297 277.423 37.9711C276.717 38.0227 276.012 38.1258 275.377 38.1774C275.377 37.0424 275.166 36.0622 274.601 34.9788C275.307 34.9272 276.012 34.824 276.647 34.7724C276.647 35.7011 276.576 36.6297 276.576 37.5583C276.576 38.3838 274.672 38.6418 274.531 37.7647C274.319 36.8361 274.108 35.9074 273.896 34.9788C274.601 34.9788 275.236 34.9788 275.941 34.9788C275.941 35.4947 276.012 36.0106 276.012 36.5781C276.576 37.5068 274.742 38.2806 274.178 37.352C273.543 36.3202 273.402 35.7011 273.896 34.5661C274.178 33.8954 275.73 33.7922 275.941 34.5661C276.153 35.4947 276.365 36.4233 276.576 37.352C275.871 37.4036 275.166 37.5068 274.531 37.5583C274.531 36.6297 274.601 35.7011 274.601 34.7724C274.601 33.8954 276.294 33.7406 276.647 34.5661C277.282 35.8042 277.493 36.8877 277.493 38.1774C277.493 39.0545 275.8 39.2093 275.448 38.3838C274.672 36.7845 274.531 35.3915 274.884 33.689C275.025 33.0699 276.153 33.0183 276.647 33.3279C278.551 34.6177 279.75 36.1654 280.385 38.0227C280.596 38.7449 279.397 39.364 278.622 38.7965C277.14 37.6099 276.647 36.4233 277.07 34.824C277.211 34.3597 278.128 34.1017 278.622 34.3597C280.737 35.3915 281.302 36.9393 280.314 38.6418C279.962 39.2093 278.904 39.0545 278.481 38.6418C277.564 37.6615 277.423 36.8361 277.916 35.7527C278.339 34.8756 279.891 35.082 279.962 35.959C280.173 37.352 280.032 38.6418 279.68 40.0347C279.538 40.6022 278.41 40.757 277.916 40.3959C277.07 39.7252 276.717 39.2093 276.858 38.229C276.999 37.2488 278.974 37.1972 278.974 38.229C279.045 40.1895 278.551 41.892 277.493 43.6977C277.14 44.2652 276.083 44.1104 275.659 43.6977C275.166 43.1818 274.742 42.6659 274.249 42.15C274.884 41.9952 275.589 41.892 276.224 41.7372C275.73 44.5747 274.601 47.1027 272.627 49.5275C272.062 50.2498 270.793 49.837 270.652 49.1148C270.299 47.3091 270.44 45.7097 270.934 43.9041C271.639 44.0588 272.274 44.162 272.979 44.3168C271.428 48.702 270.44 53.1905 269.876 57.6789C269.171 57.6273 268.465 57.5241 267.831 57.4725C269.03 53.758 269.947 49.9918 270.863 46.2257C271.075 45.3486 273.05 45.555 272.909 46.432C272.415 50.3014 271.639 54.0675 270.44 57.8337C269.735 57.6789 269.1 57.5757 268.395 57.4209C269.664 54.2223 270.934 51.0236 272.203 47.825C272.556 46.9995 274.39 47.1543 274.249 48.0313C273.826 51.0236 273.12 53.9127 271.992 56.8018C271.287 56.6471 270.652 56.5439 269.947 56.3891C272.697 50.7657 275.448 45.1938 278.269 39.622C278.904 39.8284 279.538 40.0347 280.173 40.2411C278.198 43.5945 276.294 46.9479 274.319 50.3529C273.826 51.1784 272.062 50.5593 272.415 49.7339C273.826 45.8645 275.236 41.9436 276.647 38.0743C277.352 38.229 277.987 38.3322 278.692 38.487C276.858 41.892 275.166 45.3486 273.543 48.8052C273.12 49.7339 271.216 49.3727 271.498 48.3925C272.697 44.2136 273.826 40.0347 275.025 35.8042C275.73 35.959 276.365 36.0622 277.07 36.217C275.236 39.4156 273.685 42.7175 272.486 46.0709C272.203 46.8963 270.299 46.7416 270.44 45.8645C271.075 40.9118 272.133 36.0622 273.614 31.2126C273.826 30.6451 274.813 30.4904 275.377 30.8515C277.352 32.1929 280.808 33.7922 282.148 35.5463C282.783 36.4233 282.783 36.8877 282.007 37.5583C281.513 37.9711 280.737 37.7647 280.314 37.4036C280.244 37.352 280.244 37.3004 280.173 37.2488C279.891 36.9908 280.032 36.5265 280.314 36.3202C280.385 36.2686 280.385 36.2686 280.455 36.217C281.231 35.6495 282.43 36.217 282.219 36.9908C280.455 42.8722 277.634 48.4957 273.685 53.758C273.05 53.5 272.486 53.242 271.851 52.9841C276.012 47.7734 278.833 42.15 281.513 36.4749C282.077 35.5979 284.123 36.0106 283.629 36.9393V36.9393Z" fill="#E8E8E8"/>
<path d="M296.254 3.66302C294.208 9.18327 292.727 14.7551 291.74 20.3785C291.669 20.946 290.893 21.3588 290.118 21.0492C287.79 20.1206 285.463 19.4499 282.853 18.9856C282.218 18.8824 281.866 18.2633 282.218 17.8506C285.463 14.2908 288.495 10.6278 291.317 6.91326C291.951 6.03621 293.715 6.81008 293.15 7.68713C291.246 10.731 289.765 13.8781 288.566 17.0767C287.931 16.8703 287.297 16.664 286.662 16.4576C288.284 14.1876 289.412 11.866 290.118 9.33804C290.752 9.54441 291.387 9.75077 292.022 9.95714C289.412 12.7431 288.002 15.7869 287.79 19.1404C287.155 18.934 286.591 18.7792 285.956 18.5729C287.579 17.4894 288.495 16.3028 288.989 14.7035C289.483 15.0131 290.047 15.271 290.541 15.5806C289.06 16.406 288.566 17.3347 288.919 18.4181C288.284 18.2633 287.579 18.1601 286.944 18.0054C288.707 16.3028 290.118 14.4972 291.387 12.5883C291.881 12.9494 292.375 13.3106 292.868 13.6717C290.893 14.6003 288.284 23.8351 283.276 19.6563C281.443 18.1085 282.501 16.1481 283.7 14.5487C285.674 11.866 288.143 9.38963 290.682 7.01644C291.458 6.29417 292.939 7.22281 292.375 7.94508C289.624 11.4017 287.579 15.0131 286.239 18.8824C285.604 18.676 284.969 18.4697 284.334 18.2633C284.616 17.799 284.899 17.3863 285.181 16.9219C285.674 17.2831 286.168 17.6442 286.662 18.0054C286.662 17.9538 286.662 17.9538 286.662 17.9022C287.085 18.1601 287.579 18.4181 288.002 18.6244C287.085 18.8824 286.098 19.1404 285.181 19.3983C283.911 19.7595 283.347 18.2633 284.616 17.9022C285.533 17.6442 286.521 17.3863 287.438 17.1283C288.072 16.9219 288.778 17.4379 288.778 17.8506C288.848 21.9263 280.949 18.676 285.604 16.6124C286.591 16.1997 287.508 17.0251 287.085 17.6958C286.803 18.1601 286.521 18.5729 286.239 19.0372C285.745 19.8626 284.052 19.2435 284.334 18.4181C285.745 14.394 287.79 10.6794 290.682 7.11962C291.246 7.42917 291.81 7.73872 292.375 8.04826C290.823 9.54441 289.342 11.0406 287.931 12.5883C287.367 13.2074 286.803 13.8265 286.309 14.4972C285.886 14.9615 285.533 15.4774 285.251 15.9933C284.123 17.0767 284.969 17.6958 287.861 17.799C288.848 17.2315 288.989 15.3226 289.412 14.4972C289.977 13.4653 290.682 12.7946 291.951 12.2271C292.939 11.8144 293.785 12.6399 293.433 13.3106C292.163 15.271 290.752 17.0251 288.989 18.7276C288.354 19.3467 287.155 19.1404 287.014 18.3149C286.732 16.5092 287.649 15.1678 289.694 14.136C290.47 13.7233 291.458 14.394 291.246 15.0131C290.682 16.8188 289.483 18.3149 287.649 19.5531C287.014 19.9658 285.815 19.7079 285.815 18.9856C286.027 15.3226 287.579 12.0208 290.329 9.0285C291.035 8.30622 292.516 8.77054 292.234 9.64759C291.458 12.2787 290.259 14.7551 288.566 17.1283C288.002 17.9022 286.309 17.3863 286.662 16.5092C287.861 13.1558 289.483 9.90555 291.458 6.75849C292.092 7.01644 292.657 7.2744 293.291 7.53235C290.47 11.2985 287.438 14.9099 284.193 18.4697C283.982 18.1085 283.77 17.6958 283.558 17.3347C286.309 17.799 288.848 18.5213 291.317 19.5531C290.752 19.7595 290.259 20.0174 289.694 20.2238C290.682 14.4456 292.163 8.71895 294.279 3.09552C294.561 2.27006 296.606 2.68279 296.254 3.66302V3.66302Z" fill="#E8E8E8"/>
<path d="M296.183 29.9745C297.805 27.0338 293.926 24.2995 290.823 22.9581C287.79 21.6167 284.405 21.1524 280.878 21.3072C279.891 21.3588 279.609 20.4817 280.103 19.9658C280.737 19.3983 281.302 18.8308 281.936 18.2633C282.5 17.7474 283.841 18.1601 283.77 18.8308C283.982 17.799 285.956 18.4181 286.873 18.4181C290.259 18.3665 288.919 17.9022 289.06 16.5092C289.342 14.8067 290.682 13.0526 291.246 11.4017C292.092 8.97691 292.516 6.55212 292.798 4.07575C292.868 3.09552 294.984 3.09552 294.914 4.07575C294.631 7.01644 294.067 9.90555 293.009 12.7431C292.516 13.9812 291.317 15.529 291.528 16.8188C291.599 17.3863 292.163 17.799 292.163 18.3665C292.092 19.5531 290.47 20.2754 288.989 20.2754C287.367 20.2754 285.745 20.0174 284.052 20.069C283.135 20.1206 282.994 20.2754 282.148 19.8626C281.866 19.7079 281.584 19.4499 281.654 19.192C281.654 19.0888 281.725 18.934 281.725 18.8308C282.359 19.0372 282.924 19.192 283.558 19.3983C282.924 19.9658 282.359 20.5333 281.725 21.1008C281.443 20.6365 281.231 20.2238 280.949 19.7595C287.861 19.4499 302.037 23.6288 298.299 30.3872C297.735 31.3159 295.689 30.9031 296.183 29.9745V29.9745Z" fill="#E8E8E8"/>
<path d="M292.163 21.3072C295.266 23.1644 297.664 25.7956 298.158 28.7879C298.581 31.419 296.395 33.7406 293.715 35.3915C286.521 39.88 278.833 34.8756 274.319 30.6452C273.473 29.8713 274.954 28.7879 275.8 29.5617C279.468 33.0184 285.886 38.0743 292.163 34.3081C294.914 32.6572 296.606 30.3872 295.69 27.7561C294.914 25.5892 293.009 23.7835 290.611 22.3906C289.554 21.7715 291.105 20.6881 292.163 21.3072V21.3072Z" fill="#E8E8E8"/>
<path d="M271.075 40.3961C271.075 40.3445 271.075 40.2929 271.145 40.2413C271.286 40.5508 271.498 40.8088 271.639 41.1183C271.568 41.0667 271.498 41.0667 271.427 41.0152C271.921 40.912 272.415 40.8088 272.909 40.7572C271.921 41.8922 271.921 43.9558 271.639 45.2456C271.286 46.9481 270.934 48.7022 270.652 50.4047C270.228 53.3454 270.017 56.2861 269.876 59.2784C269.876 60.2586 267.76 60.2586 267.76 59.2784C267.901 55.667 268.183 52.0557 268.818 48.4443C269.029 47.0513 269.312 45.7099 269.664 44.317C269.946 42.924 270.017 41.1183 271.075 39.9317C271.357 39.5706 271.992 39.4674 272.556 39.6738C272.626 39.7254 272.697 39.7254 272.767 39.777C273.191 39.9317 273.402 40.3445 273.261 40.654C273.261 40.7056 273.261 40.7572 273.191 40.8088C272.767 41.789 270.722 41.3763 271.075 40.3961V40.3961Z" fill="#E8E8E8"/>
<path d="M295.548 3.97256C293.08 6.24257 291.246 8.77054 290.047 11.5565C289.624 12.4851 287.579 12.0724 288.002 11.1437C289.342 8.09985 291.317 5.36553 294.067 2.88915C294.843 2.06369 296.395 3.1987 295.548 3.97256V3.97256Z" fill="#E8E8E8"/>
<path d="M352.465 11.9177C342.803 13.9298 333.07 15.6839 323.196 17.1284C321.856 17.3348 321.292 15.8386 322.632 15.6323C332.506 14.1877 342.239 12.4336 351.901 10.4216C353.171 10.112 353.735 11.6082 352.465 11.9177V11.9177Z" fill="#E8E8E8"/>
<path d="M377.15 36.0108C358.672 34.9274 340.405 32.3994 322.561 28.4785C321.292 28.1689 321.785 26.6728 323.125 26.9823C340.758 30.8517 358.813 33.3796 377.15 34.4115C378.491 34.5147 378.491 36.0624 377.15 36.0108V36.0108Z" fill="#E8E8E8"/>
<path d="M310.007 36.7845C314.239 38.6934 318.188 40.8602 321.926 43.2334C322.984 43.9041 321.433 44.9875 320.445 44.3168C316.848 42.0468 312.969 39.9831 308.949 38.1259C307.75 37.61 308.808 36.2686 310.007 36.7845V36.7845Z" fill="#E8E8E8"/>
<path d="M308.667 53.3454C323.76 62.8898 338.924 72.4341 354.017 81.9785C355.075 82.6492 353.523 83.7326 352.536 83.0619C337.443 73.5175 322.279 63.9732 307.186 54.4288C306.128 53.8097 307.609 52.6747 308.667 53.3454V53.3454Z" fill="#E8E8E8"/>
<path d="M302.954 65.108C307.538 71.5053 312.193 77.9542 316.778 84.3515C317.412 85.2285 315.579 86.0024 314.944 85.1253C310.359 78.728 305.705 72.2791 301.12 65.8818C300.485 65.0048 302.319 64.2309 302.954 65.108V65.108Z" fill="#E8E8E8"/>
<path d="M290.541 68.7194C292.868 78.7797 294.279 88.9431 294.843 99.1582C294.914 100.138 292.798 100.138 292.727 99.1582C292.163 89.0979 290.752 79.0377 288.495 69.1322C288.284 68.1519 290.329 67.7392 290.541 68.7194V68.7194Z" fill="#E8E8E8"/>
<path d="M227.347 19.2435C209.291 17.4894 192.999 26.1051 184.113 37.0424C173.604 49.9402 173.251 65.8818 173.745 80.4821C174.803 113.552 176.707 146.57 178.541 179.589C182.208 246.09 186.793 312.591 192.153 379.092C195.186 416.444 198.5 453.744 202.097 491.096C202.309 493.108 198.077 493.056 197.866 491.096C191.306 422.944 185.664 354.792 180.939 286.589C176.213 218.54 172.052 150.44 169.513 82.3394C168.949 66.3977 169.09 48.9084 180.939 34.8756C190.601 23.4223 208.163 14.3423 227.276 16.1996C230.027 16.4059 230.027 19.5014 227.347 19.2435V19.2435Z" fill="#E8E8E8"/>
<path d="M231.155 18.573C226.077 18.6761 220.999 18.7277 216.062 19.5532C210.914 20.4302 206.964 22.5455 202.38 24.248C201.181 24.7123 200.123 23.3709 201.322 22.9066C206.118 21.1525 210.208 18.9857 215.498 18.057C220.647 17.18 225.936 17.0768 231.155 16.9736C232.495 16.9736 232.495 18.5214 231.155 18.573V18.573Z" fill="#E8E8E8"/>
<path d="M231.155 19.6047C216.062 20.6881 201.745 24.7122 189.473 31.2643C188.344 31.8318 187.286 30.4904 188.415 29.9229C201.039 23.2676 215.71 19.1919 231.155 18.0569C232.495 17.9538 232.495 19.5015 231.155 19.6047V19.6047Z" fill="#E8E8E8"/>
<path d="M234.188 15.9934C227.558 16.9221 221.07 18.1602 214.722 19.6048C213.453 19.9143 212.888 18.4182 214.158 18.1086C220.576 16.6125 227.065 15.4259 233.624 14.4973C234.964 14.2909 235.528 15.787 234.188 15.9934V15.9934Z" fill="#E8E8E8"/>
<path d="M232.637 15.8386C224.385 16.5092 216.344 17.799 208.516 19.6563C207.246 19.9658 206.682 18.4697 207.951 18.1602C215.992 16.2513 224.244 14.9615 232.637 14.2908C233.977 14.1876 233.977 15.7354 232.637 15.8386V15.8386Z" fill="#E8E8E8"/>
<path d="M258.591 6.91331C247.73 9.69923 237.362 13.2074 227.488 17.4379C226.289 17.9538 225.231 16.6124 226.43 16.0965C236.516 11.7629 247.095 8.20308 258.097 5.41716C259.296 5.10762 259.861 6.60376 258.591 6.91331V6.91331Z" fill="#E8E8E8"/>
<path d="M261.553 6.39744C250.48 9.38972 239.831 13.0011 229.604 17.2832C228.405 17.7991 227.347 16.4577 228.546 15.9418C238.984 11.6081 249.775 7.94517 261.06 4.90129C262.259 4.59175 262.823 6.08789 261.553 6.39744V6.39744Z" fill="#E8E8E8"/>
<path d="M245.191 44.8327C238.773 36.5781 233.201 28.014 228.475 19.1403C227.982 18.2116 230.027 17.7989 230.521 18.7276C235.176 27.4465 240.677 35.9074 247.024 44.0588C247.659 44.8843 245.825 45.6581 245.191 44.8327V44.8327Z" fill="#E8E8E8"/>
<path d="M231.367 18.5213C232.637 20.069 233.554 21.6684 234.188 23.4225C234.541 24.4027 232.496 24.8154 232.143 23.8352C231.579 22.2359 230.732 20.7397 229.533 19.2952C228.828 18.4181 230.662 17.6443 231.367 18.5213V18.5213Z" fill="#E8E8E8"/>
<path d="M778.954 283.906C778.954 286.382 778.954 288.859 778.954 291.335C778.954 292.315 776.838 292.315 776.838 291.335C776.838 288.859 776.838 286.382 776.838 283.906C776.838 282.926 778.954 282.926 778.954 283.906V283.906Z" fill="#E8E8E8"/>
<path d="M777.896 292.419C728.455 292.419 679.014 292.419 629.574 292.419C628.234 292.419 628.234 290.871 629.574 290.871C679.014 290.871 728.455 290.871 777.896 290.871C779.236 290.871 779.236 292.419 777.896 292.419V292.419Z" fill="#E8E8E8"/>
<path d="M776.767 284.422C727.961 284.422 679.085 284.422 630.279 284.422C628.939 284.422 628.939 282.874 630.279 282.874C679.085 282.874 727.961 282.874 776.767 282.874C778.107 282.874 778.107 284.422 776.767 284.422V284.422Z" fill="#E8E8E8"/>
<path d="M631.407 284.216C631.266 286.692 631.337 289.169 631.76 291.645C631.901 292.625 629.785 292.625 629.644 291.645C629.221 289.169 629.08 286.692 629.291 284.216C629.362 283.184 631.478 283.184 631.407 284.216V284.216Z" fill="#E8E8E8"/>
<path d="M693.896 249.443C697.916 260.587 695.659 272.092 691.992 283.081C691.639 284.061 689.664 283.648 689.946 282.668C693.543 271.885 695.8 260.742 691.851 249.856C691.498 248.876 693.543 248.463 693.896 249.443V249.443Z" fill="#E8E8E8"/>
<path d="M660.254 251.507C659.76 253.829 659.266 256.099 658.773 258.42C658.561 259.4 656.516 258.988 656.727 258.007C657.221 255.686 657.715 253.416 658.208 251.094C658.42 250.114 660.465 250.527 660.254 251.507V251.507Z" fill="#E8E8E8"/>
<path d="M657.574 258.678C651.861 255.531 648.616 261.67 648.546 264.869C648.475 268.893 651.085 272.504 657.08 272.814C658.42 272.866 658.42 274.413 657.08 274.362C648.899 274.001 645.795 268.738 646.571 263.373C647.135 259.246 652.566 254.035 658.632 257.388C659.76 257.956 658.702 259.297 657.574 258.678V258.678Z" fill="#E8E8E8"/>
<path d="M657.997 273.33C658.42 276.425 659.196 279.418 660.183 282.461C660.536 283.442 658.49 283.854 658.138 282.874C657.08 279.727 656.304 276.58 655.81 273.33C655.74 272.298 657.856 272.35 657.997 273.33V273.33Z" fill="#E8E8E8"/>
<path d="M656.092 261.103C653.836 259.761 652.919 263.992 652.848 264.559C652.778 265.23 652.919 265.952 653.13 266.623C653.694 268.222 654.893 269.512 656.586 270.544C657.644 271.163 656.163 272.246 655.105 271.627C651.861 269.667 650.168 266.52 650.873 263.476C651.367 261.206 654.118 257.904 657.574 260.019C658.631 260.638 657.15 261.722 656.092 261.103V261.103Z" fill="#E8E8E8"/>
<path d="M657.856 259.813C658.138 263.424 658.067 267.036 657.715 270.699C657.644 271.679 655.528 271.679 655.599 270.699C655.951 267.087 656.022 263.476 655.74 259.813C655.669 258.781 657.785 258.781 657.856 259.813V259.813Z" fill="#E8E8E8"/>
<path d="M690.37 251.197C681.836 253.209 672.949 253.725 664.062 252.745C662.722 252.59 663.286 251.094 664.627 251.249C673.161 252.177 681.624 251.662 689.805 249.701C691.075 249.392 691.639 250.888 690.37 251.197V251.197Z" fill="#E8E8E8"/>
<path d="M685.503 247.276C689.664 245.368 684.798 241.189 684.093 238.764C683.387 236.339 685.292 235.152 686.561 233.089C688.395 230.097 684.163 227.878 683.528 224.989C682.964 222.461 685.785 220.346 681.977 218.282C680.919 217.715 681.906 216.373 683.035 216.941C685.362 218.179 686.773 220.088 686.279 222.255C685.926 223.854 685.362 224.679 686.42 226.33C686.914 227.156 687.619 227.878 688.183 228.704C688.889 229.839 689.523 231.025 689.312 232.315C689.171 233.605 688.254 234.172 687.407 235.204C684.939 238.248 687.196 239.796 688.606 242.685C689.664 244.852 689.382 247.225 686.561 248.515C685.433 249.134 684.375 247.792 685.503 247.276V247.276Z" fill="#E8E8E8"/>
<path d="M672.949 210.286C674.007 212.298 675.347 214.568 675.558 216.735C675.77 218.695 673.795 219.778 673.16 221.533C672.385 223.648 675.135 225.402 675.417 227.465C675.77 230.148 672.526 231.902 675.7 234.482C676.616 235.204 675.135 236.339 674.218 235.565C672.596 234.276 671.75 232.728 672.032 230.974C672.244 229.684 673.513 228.601 673.231 227.208C673.019 226.124 671.891 225.144 671.397 224.112C670.551 222.461 670.904 221.171 672.032 219.675C674.289 216.58 672.455 213.742 670.904 210.698C670.41 209.77 672.455 209.357 672.949 210.286V210.286Z" fill="#E8E8E8"/>
<path d="M662.511 225.66C665.825 228.188 667.377 231.644 666.46 235.152C666.178 236.287 665.402 237.422 665.332 238.609C665.191 240.105 666.46 240.827 667.024 242.117C667.8 243.768 665.05 246.141 666.742 247.431C667.659 248.153 666.178 249.237 665.261 248.514C664.203 247.689 663.921 246.76 664.203 245.625C664.485 244.387 665.473 243.51 664.768 242.22C664.344 241.446 663.498 241.034 663.216 240.157C662.652 238.196 664.062 236.339 664.485 234.43C665.12 231.593 663.71 228.807 661.03 226.743C660.042 226.021 661.594 224.937 662.511 225.66V225.66Z" fill="#E8E8E8"/>
<path d="M766.188 282.874C766.4 280.862 766.47 278.902 766.4 276.89C766.752 277.148 767.105 277.406 767.458 277.664C756.103 276.838 744.677 276.425 733.251 276.322C727.75 276.271 722.249 276.322 716.818 276.477C715.478 276.529 714.067 276.529 712.727 276.58C711.81 276.632 709.483 276.374 708.637 276.735C706.591 277.612 707.438 282.358 707.367 283.854C707.297 284.835 705.181 284.835 705.251 283.854C705.322 281.739 704.828 278.953 705.604 276.941C705.956 276.064 706.38 275.6 707.649 275.239C710.188 274.568 714.208 274.929 716.888 274.878C720.062 274.774 723.307 274.723 726.48 274.723C740.163 274.62 753.916 275.084 767.528 276.064C768.093 276.116 768.586 276.374 768.586 276.838C768.727 278.85 768.657 280.811 768.375 282.823C768.234 283.854 766.118 283.854 766.188 282.874V282.874Z" fill="#E8E8E8"/>
<path d="M748.556 275.445C748.556 274.517 749.05 272.556 748.486 271.731C747.569 270.234 743.76 270.647 741.926 270.596C737.906 270.492 733.957 270.338 729.936 270.234C726.198 270.131 722.46 270.028 718.652 269.925C716.254 269.873 713.574 269.357 712.586 271.318C712.022 272.453 712.234 274.207 712.093 275.394C711.951 276.374 709.836 276.374 709.977 275.394C710.259 273.33 709.412 268.996 713.08 268.274C715.125 267.861 717.946 268.326 720.133 268.377C723.448 268.48 726.692 268.584 730.007 268.687C735.79 268.841 742.138 268.48 747.78 269.254C751.8 269.77 750.672 273.227 750.742 275.445C750.672 276.425 748.556 276.425 748.556 275.445V275.445Z" fill="#E8E8E8"/>
<path d="M725.563 276.425C724.364 278.799 723.941 281.172 724.364 283.648C724.505 284.628 722.39 284.628 722.249 283.648C721.755 281.017 722.178 278.489 723.518 276.013C724.012 275.084 726.057 275.497 725.563 276.425V276.425Z" fill="#E8E8E8"/>
<path d="M725.422 269.718C724.153 271.834 723.871 274.052 724.435 276.322C724.717 277.302 722.672 277.715 722.39 276.735C721.684 274.052 722.107 271.473 723.589 268.945C724.153 268.016 725.916 268.79 725.422 269.718V269.718Z" fill="#E8E8E8"/>
<path d="M717.453 269.254C716.959 271.112 716.465 273.02 716.183 274.878C716.042 275.858 713.926 275.858 714.067 274.878C714.42 272.866 714.843 270.802 715.407 268.841C715.689 267.861 717.735 268.274 717.453 269.254V269.254Z" fill="#E8E8E8"/>
<path d="M713.856 276.683C712.798 278.747 712.586 280.811 713.221 282.926C713.503 283.906 711.528 284.319 711.176 283.338C710.4 280.965 710.611 278.541 711.81 276.271C712.304 275.342 714.349 275.755 713.856 276.683V276.683Z" fill="#E8E8E8"/>
<path d="M790.309 143.733C790.309 145.848 790.168 147.963 789.956 150.027C789.815 151.007 787.7 151.007 787.841 150.027C788.123 147.912 788.264 145.848 788.193 143.733C788.193 142.753 790.309 142.753 790.309 143.733V143.733Z" fill="#E8E8E8"/>
<path d="M788.334 151.73C737.483 151.73 686.702 151.73 635.851 151.73C634.511 151.73 634.511 150.182 635.851 150.182C686.702 150.182 737.483 150.182 788.334 150.182C789.674 150.182 789.674 151.73 788.334 151.73V151.73Z" fill="#E8E8E8"/>
<path d="M788.616 144.3C737.765 144.3 686.984 144.3 636.133 144.3C634.793 144.3 634.793 142.753 636.133 142.753C686.984 142.753 737.765 142.753 788.616 142.753C790.027 142.753 790.027 144.3 788.616 144.3V144.3Z" fill="#E8E8E8"/>
<path d="M636.556 143.733C636.556 146.158 636.556 148.531 636.556 150.956C636.556 151.936 634.44 151.936 634.44 150.956C634.44 148.531 634.44 146.158 634.44 143.733C634.44 142.753 636.556 142.753 636.556 143.733V143.733Z" fill="#E8E8E8"/>
<path d="M782.551 121.446C780.224 128.668 777.896 135.891 775.428 143.062C775.075 144.043 773.03 143.63 773.382 142.65C775.851 135.478 778.178 128.256 780.506 121.033C780.788 120.053 782.833 120.465 782.551 121.446V121.446Z" fill="#E8E8E8"/>
<path d="M781.563 121.343C776.344 121.239 771.196 121.085 766.047 120.827C763.578 120.723 761.11 120.569 758.641 120.414C755.82 120.208 752.717 119.743 750.037 120.672C748.838 121.085 747.709 119.743 748.979 119.33C753.352 117.783 758.783 118.866 763.437 119.124C769.503 119.434 775.568 119.692 781.704 119.795C782.974 119.795 782.974 121.343 781.563 121.343V121.343Z" fill="#E8E8E8"/>
<path d="M750.742 120.104C751.589 127.74 753.423 135.272 756.103 142.701C756.455 143.681 754.41 144.094 754.057 143.114C751.307 135.582 749.473 127.895 748.627 120.104C748.556 119.124 750.672 119.124 750.742 120.104V120.104Z" fill="#E8E8E8"/>
<path d="M775.145 119.485C779.236 115.925 782.48 112.262 784.526 107.826C786.289 104.059 787.276 100.138 788.264 96.2175C788.687 96.5271 789.11 96.8366 789.533 97.1462C776.556 100.396 770.067 109.631 767.528 118.918C767.246 119.898 765.201 119.485 765.483 118.505C768.163 108.651 775.287 99.1066 788.969 95.7016C789.815 95.4953 790.38 96.1143 790.239 96.6303C789.11 101.119 787.982 105.607 785.725 109.838C783.609 113.81 780.365 117.267 776.627 120.517C775.78 121.342 774.299 120.259 775.145 119.485V119.485Z" fill="#E8E8E8"/>
<path d="M768.868 109.683C770.702 104.885 764.566 101.377 761.04 97.9717C757.654 94.7215 754.904 91.1617 752.647 87.3956C753.281 87.344 753.916 87.2924 754.551 87.1892C751.095 97.559 747.78 109.992 758.783 118.66C759.699 119.382 758.218 120.465 757.302 119.743C745.805 110.612 748.909 97.7138 752.576 86.7765C752.788 86.1574 754.128 85.951 754.48 86.5701C757.302 91.4197 761.11 95.7533 765.765 99.7774C769.221 102.718 772.395 106.02 770.843 110.096C770.561 111.024 768.516 110.663 768.868 109.683V109.683Z" fill="#E8E8E8"/>
<path d="M719.216 143.062C719.216 140.122 719.216 137.181 719.216 134.292C719.216 133.312 721.332 133.312 721.332 134.292C721.332 137.233 721.332 140.173 721.332 143.062C721.332 144.094 719.216 144.094 719.216 143.062V143.062Z" fill="#E8E8E8"/>
<path d="M720.274 134.859C694.672 134.859 669.14 134.859 643.538 134.859C642.198 134.859 642.198 133.312 643.538 133.312C669.14 133.312 694.672 133.312 720.274 133.312C721.614 133.312 721.614 134.859 720.274 134.859V134.859Z" fill="#E8E8E8"/>
<path d="M644.314 134.756C644.314 137.594 644.314 140.483 644.314 143.32C644.314 144.3 642.198 144.3 642.198 143.32C642.198 140.483 642.198 137.594 642.198 134.756C642.198 133.724 644.314 133.724 644.314 134.756V134.756Z" fill="#E8E8E8"/>
<path d="M705.04 133.827C705.04 132.125 705.04 130.371 705.04 128.668C705.04 127.688 707.156 127.688 707.156 128.668C707.156 130.371 707.156 132.125 707.156 133.827C707.156 134.859 705.04 134.859 705.04 133.827V133.827Z" fill="#E8E8E8"/>
<path d="M706.098 128.772C685.997 128.772 665.825 128.772 645.725 128.772C644.385 128.772 644.385 127.224 645.725 127.224C665.825 127.224 685.997 127.224 706.098 127.224C707.438 127.224 707.438 128.772 706.098 128.772V128.772Z" fill="#E8E8E8"/>
<path d="M646.43 127.998C646.43 129.958 646.43 131.919 646.43 133.879C646.43 134.859 644.314 134.859 644.314 133.879C644.314 131.919 644.314 129.958 644.314 127.998C644.314 126.966 646.43 126.966 646.43 127.998V127.998Z" fill="#E8E8E8"/>
<path d="M688.677 127.327C688.677 124.644 688.677 121.91 688.677 119.227C688.677 118.247 690.793 118.247 690.793 119.227C690.793 121.91 690.793 124.644 690.793 127.327C690.793 128.307 688.677 128.307 688.677 127.327V127.327Z" fill="#E8E8E8"/>
<path d="M688.818 119.537C675.347 119.537 661.946 119.537 648.475 119.537C647.135 119.537 647.135 117.989 648.475 117.989C661.946 117.989 675.347 117.989 688.818 117.989C690.158 117.989 690.158 119.537 688.818 119.537V119.537Z" fill="#E8E8E8"/>
<path d="M648.898 118.505C648.898 121.446 648.898 124.386 648.898 127.275C648.898 128.256 646.783 128.256 646.783 127.275C646.783 124.335 646.783 121.394 646.783 118.505C646.783 117.525 648.898 117.525 648.898 118.505V118.505Z" fill="#E8E8E8"/>
<path d="M663.004 119.176C662.017 121.962 661.805 124.696 662.158 127.533C662.299 128.514 660.183 128.514 660.042 127.533C659.619 124.541 659.901 121.652 660.959 118.763C661.312 117.783 663.357 118.195 663.004 119.176V119.176Z" fill="#E8E8E8"/>
<path d="M656.657 119.64C656.304 121.91 656.163 124.128 656.304 126.398C656.374 127.379 654.259 127.379 654.188 126.398C654.047 124.128 654.118 121.91 654.541 119.64C654.682 118.66 656.798 118.66 656.657 119.64V119.64Z" fill="#E8E8E8"/>
<path d="M665.261 128.41C664.909 130.113 664.979 131.867 665.261 133.621C665.402 134.601 663.286 134.601 663.145 133.621C662.793 131.764 662.863 129.907 663.216 127.998C663.428 127.018 665.473 127.43 665.261 128.41V128.41Z" fill="#E8E8E8"/>
<path d="M659.901 128.152C659.478 129.545 659.619 130.887 660.254 132.28C660.677 133.208 658.632 133.621 658.208 132.693C657.433 131.093 657.362 129.442 657.856 127.74C658.138 126.811 660.183 127.224 659.901 128.152V128.152Z" fill="#E8E8E8"/>
<path d="M675.841 134.086C675.417 137.181 675.347 140.225 675.629 143.32C675.7 144.301 673.584 144.301 673.513 143.32C673.231 140.225 673.302 137.181 673.725 134.086C673.866 133.105 675.982 133.105 675.841 134.086V134.086Z" fill="#E8E8E8"/>
<path d="M654.118 134.292C653.624 137.181 653.624 140.018 654.259 142.908C654.47 143.888 652.425 144.3 652.213 143.32C651.579 140.328 651.437 137.336 652.002 134.292C652.143 133.312 654.259 133.312 654.118 134.292V134.292Z" fill="#E8E8E8"/>
<path d="M577.735 49.218C577.735 58.1948 577.735 67.1717 577.735 76.1485C577.735 77.1288 575.619 77.1288 575.619 76.1485C575.619 67.1717 575.619 58.1948 575.619 49.218C575.619 48.1861 577.735 48.1861 577.735 49.218V49.218Z" fill="#E8E8E8"/>
<path d="M607.357 77.2836C587.962 77.2836 568.496 77.2836 549.1 77.2836C547.76 77.2836 547.76 75.7358 549.1 75.7358C568.496 75.7358 587.962 75.7358 607.357 75.7358C608.697 75.7358 608.697 77.2836 607.357 77.2836V77.2836Z" fill="#E8E8E8"/>
<path d="M559.327 77.5931C559.327 86.4152 559.327 95.2888 559.327 104.111C559.327 105.091 557.211 105.091 557.211 104.111C557.211 95.2888 557.211 86.4152 557.211 77.5931C557.211 76.6129 559.327 76.6129 559.327 77.5931V77.5931Z" fill="#E8E8E8"/>
<path d="M246.108 483.202C247.941 485.421 245.332 488 239.337 497.699C230.168 512.506 230.591 515.911 232.072 518.181C234.541 521.896 239.83 522.36 239.337 524.166C238.632 526.797 226.994 528.809 222.904 525.559C221.07 524.114 221.352 522.102 221.916 518.13C224.455 501.672 224.949 500.485 225.795 495.481C227.276 486.607 226.501 484.337 229.674 482.377C234.4 479.643 243.569 480.21 246.108 483.202Z" fill="#161616" stroke="#161616" stroke-width="3"/>
<path d="M136.364 480.932C131.075 478.198 121.835 481.087 117.039 484.492C113.019 487.278 113.936 489.135 109.281 491.56C108.223 492.128 103.357 494.656 97.2208 494.398C92.4954 494.191 91.5785 492.489 88.0521 493.005C85.5836 493.314 84.5256 494.346 79.8002 497.596C72.3946 502.755 69.644 503.942 70.1377 504.664C70.6314 505.335 72.9589 504.974 83.1856 503.942C90.6616 503.168 94.5407 502.807 97.2208 502.704C103.357 502.497 103.639 503.065 112.667 503.22C121.977 503.426 126.702 503.426 130.087 502.136C137.634 499.247 139.609 492.85 139.75 492.231C139.961 491.405 142.007 483.821 136.364 480.932Z" fill="#161616" stroke="#161616" stroke-width="3"/>
<path d="M238.843 461.276C234.259 461.379 232.284 465.3 228.193 468.705C217.543 477.682 198.994 477.992 183.76 478.25C154.984 478.714 147.226 470.717 133.473 476.134C125.926 479.127 118.803 485.266 118.944 492.024C119.155 500.846 131.78 507.089 140.667 509.359C148.566 511.371 152.868 510.133 174.521 507.244C209.362 502.549 216.274 503.271 229.604 497.699C237.221 494.501 244.062 490.425 248.435 484.286C250.269 481.706 253.16 477.424 251.82 472.265C250.48 466.848 244.556 461.121 238.843 461.276Z" fill="#161616" stroke="#161616" stroke-width="3"/>
<path d="M137.352 476.496C135.871 474.999 130.017 478.766 123.81 476.857C118.521 475.206 116.123 470.408 114.642 467.312C111.891 461.792 113.725 459.832 110.763 457.768C107.941 455.756 105.473 457.046 97.221 455.292C91.6492 454.105 87.1353 453.176 84.6668 450.339C82.692 448.069 84.1026 446.934 82.7625 441.156C82.3394 439.402 80.7172 432.385 78.3897 432.334C76.697 432.282 74.6517 435.997 74.5106 439.402C74.4401 440.794 74.7222 441.775 77.4023 448.224C79.095 452.248 79.9414 454.26 80.294 454.569C83.7499 457.716 88.3343 456.169 97.221 459.161C101.523 460.605 105.684 461.998 107.871 465.145C109.846 468.035 108.153 469.324 110.269 473.606C112.244 477.527 115.417 479.849 116.052 480.313C118.38 482.016 123.105 485.369 128.606 484.544C134.813 483.718 138.833 477.992 137.352 476.496Z" fill="#161616" stroke="#161616" stroke-width="3"/>
<path d="M153.785 500.898C154.632 502.136 157.03 505.696 156.183 510.081C155.337 514.57 151.528 518.439 148.919 521.019C145.322 524.682 143.206 525.455 143.629 527.003C144.405 530.408 154.843 530.666 154.773 532.317C154.632 533.968 144.052 534.793 135.941 534.432C129.876 534.174 128.465 533.4 127.689 532.678C125.997 530.924 127.901 528.86 128.677 524.217C129.241 520.915 128.818 518.594 128.183 514.673C127.125 508.224 125.433 507.811 124.798 503.013C124.304 499.195 123.458 492.85 127.689 490.631C133.473 487.639 148.213 492.85 153.785 500.898Z" fill="#161616" stroke="#161616" stroke-width="3"/>
<path d="M297.312 468.344C296.183 472.523 289.977 475.154 280.878 477.888C271.216 480.829 243.851 489.084 238.843 483.563C237.574 482.17 237.997 480.21 238.843 478.972C240.959 476.031 246.742 476.341 256.757 475.103C265.503 474.019 273.614 473.039 281.866 469.789C289.483 466.848 293.997 463.288 296.395 464.475C298.087 465.352 297.382 468.086 297.312 468.344Z" fill="#161616" stroke="#161616" stroke-width="3"/>
<path d="M308.314 450.132C306.128 452.815 303.448 455.24 300.274 457.407C299.286 458.077 297.805 456.994 298.793 456.323C301.825 454.26 304.364 451.938 306.48 449.358C307.186 448.481 309.019 449.255 308.314 450.132V450.132Z" fill="#161616"/>
<path d="M317.412 454.002C315.226 455.962 312.405 457.355 309.231 458.181C307.961 458.542 307.397 457.046 308.667 456.684C311.558 455.911 314.027 454.621 315.931 452.918C316.778 452.144 318.259 453.228 317.412 454.002V454.002Z" fill="#161616"/>
<path d="M317.06 464.165C315.085 464.32 313.11 464.423 311.065 464.578C309.725 464.681 309.725 463.133 311.065 463.03C313.039 462.875 315.014 462.772 317.06 462.617C318.4 462.514 318.4 464.062 317.06 464.165V464.165Z" fill="#161616"/>
<path d="M259.155 453.847C261.624 454.569 265.503 455.911 269.312 458.439C272.556 460.606 275.659 462.669 276.082 465.507C276.858 470.666 268.254 475.567 261.553 477.527C260.354 477.889 246.178 481.809 238.349 475.773C233.06 471.646 234.259 465.765 234.47 464.836C236.092 457.149 245.543 453.538 246.531 453.176C248.929 450.803 251.397 448.482 253.795 446.108C255.558 448.688 257.322 451.268 259.155 453.847Z" fill="#161616" stroke="#161616" stroke-width="3"/>
<path d="M265.714 460.812C264.657 463.03 261.835 464.526 258.591 464.475C257.251 464.423 257.251 462.876 258.591 462.927C260.848 462.979 262.964 461.947 263.669 460.399C264.163 459.471 266.208 459.883 265.714 460.812V460.812Z" fill="white"/>
<path d="M276.012 464.475C275.377 464.475 275.095 464.63 275.024 464.991C275.236 465.145 275.377 465.352 275.589 465.507C276.012 465.61 276.082 465.455 276.223 465.352C276.294 465.3 276.223 465.249 276.294 465.3C276.364 465.352 276.364 465.507 276.435 465.61C276.012 465.455 275.589 465.249 275.165 465.094C275.095 465.145 275.095 465.145 275.165 465.094C275.095 465.094 275.095 465.145 275.095 465.145C275.024 465.197 275.095 465.197 275.095 465.094C275.024 465.145 275.024 465.145 275.095 465.094C275.165 464.681 275.871 464.475 276.364 464.578C276.929 464.681 277.211 465.094 277.07 465.507C276.929 466.022 276.364 466.435 275.659 466.59C275.095 466.745 274.601 466.435 274.39 466.074C274.108 465.61 274.037 465.094 274.39 464.681C274.742 464.217 275.518 463.959 276.223 464.114C276.929 464.268 277.281 464.836 277.14 465.352C276.929 465.868 276.223 466.229 275.518 466.074C274.954 465.971 274.601 465.558 274.813 465.145C274.883 464.63 275.448 464.372 276.012 464.475V464.475Z" fill="white"/>
<path d="M276.435 465.816C275.377 468.447 271.145 469.737 267.901 468.499C266.702 468.035 267.76 466.693 268.959 467.158C271.075 467.931 273.755 467.003 274.39 465.404C274.742 464.423 276.788 464.836 276.435 465.816V465.816Z" fill="white"/>
<path d="M751.871 422.273C750.319 422.48 748.062 422.789 745.241 423.047C731.77 424.492 722.178 424.44 710.329 424.543C703.206 424.595 692.697 424.75 679.508 425.111C665.473 424.389 651.367 423.666 637.332 422.893C656.727 421.448 676.123 419.952 695.518 418.507C714.349 419.746 733.11 420.984 751.871 422.273Z" fill="#5222D0"/>
<path d="M710.4 454.312C706.38 454.931 702.36 455.55 698.339 456.169C684.375 455.55 669.07 454.002 652.919 450.907C649.816 450.339 646.783 449.72 643.891 449.049C666.037 450.803 688.183 452.558 710.4 454.312Z" fill="#5222D0"/>
<path d="M750.954 495.017C750.883 499.351 750.813 503.736 750.742 508.069C718.158 511.113 685.503 514.157 652.919 517.201C652.919 512.867 652.919 508.482 652.919 504.149C632.959 497.648 613.07 491.148 593.11 484.647C598.682 484.028 604.254 483.409 609.825 482.79C610.46 483.512 611.095 484.234 611.659 485.008C635.851 490.477 660.042 495.997 684.233 501.466C706.45 499.299 728.737 497.132 750.954 495.017Z" fill="#5222D0"/>
<path d="M787.206 436.048C762.803 438.215 738.329 440.382 713.926 442.549C686.702 441.156 659.478 439.711 632.254 438.318C638.178 436.925 644.103 435.584 650.027 434.191C662.299 434.862 674.642 435.532 686.914 436.203C710.118 435.016 733.251 433.778 756.455 432.592C766.682 433.727 776.979 434.862 787.206 436.048Z" fill="#EC615B"/>
<path d="M695.589 467.674C688.042 468.499 680.425 469.324 672.878 470.15C652.002 466.177 631.196 462.256 610.319 458.284C617.231 457.51 624.072 456.788 630.984 456.014C652.566 459.935 674.077 463.804 695.589 467.674Z" fill="#EC615B"/>
<path d="M782.41 480.778C750.249 484.131 718.158 487.536 685.997 490.89C676.052 489.342 665.684 487.536 654.894 485.369C640.082 482.429 626.329 479.178 613.564 475.877C618.36 475.257 623.156 474.638 627.951 474.019C642.974 477.063 657.997 480.107 673.09 483.151C699.75 480.468 726.41 477.837 753.07 475.154C762.803 477.063 772.606 478.92 782.41 480.778Z" fill="#EC615B"/>
<path d="M756.314 423.77C756.314 426.865 756.314 430.012 756.314 433.108C756.314 434.088 754.198 434.088 754.198 433.108C754.198 430.012 754.198 426.865 754.198 423.77C754.198 422.789 756.314 422.789 756.314 423.77V423.77Z" fill="#161616"/>
<path d="M754.903 424.079C729.936 424.698 704.898 425.266 679.931 425.885C678.591 425.936 678.591 424.389 679.931 424.337C704.898 423.718 729.936 423.15 754.903 422.531C756.314 422.48 756.314 424.027 754.903 424.079V424.079Z" fill="#161616"/>
<path d="M754.903 434.294C732.193 434.604 709.483 435.377 686.843 436.616C685.503 436.667 685.503 435.12 686.843 435.068C709.483 433.881 732.193 433.107 754.903 432.746C756.314 432.746 756.314 434.294 754.903 434.294V434.294Z" fill="#161616"/>
<path d="M679.226 426.091C664.767 425.163 650.239 424.543 635.78 424.182C634.44 424.131 634.44 422.583 635.78 422.635C650.309 422.944 664.767 423.615 679.226 424.543C680.566 424.595 680.636 426.143 679.226 426.091V426.091Z" fill="#161616"/>
<path d="M686.491 436.667C669.493 435.429 652.425 434.243 635.428 433.004C634.088 432.901 634.088 431.353 635.428 431.457C652.425 432.695 669.493 433.881 686.491 435.12C687.831 435.223 687.831 436.77 686.491 436.667V436.667Z" fill="#161616"/>
<path d="M680.284 425.885C680.778 426.452 681.13 427.02 681.271 427.69C681.483 428.825 680.848 429.702 681.624 430.837C682.541 432.282 683.105 433.417 682.752 435.016C682.541 435.997 680.496 435.584 680.707 434.604C681.06 432.901 679.861 432.127 679.156 430.734C678.521 429.29 679.72 428.052 678.45 426.659C677.745 425.833 679.579 425.008 680.284 425.885V425.885Z" fill="#161616"/>
<path d="M754.622 423.615C735.579 421.706 716.465 420.365 697.211 419.487C695.871 419.436 695.871 417.888 697.211 417.94C716.606 418.817 735.931 420.21 755.115 422.119C756.526 422.273 755.962 423.718 754.622 423.615V423.615Z" fill="#161616"/>
<path d="M698.621 419.539C678.097 419.642 657.644 420.984 637.473 423.563C636.133 423.718 635.569 422.222 636.909 422.067C657.291 419.436 677.956 418.043 698.621 417.94C699.961 417.991 699.961 419.539 698.621 419.539V419.539Z" fill="#161616"/>
<path d="M750.742 428.877C744.677 429.909 738.329 428.825 732.123 428.877C725.211 428.929 718.299 429.496 711.387 430.115C710.047 430.218 710.047 428.671 711.387 428.568C717.805 428.052 724.294 427.484 730.783 427.381C737.06 427.278 743.972 428.464 750.178 427.433C751.518 427.123 752.082 428.619 750.742 428.877V428.877Z" fill="#161616"/>
<path d="M722.813 432.23C712.022 432.488 701.16 432.849 690.37 433.314C689.029 433.365 689.029 431.818 690.37 431.766C701.16 431.302 712.022 430.941 722.813 430.683C724.153 430.631 724.153 432.179 722.813 432.23V432.23Z" fill="#161616"/>
<path d="M705.181 429.496C698.974 429.857 692.697 430.321 686.491 430.889C685.151 430.992 685.151 429.444 686.491 429.341C692.697 428.774 698.904 428.309 705.181 427.948C706.591 427.845 706.521 429.393 705.181 429.496V429.496Z" fill="#161616"/>
<path d="M675.065 430.27C670.128 430.786 665.332 429.909 660.465 429.393C654.682 428.722 648.828 428.206 642.974 427.948C641.634 427.897 641.634 426.349 642.974 426.401C647.7 426.607 652.425 427.02 657.08 427.484C662.722 428.052 668.717 429.393 674.43 428.825C675.841 428.619 676.405 430.115 675.065 430.27V430.27Z" fill="#161616"/>
<path d="M666.178 432.953C661.805 433.314 657.785 432.179 653.553 431.56C648.616 430.786 643.538 430.476 638.531 430.425C637.191 430.425 637.191 428.877 638.531 428.877C642.904 428.929 647.206 429.186 651.508 429.702C656.304 430.321 661.241 431.869 666.178 431.456C667.518 431.302 667.518 432.849 666.178 432.953V432.953Z" fill="#161616"/>
<path d="M637.614 424.801C637.543 427.433 637.473 430.012 637.332 432.643C637.332 433.624 635.216 433.624 635.216 432.643C635.287 430.012 635.357 427.433 635.498 424.801C635.498 423.77 637.614 423.77 637.614 424.801V424.801Z" fill="#161616"/>
<path d="M788.757 436.409C788.687 439.866 788.828 443.323 789.181 446.779C789.251 447.759 787.135 447.759 787.065 446.779C786.712 443.323 786.571 439.866 786.642 436.409C786.712 435.378 788.828 435.378 788.757 436.409V436.409Z" fill="#161616"/>
<path d="M787.7 448.275C763.014 450.545 738.259 452.506 713.433 454.26C712.092 454.363 712.092 452.815 713.433 452.712C738.259 450.958 763.014 448.998 787.7 446.728C789.11 446.624 789.04 448.172 787.7 448.275V448.275Z" fill="#161616"/>
<path d="M713.856 443.219C714.067 446.521 714.349 449.771 714.561 453.073C714.632 454.053 712.516 454.053 712.445 453.073C712.234 449.771 711.951 446.521 711.74 443.219C711.669 442.239 713.785 442.239 713.856 443.219V443.219Z" fill="#161616"/>
<path d="M712.798 443.529C685.574 442.755 658.349 441.259 631.266 439.144C629.926 439.041 629.926 437.493 631.266 437.596C658.349 439.711 685.574 441.156 712.798 441.981C714.138 442.033 714.138 443.581 712.798 443.529V443.529Z" fill="#161616"/>
<path d="M712.445 454.673C685.574 452.351 658.632 450.339 631.619 448.533C630.279 448.43 630.279 446.882 631.619 446.986C658.561 448.791 685.503 450.855 712.445 453.125C713.785 453.228 713.785 454.776 712.445 454.673V454.673Z" fill="#161616"/>
<path d="M632.183 438.937C632.183 441.723 632.113 444.509 632.113 447.295C632.113 448.275 629.997 448.275 629.997 447.295C629.997 444.509 630.067 441.723 630.067 438.937C630.067 437.906 632.183 437.906 632.183 438.937V438.937Z" fill="#161616"/>
<path d="M787.417 436.306C776.838 435.274 766.259 434.346 755.609 433.623C754.269 433.52 754.269 431.973 755.609 432.076C766.4 432.798 777.191 433.727 787.982 434.81C789.322 434.913 788.757 436.409 787.417 436.306V436.306Z" fill="#161616"/>
<path d="M786.359 437.338C761.956 438.628 737.624 440.485 713.362 442.91C712.022 443.065 711.458 441.569 712.798 441.414C737.201 438.989 761.745 437.08 786.359 435.79C787.7 435.739 787.7 437.286 786.359 437.338V437.338Z" fill="#161616"/>
<path d="M650.45 434.707C644.102 435.584 637.825 436.77 631.689 438.318C630.42 438.628 629.856 437.132 631.125 436.822C637.261 435.326 643.468 434.088 649.886 433.211C651.226 433.004 651.79 434.5 650.45 434.707V434.707Z" fill="#161616"/>
<path d="M775.921 444.458C763.226 443.993 751.095 447.244 738.47 447.398C737.13 447.398 737.13 445.851 738.47 445.851C751.095 445.696 763.297 442.446 775.921 442.91C777.261 442.961 777.261 444.509 775.921 444.458V444.458Z" fill="#161616"/>
<path d="M751.659 442.445C742.349 444.973 732.264 443.426 722.672 444.973C721.332 445.18 720.767 443.684 722.108 443.477C731.699 441.93 741.785 443.477 751.095 440.949C752.364 440.588 752.929 442.084 751.659 442.445V442.445Z" fill="#161616"/>
<path d="M708.284 449.204C684.868 445.335 660.536 444.922 636.697 443.89C635.357 443.838 635.357 442.291 636.697 442.342C660.818 443.426 685.221 443.787 708.848 447.708C710.188 447.914 709.624 449.41 708.284 449.204V449.204Z" fill="#161616"/>
<path d="M669.14 447.914C660.818 448.069 652.496 447.501 644.385 446.212C643.045 446.005 643.609 444.509 644.949 444.716C652.919 445.954 661.03 446.521 669.14 446.366C670.481 446.315 670.481 447.863 669.14 447.914V447.914Z" fill="#161616"/>
<path d="M773.805 449.101C773.805 452.97 773.805 456.788 773.805 460.657C773.805 461.638 771.69 461.638 771.69 460.657C771.69 456.788 771.69 452.97 771.69 449.101C771.69 448.121 773.805 448.121 773.805 449.101V449.101Z" fill="#161616"/>
<path d="M773.03 461.637C761.604 464.114 748.979 464.165 737.13 464.991C724.576 465.868 711.951 466.797 699.397 467.674C698.057 467.777 698.057 466.229 699.397 466.126C711.528 465.249 723.659 464.423 735.79 463.546C747.851 462.669 760.828 462.669 772.465 460.141C773.735 459.883 774.299 461.38 773.03 461.637V461.637Z" fill="#161616"/>
<path d="M699.468 455.705C699.397 459.264 699.397 462.773 699.538 466.332C699.538 467.313 697.422 467.313 697.422 466.332C697.281 462.773 697.281 459.264 697.352 455.705C697.352 454.673 699.468 454.673 699.468 455.705V455.705Z" fill="#161616"/>
<path d="M710.752 455.446C706.873 455.704 702.994 456.169 699.186 456.839C697.846 457.097 697.281 455.601 698.621 455.343C702.642 454.621 706.662 454.157 710.752 453.899C712.163 453.847 712.163 455.395 710.752 455.446V455.446Z" fill="#161616"/>
<path d="M698.128 456.53C678.38 455.343 658.773 453.177 639.377 449.926C638.037 449.72 638.601 448.224 639.941 448.43C659.125 451.629 678.521 453.796 698.128 454.982C699.468 455.034 699.468 456.582 698.128 456.53V456.53Z" fill="#161616"/>
<path d="M698.128 467.88C675.7 464.733 653.413 460.864 631.478 456.272C630.138 456.014 630.702 454.518 632.042 454.776C654.047 459.367 676.264 463.288 698.692 466.384C699.962 466.59 699.397 468.086 698.128 467.88V467.88Z" fill="#161616"/>
<path d="M632.536 447.966C632.465 450.545 632.536 453.125 632.818 455.653C632.959 456.633 630.843 456.633 630.702 455.653C630.42 453.073 630.349 450.494 630.42 447.966C630.42 446.986 632.536 446.986 632.536 447.966V447.966Z" fill="#161616"/>
<path d="M639.377 449.926C636.979 449.926 634.581 449.668 632.254 449.256C630.914 448.998 631.478 447.502 632.818 447.76C635.004 448.172 637.12 448.379 639.377 448.379C640.717 448.379 640.717 449.926 639.377 449.926V449.926Z" fill="#161616"/>
<path d="M761.181 458.129C744.113 459.625 727.115 461.07 710.047 462.36C708.707 462.463 708.707 460.915 710.047 460.812C727.115 459.522 744.183 458.129 761.181 456.582C762.521 456.478 762.521 458.026 761.181 458.129V458.129Z" fill="#161616"/>
<path d="M767.74 453.847C760.546 454.363 753.352 454.776 746.158 455.034C744.818 455.085 744.818 453.538 746.158 453.486C753.352 453.228 760.546 452.815 767.74 452.299C769.08 452.248 769.08 453.795 767.74 453.847V453.847Z" fill="#161616"/>
<path d="M737.13 456.685C728.032 456.685 719.004 457.149 709.977 458.181C708.636 458.336 708.072 456.839 709.412 456.685C718.581 455.653 727.82 455.137 737.13 455.137C738.47 455.137 738.541 456.685 737.13 456.685V456.685Z" fill="#161616"/>
<path d="M694.672 461.689C684.516 460.503 674.43 459.161 664.344 457.665C663.004 457.459 663.568 455.963 664.909 456.169C674.994 457.665 685.08 459.006 695.236 460.193C696.576 460.348 696.012 461.844 694.672 461.689V461.689Z" fill="#161616"/>
<path d="M675.488 462.308C663.286 459.316 650.732 457.098 638.037 455.756C636.697 455.601 637.261 454.105 638.601 454.26C651.367 455.601 663.851 457.768 676.052 460.812C677.322 461.173 676.758 462.669 675.488 462.308V462.308Z" fill="#161616"/>
<path d="M644.596 454.363C641.14 453.589 637.684 453.125 634.087 452.919C632.747 452.867 632.747 451.319 634.087 451.371C637.825 451.577 641.563 452.042 645.16 452.867C646.43 453.177 645.866 454.673 644.596 454.363V454.363Z" fill="#161616"/>
<path d="M757.725 463.649C757.795 467.312 757.936 470.975 758.007 474.638C758.007 475.619 755.891 475.619 755.891 474.638C755.82 470.975 755.679 467.312 755.609 463.649C755.538 462.669 757.654 462.669 757.725 463.649V463.649Z" fill="#161616"/>
<path d="M756.737 475.67C729.372 478.353 701.936 481.036 674.571 483.667C673.231 483.822 673.231 482.274 674.571 482.119C701.936 479.436 729.372 476.754 756.737 474.122C758.077 473.968 758.077 475.515 756.737 475.67V475.67Z" fill="#161616"/>
<path d="M696.435 468.189C688.254 469.118 680.072 469.892 671.82 470.459C670.48 470.563 670.48 469.015 671.82 468.912C679.861 468.344 687.901 467.622 695.871 466.693C697.211 466.539 697.775 468.035 696.435 468.189V468.189Z" fill="#161616"/>
<path d="M671.538 470.305C650.521 468.86 631.266 461.844 610.601 459.264C609.261 459.109 609.826 457.613 611.166 457.768C631.69 460.296 650.732 467.261 671.538 468.705C672.878 468.86 672.878 470.408 671.538 470.305V470.305Z" fill="#161616"/>
<path d="M631.619 456.53C624.496 457.304 617.302 457.871 610.108 458.181C608.768 458.232 608.768 456.685 610.108 456.633C617.161 456.323 624.143 455.808 631.055 455.034C632.395 454.879 632.959 456.375 631.619 456.53V456.53Z" fill="#161616"/>
<path d="M674.007 470.15C674.218 474.174 674.359 478.25 674.571 482.274C674.642 483.254 672.526 483.254 672.455 482.274C672.244 478.25 672.103 474.174 671.891 470.15C671.82 469.118 673.936 469.118 674.007 470.15V470.15Z" fill="#161616"/>
<path d="M673.442 483.718C652.354 480.004 631.548 475.619 610.954 470.614C609.684 470.305 610.249 468.809 611.518 469.118C632.113 474.122 652.919 478.456 674.007 482.222C675.347 482.429 674.783 483.925 673.442 483.718V483.718Z" fill="#161616"/>
<path d="M611.518 458.542C610.954 462.308 610.813 466.074 611.095 469.841C611.166 470.821 609.05 470.821 608.979 469.841C608.768 466.074 608.909 462.308 609.402 458.542C609.543 457.562 611.659 457.562 611.518 458.542V458.542Z" fill="#161616"/>
<path d="M751.307 471.336C751.8 471.388 752.223 471.44 752.717 471.44C754.057 471.543 754.057 472.884 752.717 472.987C734.803 474.38 717.029 476.496 699.186 478.559C697.846 478.714 697.281 477.218 698.621 477.063C716.606 474.948 734.591 472.833 752.717 471.44C752.717 471.956 752.717 472.471 752.717 472.987C752.223 472.936 751.8 472.884 751.307 472.884C749.967 472.781 749.967 471.233 751.307 471.336V471.336Z" fill="#161616"/>
<path d="M745.805 469.067C740.445 470.047 735.085 470.976 729.654 471.749C728.314 471.956 727.75 470.46 729.09 470.253C734.521 469.479 739.881 468.602 745.241 467.571C746.511 467.364 747.075 468.86 745.805 469.067V469.067Z" fill="#161616"/>
<path d="M723.448 471.079C709.271 472.678 695.166 474.277 680.989 475.877C679.649 476.031 679.085 474.535 680.425 474.38C694.601 472.781 708.707 471.182 722.883 469.582C724.223 469.479 724.788 470.975 723.448 471.079V471.079Z" fill="#161616"/>
<path d="M662.299 473.4C650.521 473.194 639.871 469.015 628.304 467.725C626.964 467.57 627.528 466.074 628.868 466.229C640.223 467.519 650.662 471.646 662.299 471.852C663.639 471.904 663.639 473.452 662.299 473.4V473.4Z" fill="#161616"/>
<path d="M666.108 478.611C660.959 477.682 655.81 476.754 650.662 475.773C649.322 475.516 649.886 474.019 651.226 474.277C656.375 475.206 661.523 476.135 666.672 477.115C668.012 477.321 667.448 478.817 666.108 478.611V478.611Z" fill="#161616"/>
<path d="M631.055 471.698C624.989 470.511 618.924 469.325 612.858 468.086C611.518 467.829 612.082 466.332 613.423 466.59C619.488 467.777 625.554 468.964 631.619 470.202C632.959 470.46 632.395 471.956 631.055 471.698V471.698Z" fill="#161616"/>
<path d="M784.878 481.294C773.664 480.417 762.591 478.714 751.871 476.134C750.601 475.825 751.165 474.329 752.435 474.638C763.014 477.166 773.805 478.869 784.878 479.746C786.218 479.849 786.218 481.397 784.878 481.294V481.294Z" fill="#161616"/>
<path d="M785.725 481.139C785.513 484.647 785.231 488.104 785.02 491.612C784.949 492.592 782.833 492.592 782.904 491.612C783.115 488.104 783.397 484.647 783.609 481.139C783.679 480.159 785.795 480.159 785.725 481.139V481.139Z" fill="#161616"/>
<path d="M783.821 492.644C751.236 495.791 718.722 498.938 686.138 502.033C684.798 502.188 684.798 500.589 686.138 500.486C718.722 497.339 751.236 494.192 783.821 491.096C785.161 490.941 785.09 492.489 783.821 492.644V492.644Z" fill="#161616"/>
<path d="M784.455 481.964C752.999 485.215 721.543 488.155 690.017 490.838C688.677 490.941 688.677 489.394 690.017 489.29C721.332 486.659 752.647 483.718 783.891 480.468C785.16 480.365 785.795 481.861 784.455 481.964V481.964Z" fill="#161616"/>
<path d="M686.067 502.343C660.888 497.029 635.851 491.354 611.024 485.266C609.755 484.957 610.319 483.46 611.589 483.77C636.485 489.806 661.453 495.533 686.631 500.847C687.972 501.105 687.407 502.601 686.067 502.343V502.343Z" fill="#161616"/>
<path d="M677.674 490.219C655.317 486.556 633.312 481.913 611.73 476.238C610.46 475.928 611.025 474.432 612.294 474.742C633.876 480.417 655.881 485.06 678.239 488.723C679.579 488.929 679.014 490.425 677.674 490.219V490.219Z" fill="#161616"/>
<path d="M612.999 475.774C612.929 478.714 612.858 481.603 612.788 484.544C612.788 485.524 610.672 485.524 610.672 484.544C610.742 481.603 610.813 478.714 610.883 475.774C610.954 474.793 613.07 474.793 612.999 475.774V475.774Z" fill="#161616"/>
<path d="M629.009 474.896C623.579 475.309 618.218 475.722 612.788 476.083C611.448 476.186 611.448 474.638 612.788 474.535C618.218 474.123 623.579 473.71 629.009 473.349C630.349 473.246 630.349 474.793 629.009 474.896V474.896Z" fill="#161616"/>
<path d="M776.768 489.703C761.181 490.374 745.735 491.767 730.36 493.779C729.02 493.934 728.455 492.437 729.795 492.283C745.312 490.219 760.969 488.878 776.768 488.155C778.178 488.104 778.108 489.651 776.768 489.703V489.703Z" fill="#161616"/>
<path d="M735.79 489.548C723.307 490.89 710.823 492.437 698.41 494.14C697.07 494.346 696.506 492.85 697.846 492.644C710.259 490.941 722.742 489.394 735.226 488.052C736.566 487.897 737.13 489.394 735.79 489.548V489.548Z" fill="#161616"/>
<path d="M687.125 493.263C686.984 495.533 686.773 497.803 686.632 500.021C686.561 501.001 684.445 501.001 684.516 500.021C684.657 497.751 684.868 495.481 685.009 493.263C685.08 492.283 687.196 492.283 687.125 493.263V493.263Z" fill="#161616"/>
<path d="M675.347 493.727C664.908 492.025 654.541 490.116 644.173 488.052C642.833 487.794 643.397 486.298 644.737 486.556C655.034 488.62 665.473 490.528 675.911 492.231C677.251 492.437 676.687 493.933 675.347 493.727V493.727Z" fill="#161616"/>
<path d="M675.7 496.565C672.949 496.358 670.269 496.049 667.659 495.481C666.319 495.223 666.883 493.727 668.223 493.985C670.692 494.501 673.161 494.811 675.7 495.017C677.04 495.12 677.04 496.668 675.7 496.565V496.565Z" fill="#161616"/>
<path d="M637.614 488.362C631.055 486.814 624.496 485.266 618.007 483.77C616.737 483.46 617.302 481.964 618.571 482.274C625.13 483.822 631.69 485.369 638.178 486.865C639.448 487.175 638.883 488.671 637.614 488.362V488.362Z" fill="#161616"/>
<path d="M624.919 482.945C622.098 482.326 619.206 481.758 616.385 481.139C615.045 480.881 615.609 479.385 616.949 479.643C619.77 480.262 622.662 480.829 625.483 481.448C626.752 481.706 626.259 483.203 624.919 482.945V482.945Z" fill="#161616"/>
<path d="M752.435 495.533C751.73 499.557 751.448 503.581 751.659 507.657C751.73 508.637 749.614 508.637 749.543 507.657C749.332 503.581 749.614 499.557 750.319 495.533C750.46 494.553 752.576 494.553 752.435 495.533V495.533Z" fill="#161616"/>
<path d="M749.826 508.74C717.241 511.836 684.727 514.88 652.143 517.975C650.803 518.078 650.803 516.53 652.143 516.427C684.727 513.332 717.241 510.288 749.826 507.193C751.166 507.038 751.166 508.585 749.826 508.74V508.74Z" fill="#161616"/>
<path d="M653.765 504.871C653.412 508.895 653.13 512.971 652.778 516.995C652.707 517.975 650.591 517.975 650.662 516.995C651.014 512.971 651.297 508.895 651.649 504.871C651.72 503.891 653.836 503.839 653.765 504.871V504.871Z" fill="#161616"/>
<path d="M652.425 517.872C632.042 510.649 611.589 503.478 591.206 496.255C590.007 495.842 591.065 494.501 592.264 494.914C612.647 502.136 633.1 509.308 653.483 516.53C654.752 516.995 653.624 518.336 652.425 517.872V517.872Z" fill="#161616"/>
<path d="M652.707 504.664C631.83 499.196 611.518 492.695 591.84 485.163C590.642 484.699 591.699 483.357 592.898 483.822C612.364 491.251 632.536 497.7 653.271 503.168C654.541 503.529 653.977 505.026 652.707 504.664V504.664Z" fill="#161616"/>
<path d="M593.745 484.544C593.604 488.413 593.463 492.283 593.322 496.1C593.251 497.081 591.135 497.081 591.206 496.1C591.347 492.231 591.488 488.362 591.629 484.544C591.629 483.512 593.745 483.512 593.745 484.544V484.544Z" fill="#161616"/>
<path d="M610.883 483.718C605.029 483.77 599.176 484.08 593.392 484.699C592.052 484.853 591.488 483.357 592.828 483.202C598.823 482.583 604.818 482.222 610.883 482.171C612.223 482.171 612.223 483.718 610.883 483.718V483.718Z" fill="#161616"/>
<path d="M684.939 502.498C677.815 503.426 670.621 503.994 663.357 504.2C662.017 504.252 662.017 502.704 663.357 502.652C670.41 502.446 677.392 501.93 684.375 501.001C685.715 500.795 686.279 502.291 684.939 502.498V502.498Z" fill="#161616"/>
<path d="M646.5 506.986C638.742 505.593 631.337 503.633 624.143 501.105C622.944 500.692 624.002 499.351 625.201 499.763C632.183 502.24 639.448 504.097 646.994 505.49C648.405 505.696 647.84 507.192 646.5 506.986V506.986Z" fill="#161616"/>
<path d="M645.654 511.01C639.448 509.308 633.453 507.296 627.669 504.974C626.47 504.51 627.528 503.168 628.727 503.633C634.369 505.903 640.153 507.863 646.218 509.514C647.488 509.875 646.994 511.371 645.654 511.01V511.01Z" fill="#161616"/>
<path d="M620.334 498.112C612.506 496.1 604.748 493.779 597.13 491.251C595.861 490.838 596.989 489.497 598.188 489.909C605.594 492.386 613.14 494.604 620.899 496.565C622.168 496.926 621.604 498.422 620.334 498.112V498.112Z" fill="#161616"/>
<path d="M617.302 501.517C609.614 499.093 602.279 496.204 595.226 492.85C594.098 492.283 595.156 490.993 596.284 491.509C603.266 494.862 610.672 497.751 618.36 500.176C619.629 500.589 618.571 501.879 617.302 501.517V501.517Z" fill="#161616"/>
<path d="M356.979 359.023C342.521 398.026 328.062 437.028 313.674 476.031C309.584 487.175 305.423 498.267 301.332 509.411C300.627 511.32 296.536 510.494 297.241 508.585C311.7 469.582 326.158 430.58 340.546 391.577C344.637 380.433 348.798 369.341 352.888 358.197C353.594 356.288 357.684 357.114 356.979 359.023V359.023Z" fill="#161616"/>
<path d="M398.662 360.673C398.027 403.597 397.392 446.573 396.828 489.497C396.687 501.62 396.475 513.796 396.334 525.92C396.334 527.932 392.103 527.932 392.103 525.92C392.737 482.996 393.372 440.021 393.936 397.097C394.077 384.973 394.289 372.797 394.43 360.673C394.43 358.713 398.662 358.713 398.662 360.673V360.673Z" fill="#161616"/>
<path d="M457.695 355.153C470.249 397.097 482.38 439.092 494.088 481.19C497.402 493.108 500.647 505.025 503.891 516.891C504.455 518.852 500.365 519.677 499.8 517.717C488.304 475.618 476.455 433.572 464.113 391.577C460.657 379.711 457.13 367.845 453.533 355.979C453.04 354.018 457.13 353.193 457.695 355.153V355.153Z" fill="#161616"/>
<path d="M487.035 465.661C456.496 465.868 426.027 466.384 395.559 467.261C392.808 467.364 392.808 464.268 395.559 464.165C426.027 463.288 456.566 462.772 487.035 462.566C489.715 462.566 489.715 465.661 487.035 465.661V465.661Z" fill="#161616"/>
<path d="M394.007 466.59C391.186 466.9 388.999 466.074 386.39 465.3C383.216 464.372 380.042 463.391 376.868 462.411C371.226 460.657 365.584 458.903 359.941 457.097C347.74 453.176 335.679 449.101 323.76 444.922C321.291 444.045 323.478 441.414 325.876 442.239C336.808 446.108 347.81 449.823 358.954 453.434C364.526 455.24 370.097 456.994 375.74 458.748C378.631 459.625 381.453 460.502 384.344 461.379C386.601 462.05 390.48 463.856 392.949 463.598C395.558 463.34 396.757 466.332 394.007 466.59V466.59Z" fill="#161616"/>
<path d="M414.249 361.55C419.891 398.18 425.533 434.81 431.176 471.491C432.798 481.861 434.349 492.282 435.972 502.652C436.254 504.613 432.022 504.613 431.74 502.652C426.098 466.022 420.455 429.393 414.813 392.711C413.191 382.342 411.639 371.92 410.017 361.55C409.664 359.59 413.896 359.59 414.249 361.55V361.55Z" fill="#161616"/>
<path d="M425.886 448.894C392.385 448.327 359.025 446.779 325.594 445.18C322.914 445.076 322.843 441.929 325.594 442.084C359.025 443.683 392.385 445.18 425.886 445.799C428.637 445.85 428.637 448.946 425.886 448.894V448.894Z" fill="#161616"/>
<path d="M486.259 465.507C465.171 461.018 444.858 454.931 424.476 448.946C422.007 448.224 423.065 445.231 425.604 445.954C445.987 451.938 466.299 458.026 487.387 462.514C489.997 463.03 488.868 466.023 486.259 465.507V465.507Z" fill="#161616"/>
<path d="M381.594 319.607C363.468 321.361 348.445 325.024 336.949 328.635C336.737 337.973 336.596 347.26 336.385 356.598C349.644 360.931 369.956 366.142 395.558 367.638C428.354 369.547 454.662 364.44 469.825 360.57C470.46 350.097 471.024 339.624 471.659 329.151C455.014 323.889 422.218 315.686 381.594 319.607Z" fill="white" stroke="#161616" stroke-width="3"/>
<path d="M465.876 331.576C460.375 336.064 452.475 337.664 444.506 338.386C434.208 339.366 423.629 339.676 413.191 339.934C391.75 340.45 370.027 339.573 349.644 334.207C348.375 333.898 348.939 332.401 350.208 332.711C369.604 337.819 390.198 338.85 410.581 338.438C420.314 338.231 430.047 337.819 439.78 337.199C448.596 336.632 458.118 335.549 464.324 330.493C465.312 329.719 466.793 330.854 465.876 331.576V331.576Z" fill="#161616"/>
<path d="M476.314 153.174C481.11 153.535 484.072 156.218 489.926 161.79C505.725 176.751 517.15 189.907 518.138 191.042C520.183 193.363 527.166 200.38 541.201 214.413C567.085 240.363 573.08 245.161 570.823 251.919C568.213 259.813 556.435 266.829 547.76 265.694C542.682 265.023 539.649 261.67 535.065 256.047C529.14 248.721 521.523 238.815 513.412 226.485C492.254 215.96 478.359 204.92 469.684 196.923C452.052 180.672 452.616 173.656 453.251 170.766C455.226 161.583 466.652 152.503 476.314 153.174Z" fill="white" stroke="#161616" stroke-width="3"/>
<path opacity="0.09" d="M461.503 159.674C464.959 159.984 465.735 167.31 467.075 171.85C471.73 187.533 488.586 189.133 516.516 212.4C528.223 222.203 536.546 231.283 544.233 239.795C551.71 248.05 557.563 255.273 561.795 260.741C561.09 261.722 559.256 263.785 555.8 264.817C551.145 266.158 546.631 264.662 545.15 264.146C539.579 262.237 538.591 259.297 529.422 247.947C523.568 240.672 523.639 241.446 521.1 237.783C516.445 231.025 516.798 229.013 512.778 225.608C509.251 222.564 506.712 222.719 499.871 218.849C496.344 216.889 490.138 213.381 483.226 208.376C481.181 206.932 472.929 200.844 464.254 191.454C457.412 184.077 455.79 180.569 455.014 178.608C452.193 171.489 453.956 167.31 454.521 166.123C455.79 163.492 458.823 159.416 461.503 159.674Z" fill="#3D3D3D"/>
<path opacity="0.18" d="M512.778 224.886C513.694 224.473 517.362 228.755 525.684 235.72C546.49 253.003 562.148 258.368 559.891 262.753C558.551 265.281 552.062 266.158 547.407 265.436C540.778 264.404 537.251 259.658 530.339 250.217C513.412 227.052 512.213 225.143 512.778 224.886Z" fill="#3D3D3D"/>
<path d="M573.785 453.28C571.81 469.376 569.906 485.473 567.931 501.569C598.611 512.816 613.281 519.935 611.8 522.979C610.037 526.694 583.8 524.166 533.231 515.344C534.218 492.953 535.206 470.511 536.123 448.121C548.677 449.823 561.231 451.526 573.785 453.28Z" fill="#161616" stroke="#161616" stroke-width="3"/>
<path d="M473.14 269.099C483.931 274.929 499.095 283.132 517.15 293.141C573.997 324.663 581.12 329.461 587.397 338.283C593.604 346.95 595.72 361.551 600.022 390.803C602.984 410.872 603.196 426.349 603.055 435.171C602.914 445.025 602.208 453.434 601.503 459.935C598.188 462.102 585.634 469.686 566.591 469.944C544.092 470.202 529.705 459.987 527.166 458.129C529.352 448.636 531.115 438.37 532.244 427.433C534.289 407.415 533.654 389.255 531.75 373.417C516.657 364.698 495.498 352.109 471.095 336.065C418.974 301.808 415.518 293.708 417.493 287.982C422.007 275.187 455.438 270.699 473.14 269.099Z" fill="white" stroke="#161616" stroke-width="3"/>
<path opacity="0.12" d="M449.654 273.02C457.201 274.877 453.181 287.363 458.259 298.971C464.042 312.229 477.372 315.789 510.38 334.156C521.1 340.089 536.405 349.22 553.896 361.809C553.614 384.973 554.601 409.582 557.352 435.532C558.621 447.295 560.173 458.8 561.936 469.892C557.281 469.428 551.357 468.447 544.727 466.539C537.322 464.372 531.538 461.637 527.518 459.419C529.775 449.617 531.538 438.989 532.667 427.587C534.642 407.57 533.936 389.41 532.103 373.52C519.548 365.781 509.322 359.693 502.339 355.514C492.888 349.891 488.092 347.157 479.982 342.101C475.327 339.212 470.601 336.168 458.823 328.274C428.495 308.051 420.173 301.653 418.128 292.676C417.14 288.085 418.41 285.608 419.256 284.319C421.866 280.552 427.296 278.85 438.158 275.497C444.647 273.588 447.891 272.556 449.654 273.02Z" fill="#3D3D3D"/>
<path opacity="0.15" d="M532.737 373.159C535.982 383.425 538.873 394.311 541.342 405.816C546.067 427.897 548.183 448.43 548.818 467.003C541.553 464.372 534.289 461.689 527.024 459.058C529.634 446.367 531.679 432.334 532.737 417.166C533.795 401.224 533.654 386.521 532.737 373.159Z" fill="#3D3D3D"/>
<path opacity="0.09" d="M423.911 281.378C428.919 281.068 433.433 289.478 436.536 294.379C443.236 305.11 461.433 319.143 497.825 347.157C506.571 353.915 518.349 362.686 532.737 372.694C528.929 370.682 523.78 367.999 517.856 364.749C504.455 357.372 496.485 352.419 470.883 336.271C470.883 336.271 461.644 330.441 423.911 301.498C421.936 300.002 417.14 296.185 417.07 291.025C416.929 286.692 420.173 281.636 423.911 281.378Z" fill="#3D3D3D"/>
<path d="M450.783 147.86C451.065 147.86 452.193 147.912 453.745 148.015C456.919 148.221 461.926 148.634 467.851 149.769C472.647 150.646 476.455 151.678 478.712 152.349C482.732 158.385 487.81 167.723 489.715 179.537C492.465 196.356 486.964 207.19 483.226 223.957C480.687 235.462 478.571 252.126 481.463 273.227C475.397 277.354 459.599 287.001 435.478 289.478C401.412 293.038 376.375 279.624 371.226 276.735C369.674 269.615 368.193 262.392 366.712 255.067C366.712 255.067 364.526 244.026 362.41 231.902C357.402 203.682 352.254 165.659 351.619 160.913C369.745 147.499 384.767 144.404 395.206 144.146C408.747 143.784 439.78 147.447 450.783 147.86Z" fill="#EC615B"/>
<path opacity="0.17" d="M424.123 159.056C420.385 161.893 415.377 166.227 410.863 172.108C389.14 200.277 402.611 233.14 408.606 247.741C412.768 257.956 420.667 272.969 436.324 289.117C430.329 289.891 422.853 290.303 414.319 289.684C393.936 288.188 379.196 281.275 371.79 277.199C366.712 252.59 361.987 227.362 357.755 201.567C355.569 188.256 353.594 175.152 351.689 162.099C354.863 159.21 360.082 155.031 367.911 151.472C374.118 148.634 383.075 144.507 394.218 144.92C411.71 145.642 422.501 157.301 424.123 159.056Z" fill="#3D3D3D"/>
<path d="M584.153 188.153C583.448 188.153 582.672 188.153 581.966 188.153C581.755 187.585 581.543 186.966 581.332 186.399C580.485 187.688 579.075 189.804 577.312 192.435C569.553 203.94 568.002 205.849 566.591 209.305C565.463 212.143 564.123 216.218 563.699 221.429C562.359 220.758 560.385 219.83 557.846 218.798C544.163 213.329 532.737 213.278 522.44 211.936C514.752 210.904 503.961 208.634 491.337 203.114C492.113 203.888 492.888 204.714 493.664 205.487C492.465 205.797 491.196 206.158 489.997 206.468C489.291 207.138 488.374 208.222 487.599 209.615C483.508 216.992 489.573 225.092 495.427 232.521C519.337 263.269 521.805 264.869 526.107 266.417C527.871 267.087 545.644 273.433 558.269 267.552C560.878 266.365 565.604 263.527 571.669 243.458C575.83 229.787 576.324 222.151 580.274 204.198C581.825 197.388 583.236 191.816 584.153 188.153Z" fill="white" stroke="#191919" stroke-width="2"/>
<path d="M580.133 190.99C574.138 200.38 568.214 209.924 566.38 220.242C566.309 220.5 565.816 220.5 565.816 220.242C567.649 209.821 573.574 200.225 579.639 190.784C579.851 190.577 580.274 190.732 580.133 190.99V190.99Z" fill="#191919"/>
<path d="M582.46 189.339C578.934 194.808 576.042 200.431 573.644 206.21C573.573 206.468 573.009 206.364 573.15 206.106C575.548 200.277 578.511 194.653 582.037 189.133C582.107 188.927 582.601 189.081 582.46 189.339V189.339Z" fill="#191919"/>
<path d="M572.798 205.9C570.47 210.543 568.919 215.341 568.002 220.242C567.931 220.5 567.438 220.5 567.438 220.242C568.355 215.29 569.906 210.492 572.234 205.797C572.375 205.539 572.868 205.642 572.798 205.9V205.9Z" fill="#191919"/>
<path d="M578.863 198.523C575.619 204.352 572.798 210.337 570.47 216.425C570.4 216.683 569.836 216.579 569.977 216.321C572.304 210.234 575.125 204.249 578.37 198.419C578.511 198.213 579.004 198.316 578.863 198.523V198.523Z" fill="#191919"/>
<path d="M562.501 222.719C553.684 218.437 543.81 215.651 533.302 214.567C532.949 214.516 533.09 214.155 533.443 214.206C544.022 215.29 553.896 218.076 562.783 222.358C562.994 222.512 562.783 222.874 562.501 222.719V222.719Z" fill="#191919"/>
<path d="M558.057 222.048C548.889 217.973 538.521 216.425 528.224 214.722C517.292 212.917 506.642 210.492 496.274 207.396C495.992 207.293 496.133 206.932 496.415 207.035C507.135 210.285 518.208 212.71 529.564 214.567C539.508 216.218 549.523 217.818 558.339 221.739C558.622 221.842 558.339 222.203 558.057 222.048V222.048Z" fill="#191919"/>
<path d="M559.75 223.906C548.888 220.139 537.815 217.818 526.178 215.754C514.752 213.69 503.679 210.492 492.536 207.706C492.183 207.603 492.324 207.242 492.677 207.345C504.173 210.234 515.669 213.587 527.518 215.599C538.732 217.56 549.523 219.985 560.032 223.596C560.385 223.648 560.103 224.009 559.75 223.906V223.906Z" fill="#191919"/>
<path d="M584.576 188.05C579.428 199.967 574.208 211.833 569.06 223.751C566.521 224.37 563.982 224.989 561.443 225.608C537.322 219.778 513.271 214 489.15 208.17C488.304 208.686 487.458 209.202 486.611 209.769C483.861 234.275 481.04 258.729 478.289 283.235C479.276 283.7 480.193 284.112 481.181 284.577C505.654 287.311 530.057 290.045 554.531 292.78C558.057 292.16 561.513 291.541 565.04 290.922C568.143 280.862 571.317 270.853 574.42 260.793C579.004 237.01 583.589 213.226 588.173 189.443C586.974 188.927 585.775 188.462 584.576 188.05Z" fill="white" stroke="#191919" stroke-width="2"/>
<path d="M570.188 224.06C569.06 246.399 566.873 268.79 565.181 291.129C565.11 291.851 563.558 291.851 563.558 291.129C565.251 268.79 567.438 246.451 568.566 224.06C568.637 223.286 570.259 223.286 570.188 224.06V224.06Z" fill="#191919"/>
<path d="M562.853 225.453C561.866 231.799 561.443 238.145 561.443 244.542C561.443 245.264 559.891 245.264 559.821 244.542C559.821 238.145 560.244 231.799 561.231 225.453C561.443 224.731 562.994 224.731 562.853 225.453V225.453Z" fill="#191919"/>
<path opacity="0.16" d="M518.984 215.909C518.702 221.068 518.914 232.624 527.941 245.058C537.533 258.265 551.569 265.075 557.634 267.655C557.916 263.424 558.269 259.194 558.551 255.015C560.949 257.956 563.276 260.896 565.674 263.837C565.181 273.02 564.616 282.203 564.123 291.438C560.737 291.954 557.352 292.47 553.896 293.038C530.128 290.252 506.289 287.466 482.521 284.68C481.251 284.319 480.052 283.906 478.783 283.545C481.463 258.729 484.143 233.966 486.823 209.15C497.543 211.369 508.264 213.639 518.984 215.909Z" fill="#6C6D6D"/>
<path opacity="0.1" d="M562.5 225.969C562.994 225.969 563.558 235.513 563.206 245.883C562.783 260.638 560.878 267.087 561.443 281.172C561.654 285.763 562.007 289.529 562.289 291.954C559.679 292.212 556.999 292.47 554.39 292.728C554.883 290.2 555.589 286.537 556.294 282.152C561.866 249.34 561.725 225.969 562.5 225.969Z" fill="#6C6D6D"/>
<path d="M543.528 228.858C526.742 225.969 510.239 222.358 494.017 218.024C492.747 217.663 493.312 216.167 494.581 216.528C510.803 220.81 527.307 224.421 544.093 227.362C545.362 227.62 544.798 229.116 543.528 228.858V228.858Z" fill="#191919"/>
<path d="M581.614 230.406C582.39 230.612 582.319 231.644 582.954 236.442C583.377 239.692 583.518 239.744 583.377 240.518C583.024 242.684 581.966 243.097 581.614 245.574C581.402 247.173 581.825 247.379 581.473 248.721C581.05 250.372 580.062 251.61 579.286 252.384C579.286 252.899 579.145 253.777 578.581 254.654C577.453 256.253 574.843 257.646 573.432 257.13C572.657 256.872 572.445 255.789 572.092 253.673C571.74 251.713 571.951 251.61 571.669 249.34C571.387 247.482 571.176 247.121 571.387 246.193C571.599 245.058 572.163 244.697 572.727 243.51C573.503 241.859 573.15 241.24 573.644 239.537C574.349 236.7 576.183 234.688 577.17 233.604C578.158 232.469 580.274 230.096 581.614 230.406Z" fill="white"/>
<path d="M582.107 229.942C585.916 235.978 582.107 242.736 573.503 244.955C572.515 245.213 572.092 244.078 573.08 243.82C580.697 241.859 584.082 235.875 580.697 230.509C580.344 229.838 581.684 229.271 582.107 229.942V229.942Z" fill="#191919"/>
<path d="M581.825 230.87C576.747 234.327 573.785 238.867 573.362 243.923C573.291 244.645 571.74 244.645 571.74 243.923C572.163 238.557 575.266 233.708 580.697 230.045C581.473 229.529 582.601 230.354 581.825 230.87V230.87Z" fill="#191919"/>
<path d="M583.941 237.164C585.775 243.201 580.908 248.927 572.516 250.217C571.528 250.372 571.105 249.237 572.092 249.082C579.568 247.947 584.082 242.943 582.39 237.422C582.178 236.7 583.73 236.39 583.941 237.164V237.164Z" fill="#191919"/>
<path d="M582.389 244.748C583.871 249.34 580.062 253.725 573.714 254.602C572.727 254.757 572.304 253.622 573.291 253.467C578.792 252.745 582.178 249.082 580.908 245.058C580.626 244.336 582.107 244.026 582.389 244.748V244.748Z" fill="#191919"/>
<path d="M580.344 252.126C580.626 254.344 578.863 256.562 576.042 257.388C574.843 257.749 573.291 257.801 572.374 257.027C571.387 256.201 571.81 254.963 572.374 254.086C572.727 253.415 574.279 253.725 573.926 254.396C573.573 254.963 572.868 256.098 573.997 256.459C574.843 256.717 576.183 256.098 576.818 255.737C578.299 254.86 579.004 253.519 578.793 252.126C578.652 251.352 580.274 251.403 580.344 252.126V252.126Z" fill="#191919"/>
<path d="M573.08 254.55C571.528 254.55 570.893 253.415 570.682 252.435C570.4 251.249 570.682 250.01 571.528 248.979C572.022 248.308 573.432 248.927 572.868 249.546C572.374 250.165 572.092 250.836 572.092 251.507C572.092 251.868 572.233 253.364 573.08 253.364C574.067 253.364 574.067 254.55 573.08 254.55V254.55Z" fill="#191919"/>
<path d="M571.105 249.804C570.118 249.134 570.118 247.844 570.329 246.915C570.541 245.729 571.246 244.697 572.375 243.82C573.08 243.252 574.208 244.078 573.503 244.645C572.798 245.213 572.233 245.883 572.022 246.709C571.881 247.276 571.669 248.514 572.304 248.979C573.009 249.495 571.881 250.32 571.105 249.804V249.804Z" fill="#191919"/>
<path d="M497.684 415.979C495.075 427.536 492.536 439.144 489.926 450.7C518.914 465.765 532.385 474.638 530.339 477.424C527.941 480.675 504.244 475.464 459.246 461.792C460.868 442.91 462.49 424.079 464.183 405.197C475.327 408.808 486.541 412.368 497.684 415.979Z" fill="#161616" stroke="#161616" stroke-width="3"/>
<path d="M370.873 276.374C369.745 283.235 369.322 294.224 374.893 306.606C377.291 311.868 381.312 320.484 391.891 328.584C398.662 333.743 410.511 342.823 427.79 342.462C441.755 342.152 451.629 335.91 455.226 333.382C456.284 343.081 456.848 353.606 456.566 364.904C456.143 382.29 453.815 398.026 450.712 411.749C459.176 423.202 475.397 430.27 492.536 429.909C514.541 429.445 527.024 417.011 528.435 415.566C533.513 380.639 533.936 351.593 533.019 330.028C532.244 312.436 530.551 297.887 516.022 286.073C501.846 274.516 483.085 271.885 478.148 271.266C442.037 266.571 414.742 285.196 411.498 287.517C406.279 287.775 396.052 287.672 385.05 283.803C378.561 281.481 373.906 278.592 370.873 276.374Z" fill="white" stroke="#161616" stroke-width="3"/>
<path d="M454.097 318.369C456.072 324.818 457.13 331.37 457.342 337.973C457.342 338.954 455.226 338.954 455.226 337.973C455.014 331.473 454.027 325.076 452.123 318.782C451.77 317.801 453.815 317.389 454.097 318.369V318.369Z" fill="#161616"/>
<path d="M453.604 326.623C452.616 325.024 451.699 323.425 450.712 321.774C450.148 320.845 451.982 320.071 452.546 321C453.533 322.599 454.45 324.199 455.437 325.85C456.002 326.727 454.168 327.501 453.604 326.623V326.623Z" fill="#161616"/>
<path d="M414.107 286.743C409.382 290.045 406.138 294.792 402.611 298.816C401.906 299.641 400.072 298.867 400.777 298.042C404.445 293.915 407.76 289.117 412.626 285.66C413.614 284.938 415.095 286.021 414.107 286.743V286.743Z" fill="#161616"/>
<path opacity="0.09" d="M393.372 285.66C393.231 288.137 393.231 291.542 393.795 295.617C395.135 305.162 396.264 313.261 403.458 316.77C411.851 320.897 424.616 316.976 429.342 315.48C445.705 310.424 447.609 301.963 456.989 301.344C468.062 300.622 479.558 311.456 485.06 319.968C498.672 340.863 483.226 357.217 481.533 394.724C480.898 409.788 482.732 421.964 484.143 429.393C480.475 429.083 475.679 428.31 470.531 426.504C458.611 422.325 452.616 415.154 450.359 412.058C450.853 409.221 451.558 404.836 452.546 399.522C454.944 386.572 455.72 385.179 456.495 379.608C456.848 377.08 457.13 374.242 456.495 355.876C456.284 350.459 456.072 342.978 455.649 334.053C453.745 335.033 451.135 336.271 447.75 337.561C445.422 338.438 437.241 341.585 429.765 342.359C417.846 343.597 407.689 338.696 402.541 336.271C388.506 329.513 382.44 320.02 378.42 313.468C369.463 298.971 369.181 285.351 370.097 276.89C372.566 278.85 377.15 281.997 384.133 283.958C387.659 284.989 390.833 285.454 393.372 285.66Z" fill="#3D3D3D"/>
<path opacity="0.11" d="M372.778 287.569C374.4 287.156 379.266 294.121 379.83 294.946C384.415 301.602 384.274 305.884 385.966 310.011C389.281 318.266 400.002 326.572 410.934 328.635C429.342 332.092 444.788 317.182 453.04 321.877C456.919 324.095 456.707 329.151 455.226 332.144C450.994 340.759 431.81 341.378 429.342 341.43C412.626 341.843 400.354 334.259 396.475 331.782C371.649 316.099 369.815 288.343 372.778 287.569Z" fill="#3D3D3D"/>
<path opacity="0.11" d="M453.956 321.258C455.155 321.103 458.893 329.77 461.432 338.283C466.581 355.618 465.946 368.98 465.805 375.48C465.594 387.552 467.004 404.836 474.128 426.813C471.236 426.297 466.793 425.162 462.279 422.634C455.367 418.765 452.405 413.916 451.347 411.749C452.757 400.45 453.745 390.854 454.45 383.528C456.143 365.833 456.989 356.804 456.637 348.55C455.861 332.092 452.616 321.464 453.956 321.258Z" fill="#3D3D3D"/>
<path d="M485.694 236.855C485.06 235.513 480.828 235.513 479.699 235.513C474.762 235.513 470.813 237.887 469.543 239.899C469.191 240.466 469.12 240.93 469.12 241.188C468.979 242.581 470.108 243.974 471.095 244.439C474.762 246.141 486.964 239.486 485.694 236.855Z" fill="white" stroke="#161616" stroke-width="3"/>
<path d="M357.05 157.404C345.835 162.46 347.176 176.751 348.868 194.653C350.772 214.413 357.261 228.291 359.73 233.347C364.102 242.065 368.969 249.133 372.989 254.189C387.518 258.729 410.652 264.095 439.286 263.166C449.654 262.805 458.893 261.722 466.863 260.329C476.385 265.127 484.072 265.075 487.387 264.817C492.536 264.456 499.307 262.753 499.236 261.103C499.236 259.968 495.921 259.039 494.44 258.626C490.843 257.594 487.669 257.698 487.669 257.594C487.669 257.491 490.279 257.594 493.029 257.388C494.863 257.233 498.46 257.027 501.563 255.84C502.692 255.428 508.264 253.415 509.322 249.495C510.309 245.935 507.347 241.911 501.916 239.537C496.909 238.557 488.092 237.371 477.443 238.764C469.543 239.795 463.478 241.859 459.458 243.458C440.485 240.053 421.513 236.597 402.611 233.192C402.259 230.303 401.624 226.072 400.848 220.861C398.38 204.404 397.181 196.149 395.276 189.185C390.621 172.056 387.589 160.861 375.74 156.94C370.45 155.238 362.762 154.825 357.05 157.404Z" fill="white" stroke="#161616" stroke-width="3"/>
<path opacity="0.18" d="M368.122 156.218C365.795 166.794 363.679 182.426 365.583 201.205C367.699 221.893 368.898 232.212 378.913 240.776C393.936 253.622 426.309 260.071 451.488 254.86C461.221 252.848 475.256 248.256 492.465 250.836C497.402 251.558 504.949 253.261 504.808 254.602C504.667 255.634 499.588 256.666 495.991 256.975C493.241 257.182 491.478 257.027 491.337 257.44C490.913 258.42 498.883 260.071 498.672 261.773C498.531 263.218 492.253 264.353 487.105 264.456C483.155 264.559 476.173 264.198 467.709 260.638C460.233 261.928 451.699 263.012 442.319 263.424C412.344 264.766 387.8 259.039 372.495 254.189C369.392 250.114 365.442 244.387 361.634 237.268C349.855 215.393 348.515 197.181 348.304 192.229C347.881 184.799 348.233 174.378 351.548 162.048C352.042 161.274 354.158 158.333 359.024 156.785C363.115 155.496 366.853 156.012 368.122 156.218Z" fill="#3D3D3D"/>
<path opacity="0.21" d="M386.954 254.447C397.886 255.686 404.233 256.975 409.17 257.698C429.201 260.793 445.422 259.4 451.135 258.884C456.989 258.42 461.785 257.698 465.1 257.182C469.12 258.368 475.115 259.864 482.591 260.483C492.183 261.257 499.024 260.226 499.236 261.103C499.447 261.928 493.594 264.095 487.387 264.611C477.936 265.385 470.248 262.031 466.793 260.277C462.42 261.154 456.143 262.289 448.455 262.96C407.619 266.623 371.72 254.241 372.143 253.106C372.213 252.745 377.15 253.312 386.954 254.447Z" fill="#3D3D3D"/>
<path d="M505.09 254.551C498.46 252.487 491.266 252.074 484.284 253.261C482.944 253.467 482.379 251.971 483.719 251.765C491.337 250.475 498.954 250.939 506.148 253.209C507.417 253.622 506.289 254.963 505.09 254.551V254.551Z" fill="#161616"/>
<path d="M508.828 249.598C500.999 247.534 492.818 246.863 484.566 247.637C483.226 247.74 483.226 246.193 484.566 246.089C492.959 245.316 501.422 245.986 509.392 248.102C510.662 248.463 510.097 249.959 508.828 249.598V249.598Z" fill="#161616"/>
<path d="M506.853 244.335C499.095 242.685 491.196 242.065 483.155 242.478C481.815 242.53 481.815 240.982 483.155 240.93C491.337 240.518 499.518 241.188 507.417 242.839C508.757 243.097 508.193 244.593 506.853 244.335V244.335Z" fill="#161616"/>
<path d="M469.543 74.9102C489.221 86.5698 488.445 110.302 480.687 125.624C475.82 135.323 467.921 141.979 462.843 145.642C461.573 149.563 460.374 153.535 459.105 157.456C452.898 158.436 444.717 159.21 435.196 158.591C413.755 157.146 398.662 149.511 391.961 145.538C396.687 136.974 401.412 128.41 406.138 119.795C406.772 116.647 407.689 111.798 408.818 105.916C411.709 90.4907 411.568 89.6653 412.838 87.1889C413.402 86.1571 421.372 71.402 440.062 68.7709C455.226 66.6556 467.709 73.7752 469.543 74.9102Z" fill="white" stroke="#161616" stroke-width="3"/>
<path d="M485.765 114.377C486.893 117.628 488.092 122.684 487.246 128.823C486.682 132.899 485.765 139.967 478.782 146.777C471.236 154.154 461.009 156.94 456.707 157.972C457.06 157.146 457.412 156.115 457.624 154.928C457.835 153.638 457.765 152.503 457.624 151.626C452.969 153.432 448.314 155.289 443.73 157.095C432.022 149.253 428.143 142.133 426.803 136.923C425.745 132.847 425.11 125.366 422.571 111.746C422.148 109.321 421.231 104.936 417.422 103.853C415.659 103.337 413.261 103.543 411.639 104.524C406.984 107.361 411.709 115.461 410.722 115.719C409.735 115.925 401.624 107.774 404.374 98.3842C405.785 93.5346 409.664 90.1812 411.921 88.5303C416.999 94.3601 422.641 100.345 428.848 106.484C432.798 110.405 436.747 114.119 440.626 117.679C442.107 118.247 444.294 118.917 446.833 118.763C448.808 118.659 449.513 118.144 450.994 117.834C456.495 116.699 459.458 121.394 464.818 120.775C469.261 120.259 469.684 116.802 474.551 116.699C476.878 116.647 477.866 117.421 480.264 117.06C482.803 116.647 484.566 115.409 485.765 114.377Z" fill="#161616" stroke="#161616" stroke-width="3"/>
<path d="M463.055 100.603C464.747 106.226 465.805 111.901 466.228 117.628C466.299 118.247 465.311 118.556 464.606 118.298C461.856 117.267 459.105 116.235 456.284 115.203C455.085 114.739 456.143 113.397 457.342 113.862C460.092 114.893 462.843 115.925 465.664 116.957C465.1 117.163 464.606 117.421 464.042 117.628C463.548 112.004 462.561 106.484 460.939 101.015C460.727 100.035 462.772 99.6225 463.055 100.603V100.603Z" fill="#161616"/>
<path d="M474.128 103.75C473.352 104.627 473.211 105.968 473.846 106.226C474.621 106.536 476.808 105.349 477.09 104.008C477.16 103.595 477.09 102.873 476.596 102.666C475.891 102.408 474.692 103.079 474.128 103.75Z" fill="#161616" stroke="#161616" stroke-width="3"/>
<path d="M477.795 98.4359C475.327 97.5072 472.365 97.662 470.108 98.9518C469.05 99.5709 467.569 98.4875 468.626 97.8684C471.589 96.1143 475.468 95.8047 478.853 97.0945C480.052 97.5588 478.994 98.9002 477.795 98.4359V98.4359Z" fill="#161616"/>
<path d="M453.181 99.2097C449.654 97.5072 444.858 98.0747 442.46 100.654C441.684 101.48 439.851 100.706 440.626 99.8804C443.659 96.6817 449.725 95.7015 454.239 97.8683C455.367 98.4358 454.309 99.7772 453.181 99.2097V99.2097Z" fill="#161616"/>
<path d="M501.281 89.3557C473.14 90.5423 444.999 92.2964 416.999 94.5148C412.909 94.8244 412.979 90.1812 416.999 89.8716C444.999 87.6532 473.14 85.8991 501.281 84.7125C505.372 84.5578 505.372 89.201 501.281 89.3557V89.3557Z" fill="#161616"/>
<path d="M483.014 86.2087C482.591 83.0617 480.828 74.9618 472.223 68.4098C461.009 59.8456 440.344 56.2343 424.264 63.5086C411.639 69.2352 404.939 80.2757 407.196 91.5226C432.516 89.7685 457.765 87.9628 483.014 86.2087Z" fill="#5222D0"/>
<path opacity="0.69" d="M447.468 61.2387C450.782 63.2508 450.782 67.4297 449.583 71.9181C448.314 76.8192 445.07 82.8038 440.133 88.8916C429.201 89.8202 418.198 90.7488 407.266 91.6775C406.772 89.975 406.349 87.447 406.772 84.4031C406.772 84.4031 407.478 78.8829 411.498 73.8785C419.538 63.973 440.556 57.0082 447.468 61.2387Z" fill="#3A1DA3"/>
<path opacity="0.24" d="M413.12 118.144C415.589 119.124 418.057 118.866 418.903 118.763C417.846 120.259 415.659 123.458 414.108 127.946C412.697 132.176 410.652 137.955 413.332 144.61C415.73 150.543 420.808 154.464 424.264 156.631C420.032 156.063 414.46 154.98 408.324 152.761C401.201 150.182 396.123 147.086 392.808 144.713C398.027 133.931 403.176 123.148 408.395 112.365C408.395 112.572 408.677 116.441 413.12 118.144Z" fill="#3D3D3D"/>
<path opacity="0.19" d="M437.805 92.7607C437.029 95.2371 436.324 98.9517 437.17 103.337C438.581 110.714 443.448 115.822 446.057 118.144C444.505 117.782 442.954 117.421 441.402 117.06C438.299 114.326 435.196 111.437 432.092 108.444C427.014 103.543 422.289 98.7453 418.057 94.0505C424.616 93.6894 431.246 93.2251 437.805 92.7607Z" fill="#3D3D3D"/>
<path d="M447.397 104.214C446.621 105.091 446.48 106.432 447.115 106.69C447.891 107 450.077 105.813 450.359 104.472C450.43 104.059 450.359 103.337 449.866 103.131C449.16 102.873 448.032 103.543 447.397 104.214Z" fill="#161616" stroke="#161616" stroke-width="3"/>
<ellipse cx="12.7657" cy="9.33799" rx="12.7657" ry="9.33799" transform="matrix(-1 0 0 1 491.055 98.4358)" stroke="#161616" stroke-width="2"/>
<ellipse cx="12.7657" cy="9.33799" rx="12.7657" ry="9.33799" transform="matrix(-1 0 0 1 461.362 98.4358)" stroke="#161616" stroke-width="2"/>
<path d="M464.042 108.083C463.76 107.825 463.196 107.722 462.843 107.929C462.42 108.186 461.785 108.238 461.362 107.929C461.009 107.671 460.939 107.103 461.362 106.845C462.561 106.071 464.465 106.071 465.523 107C465.876 107.309 465.946 107.774 465.523 108.083C465.171 108.393 464.395 108.393 464.042 108.083V108.083Z" fill="#161616"/>
<path d="M489.997 108.393C488.657 107.877 487.317 107.309 486.047 106.69C484.919 106.174 485.977 104.833 487.105 105.349C488.375 105.968 489.715 106.536 491.055 107.051C492.324 107.516 491.196 108.857 489.997 108.393V108.393Z" fill="#161616"/>
<path d="M435.055 108.238C429.201 107.155 423.276 106.123 417.422 105.04C416.082 104.782 416.646 103.285 417.987 103.543C423.84 104.627 429.765 105.659 435.619 106.742C436.959 107 436.395 108.496 435.055 108.238V108.238Z" fill="#161616"/>
</svg>
