<svg width="84" height="65" viewBox="0 0 84 65" fill="none" xmlns="http://www.w3.org/2000/svg">
<path d="M2.10158 22.4892L39.9001 39.0676C40.5385 39.3474 41.2628 39.4947 42 39.4947C42.7372 39.4947 43.4615 39.3474 44.0999 39.0676L81.8984 22.4892C82.5332 22.211 83.061 21.8116 83.4294 21.3306C83.7978 20.8496 83.9939 20.3037 83.9983 19.7474C84.0013 19.1856 83.8086 18.6332 83.4398 18.1461C83.0711 17.659 82.5393 17.2546 81.8984 16.9737L44.0999 0.427132C43.4615 0.147313 42.7372 0 42 0C41.2628 0 40.5385 0.147313 39.9001 0.427132L2.10158 16.9737C1.46067 17.2546 0.928912 17.659 0.560152 18.1461C0.191393 18.6332 -0.00127195 19.1856 0.00166612 19.7474C0.0060901 20.3037 0.202246 20.8496 0.570637 21.3306C0.939029 21.8116 1.46683 22.211 2.10158 22.4892ZM42 6.99474L71.3988 19.7474L42 32.5L12.6012 19.7474L42 6.99474ZM77.6986 29.8538L42 45.2526L6.30142 29.7263C5.82207 29.5155 5.29253 29.3788 4.74328 29.324C4.19403 29.2692 3.63594 29.2975 3.10113 29.4071C2.56632 29.5167 2.06537 29.7056 1.62713 29.9629C1.18889 30.2201 0.82202 30.5406 0.547645 30.9059C0.000102197 31.638 -0.14381 32.5047 0.147309 33.317C0.438428 34.1293 1.14095 34.8212 2.10158 35.2418L39.9001 51.8202C40.5385 52.1001 41.2628 52.2474 42 52.2474C42.7372 52.2474 43.4615 52.1001 44.0999 51.8202L81.8984 35.2418C82.8591 34.8212 83.5616 34.1293 83.8527 33.317C84.1438 32.5047 83.9999 31.638 83.4524 30.9059C83.178 30.5406 82.8111 30.2201 82.3729 29.9629C81.9346 29.7056 81.4337 29.5167 80.8989 29.4071C80.3641 29.2975 79.806 29.2692 79.2567 29.324C78.7075 29.3788 78.1779 29.5155 77.6986 29.7263V29.8538ZM77.6986 42.6065L42 58.0053L6.30142 42.4789C5.82207 42.2681 5.29253 42.1314 4.74328 42.0766C4.19403 42.0218 3.63594 42.0501 3.10113 42.1597C2.56632 42.2694 2.06537 42.4583 1.62713 42.7155C1.18889 42.9727 0.82202 43.2932 0.547645 43.6585C0.000102197 44.3906 -0.14381 45.2573 0.147309 46.0696C0.438428 46.8819 1.14095 47.5739 2.10158 47.9944L39.9001 64.5729C40.5385 64.8527 41.2628 65 42 65C42.7372 65 43.4615 64.8527 44.0999 64.5729L81.8984 47.9944C82.8591 47.5739 83.5616 46.8819 83.8527 46.0696C84.1438 45.2573 83.9999 44.3906 83.4524 43.6585C83.178 43.2932 82.8111 42.9727 82.3729 42.7155C81.9346 42.4583 81.4337 42.2694 80.8989 42.1597C80.3641 42.0501 79.806 42.0218 79.2567 42.0766C78.7075 42.1314 78.1779 42.2681 77.6986 42.4789V42.6065Z" fill="white"/>
</svg>
