<svg width="1920" height="244" viewBox="0 0 1920 244" fill="none" xmlns="http://www.w3.org/2000/svg">
<rect width="1920" height="243.947" fill="#080315"/>
<path d="M221.461 56.6004L0 84.6628V244H1920V56.6004L1730 9.47199L1606.67 -7.90457e-05L1485.13 56.6004L1214.68 105.115L806.667 27.3676L654 48.089L457.686 125.092L221.461 56.6004Z" fill="#5222D0"/>
<path d="M173.333 80.7873L0 144.103V244H1920V80.7874L1820.67 31.5422L1736.67 80.7873L1563.33 52.7983L1449.33 104.602L1288 80.7873L1092 104.602L970.667 80.7873L782.42 144.103L543.421 80.7873L332.667 144.103L173.333 80.7873Z" fill="#3C096C"/>
<path d="M247.742 120.905L0 187.835V244H1920V137.286L1600.33 97.0347L1190.09 156.944L836.462 120.905L498.148 156.944L247.742 120.905Z" fill="#10012C"/>
</svg>
