<svg width="1920" height="244" viewBox="0 0 1920 244" fill="none" xmlns="http://www.w3.org/2000/svg">
<rect width="1920" height="244" fill="#720E9E"/>
<path d="M372.042 0L0 104.37V244H1920V61.1175L1633.66 175.83L1165.95 19.2755L771.322 130.697L372.042 0Z" fill="#5A189A"/>
<path d="M277.631 104.849L0 144.746V244H1920V82.9551L1843.07 104.849L1587.51 70.3051L1366.75 104.849L1113.87 82.9551L900.46 158.855L709.129 122.851L468.962 168.1L277.631 104.849Z" fill="#800080"/>
<path d="M256.798 149.389L0 186.647V244H1920V149.389L1670.52 107.525L1401.75 161.948L1048.48 107.525L870.852 217.626L634.012 161.948L419.127 217.626L256.798 149.389Z" fill="#1D1160"/>
</svg>
