<svg xmlns="http://www.w3.org/2000/svg" width="1920" height="253" fill="none" viewBox="0 0 1920 253">
  <path fill="#5A189A" d="M0 0h1920v244H0z"/>
  <path fill="#3C096C" d="M0 98.806V253h1920V92.028l-22.01-32.195-28.01-20.333-52.02-10.167L1769.95 9l-74.03 11.861-86.03 27.111-102.03-8.472-76.03 20.333-124.04-38.972-110.71 27.111-120.04 27.111-130.044-15.25-86.03-30.5L748.927 9 630.886 47.972 524.182 59.833l-108.037 15.25-96.034-27.11L204.071 9 84.029 47.972 0 98.806Z"/>
  <path fill="#240046" d="M70.097 134.154 0 155.319V253h1920v-97.681l-18.03-21.165-44.06-27.676-68.09-14.652-90.13 42.328-78.1 21.165-68.1-48.841-82.11-14.652-118.17 73.261-76.77-9.768-84.12-29.305h-54.07l-76.11 29.305-134.184 9.768-92.128-30.933-56.078-16.28-72.101 16.28-140.862 55.353-56.078-24.42-80.111-39.073-110.153 29.305-94.131 24.42L120.167 75.545l-50.07 58.609Z"/>
</svg>
