<svg width="68" height="68" viewBox="0 0 68 68" fill="none" xmlns="http://www.w3.org/2000/svg">
<path d="M22.0999 46.75C21.846 46.75 21.5921 46.7965 21.3498 46.8948C19.9728 47.4539 18.5246 47.8125 16.9999 47.8125C15.4752 47.8125 14.0271 47.4539 12.649 46.8948C12.4067 46.7965 12.1539 46.75 11.8999 46.75C5.30605 46.75 -0.035135 53.4544 -7.2496e-05 61.7073C0.0148025 65.195 2.30874 68 5.09993 68H28.8999C31.6911 68 33.9851 65.195 33.9999 61.7073C34.035 53.4544 28.6938 46.75 22.0999 46.75ZM16.9999 42.5C22.6333 42.5 27.1999 36.7917 27.1999 29.75C27.1999 22.7083 22.6333 17 16.9999 17C11.3666 17 6.79993 22.7083 6.79993 29.75C6.79993 36.7917 11.3666 42.5 16.9999 42.5ZM62.8999 0H22.0999C19.2875 0 16.9999 2.95508 16.9999 6.58617V10.2816C16.9999 11.6449 18.1199 12.7231 19.4451 13.0431C19.5972 13.0798 19.7484 13.1198 19.8986 13.1631C21.6509 13.6673 23.7999 12.5532 23.7999 10.7298C23.7999 9.4983 24.7982 8.5 26.0297 8.5H42.4999C52.8277 8.5 61.1999 16.8723 61.1999 27.2V43.35C61.1999 45.2278 59.6777 46.75 57.7999 46.75C55.9222 46.75 54.3999 45.2278 54.3999 43.35V42.5C54.3999 40.1528 52.4971 38.25 50.1499 38.25H45.0499C42.7027 38.25 40.7999 40.1528 40.7999 42.5V44.2738C40.7999 45.6414 39.6913 46.75 38.3237 46.75C36.1699 46.75 34.8646 49.4866 35.7219 51.4625C35.9118 51.9002 36.0868 52.3497 36.2458 52.8101C36.7276 54.2041 37.9737 55.25 39.4486 55.25H62.8999C65.7124 55.25 67.9999 52.2949 67.9999 48.6638V6.58617C67.9999 2.95508 65.7124 0 62.8999 0Z" fill="white"/>
</svg>
