<svg width="869" height="509" viewBox="0 0 869 509" fill="none" xmlns="http://www.w3.org/2000/svg">
<g clip-path="url(#clip0_4024_4741)">
<path d="M248.029 437.556C219.878 432.887 197.845 424.361 183.565 411.112C169.288 397.864 162.773 379.893 164.987 368.951C167.202 358.009 178.149 354.096 186.15 355.254C194.145 356.411 199.197 362.639 200.718 368.683C202.243 374.727 200.237 380.585 195.098 385.355C189.962 390.123 181.69 393.801 170.173 392.985C158.657 392.17 143.892 386.859 130.256 371.709C116.62 356.56 104.109 331.572 107.142 304.51C110.176 277.445 124.37 252.037 150.324 228.249C176.276 204.463 226.801 189.577 268.068 177.935C341.767 157.139 458.652 111.933 353.624 43.6505" stroke="white" stroke-width="2.83495" stroke-dasharray="11.34 22.68"/>
<path d="M696.269 435.317L729.677 435.138L729.705 286.498L696.296 287.043L696.269 435.317Z" fill="#AACCFF"/>
<path d="M714.792 306.108C713.295 306.07 711.737 306.274 710.203 306.746C704.165 308.596 700.48 313.84 701.893 318.669C701.899 318.752 701.913 318.834 701.94 318.914C703.556 323.809 710.054 326.216 716.192 324.333C722.334 322.449 726.074 317.061 724.458 312.162C723.246 308.492 719.289 306.223 714.792 306.108ZM714.604 308.496C717.943 308.541 720.739 310.201 721.624 312.877C722.802 316.448 719.993 320.623 715.264 322.072C710.531 323.524 705.951 321.771 704.773 318.201C703.595 314.631 706.406 310.454 711.137 309.005C712.319 308.641 713.493 308.479 714.604 308.496Z" fill="white"/>
<path d="M720.907 394.627C721.54 394.361 722.099 393.713 722.24 393.088C722.379 392.461 722.058 392.033 721.477 392.067L705.561 392.785C705.131 392.793 704.622 393.064 704.231 393.493C703.841 393.922 703.632 394.442 703.686 394.851C703.737 395.26 704.043 395.494 704.484 395.463L720.396 394.746C720.558 394.741 720.729 394.699 720.904 394.625" fill="white"/>
<path d="M720.927 387.973C721.14 387.884 721.324 387.668 721.372 387.46C721.415 387.251 721.311 387.109 721.117 387.12L705.204 387.836C705.06 387.836 704.888 387.926 704.753 388.069C704.622 388.214 704.551 388.39 704.572 388.527C704.592 388.665 704.696 388.742 704.844 388.728L720.756 388.012C720.81 388.011 720.867 387.997 720.927 387.973Z" fill="white"/>
<path d="M720.927 385.816C721.14 385.727 721.324 385.512 721.371 385.303C721.419 385.095 721.311 384.952 721.116 384.963L705.204 385.679C705.06 385.681 704.891 385.77 704.76 385.914C704.628 386.057 704.557 386.232 704.575 386.369C704.596 386.505 704.695 386.584 704.848 386.572L720.759 385.855C720.81 385.854 720.867 385.841 720.927 385.816Z" fill="white"/>
<path d="M720.927 383.66C721.14 383.57 721.324 383.355 721.372 383.146C721.419 382.938 721.311 382.794 721.116 382.807L705.204 383.521C705.06 383.523 704.887 383.612 704.756 383.757C704.626 383.901 704.555 384.075 704.575 384.213C704.592 384.35 704.695 384.427 704.848 384.414L720.759 383.699C720.813 383.697 720.871 383.684 720.927 383.66Z" fill="white"/>
<path d="M720.975 374.105C721.177 374.002 721.345 373.788 721.378 373.591C721.412 373.393 721.305 373.262 721.119 373.274L705.208 373.989C705.062 373.987 704.888 374.077 704.756 374.222C704.622 374.367 704.551 374.543 704.572 374.681C704.592 374.819 704.696 374.896 704.848 374.881L720.759 374.165C720.826 374.163 720.901 374.143 720.975 374.107" fill="white"/>
<path d="M720.975 371.948C721.177 371.846 721.345 371.632 721.378 371.434C721.412 371.236 721.309 371.105 721.119 371.116L705.208 371.832C705.062 371.832 704.891 371.923 704.76 372.066C704.629 372.21 704.558 372.384 704.579 372.523C704.596 372.659 704.7 372.736 704.848 372.724L720.759 372.008C720.826 372.007 720.901 371.986 720.975 371.948Z" fill="white"/>
<path d="M720.974 369.792C721.177 369.689 721.345 369.475 721.378 369.277C721.412 369.08 721.308 368.948 721.119 368.959L705.208 369.675C705.062 369.675 704.891 369.765 704.756 369.91C704.626 370.053 704.555 370.229 704.575 370.367C704.592 370.504 704.699 370.581 704.848 370.568L720.759 369.853C720.826 369.85 720.901 369.83 720.974 369.792Z" fill="white"/>
<path d="M773.978 436.195L805.659 425.276L760.592 284.072L729.021 295.337L773.978 436.195Z" fill="#F5D479"/>
<path d="M752.377 307.494C750.944 307.941 749.524 308.638 748.211 309.578C743.035 313.279 741.124 319.445 743.933 323.58C743.963 323.656 744.002 323.729 744.052 323.795C747.07 327.926 753.973 328.122 759.237 324.356C764.497 320.592 766.415 314.266 763.396 310.138C761.131 307.041 756.679 306.157 752.377 307.498V307.494ZM752.923 309.823C756.107 308.794 759.267 309.47 760.92 311.729C763.12 314.742 761.72 319.612 757.664 322.513C753.613 325.41 748.729 325.219 746.528 322.207C744.324 319.196 745.728 314.322 749.783 311.425C750.796 310.698 751.859 310.167 752.923 309.823Z" fill="white"/>
<path d="M785.039 389.617C785.561 389.159 785.895 388.364 785.837 387.724C785.779 387.085 785.345 386.782 784.804 387.002L769.901 392.804C769.495 392.95 769.094 393.371 768.852 393.904C768.613 394.438 768.572 394.998 768.747 395.371C768.919 395.742 769.282 395.865 769.693 395.693L784.592 389.894C784.739 389.837 784.892 389.741 785.036 389.614" fill="white"/>
<path d="M783.041 383.289C783.212 383.137 783.323 382.872 783.302 382.659C783.286 382.446 783.141 382.345 782.959 382.418L768.06 388.218C767.922 388.263 767.784 388.403 767.704 388.584C767.62 388.764 767.606 388.955 767.667 389.079C767.728 389.205 767.851 389.243 767.989 389.181L782.888 383.381C782.939 383.362 782.989 383.33 783.041 383.289Z" fill="white"/>
<path d="M782.383 381.24C782.559 381.087 782.67 380.823 782.65 380.611C782.629 380.398 782.488 380.297 782.307 380.37L767.407 386.168C767.269 386.216 767.135 386.356 767.055 386.535C766.973 386.714 766.96 386.902 767.017 387.027C767.078 387.151 767.199 387.192 767.337 387.132L782.236 381.332C782.286 381.313 782.337 381.282 782.383 381.24Z" fill="white"/>
<path d="M781.731 379.191C781.906 379.039 782.017 378.775 781.997 378.561C781.977 378.348 781.833 378.247 781.654 378.32L766.755 384.12C766.617 384.166 766.479 384.307 766.398 384.486C766.317 384.666 766.304 384.855 766.361 384.98C766.421 385.104 766.546 385.144 766.684 385.083L781.583 379.283C781.634 379.265 781.684 379.232 781.731 379.191Z" fill="white"/>
<path d="M778.877 370.1C779.039 369.937 779.132 369.681 779.106 369.482C779.076 369.283 778.934 369.192 778.763 369.264L763.864 375.064C763.726 375.108 763.588 375.248 763.504 375.429C763.422 375.609 763.409 375.8 763.467 375.925C763.528 376.051 763.651 376.089 763.793 376.025L778.692 370.226C778.756 370.203 778.817 370.16 778.877 370.1Z" fill="white"/>
<path d="M778.224 368.052C778.383 367.888 778.48 367.632 778.45 367.432C778.422 367.233 778.282 367.144 778.109 367.214L763.208 373.014C763.073 373.06 762.935 373.201 762.855 373.38C762.773 373.56 762.76 373.749 762.818 373.872C762.878 373.998 762.999 374.038 763.137 373.977L778.036 368.178C778.1 368.154 778.163 368.11 778.224 368.051" fill="white"/>
<path d="M777.568 366.002C777.73 365.838 777.824 365.583 777.797 365.384C777.77 365.185 777.628 365.095 777.453 365.166L762.555 370.966C762.417 371.01 762.279 371.151 762.199 371.331C762.117 371.511 762.104 371.702 762.16 371.827C762.221 371.951 762.346 371.99 762.484 371.928L777.383 366.128C777.447 366.105 777.511 366.062 777.568 366.002Z" fill="white"/>
<path d="M869.242 508.521L869.061 471.744L717.266 471.714L717.825 508.491L869.242 508.521Z" fill="#AACCFF"/>
<path d="M737.294 488.128C737.254 489.777 737.463 491.492 737.944 493.182C739.834 499.829 745.186 503.888 750.12 502.33C750.204 502.324 750.288 502.307 750.368 502.277C755.369 500.498 757.826 493.345 755.904 486.585C753.98 479.826 748.474 475.71 743.476 477.487C739.726 478.821 737.409 483.18 737.294 488.128ZM739.73 488.336C739.778 484.66 741.471 481.583 744.207 480.609C747.851 479.312 752.115 482.403 753.596 487.612C755.077 492.82 753.287 497.861 749.641 499.158C745.993 500.455 741.732 497.361 740.248 492.154C739.879 490.852 739.713 489.561 739.73 488.336Z" fill="white"/>
<path d="M833.583 481.399C833.309 480.7 832.651 480.084 832.01 479.931C831.372 479.778 830.934 480.132 830.968 480.772L831.701 498.291C831.708 498.768 831.984 499.33 832.425 499.76C832.862 500.191 833.393 500.421 833.811 500.363C834.232 500.303 834.471 499.963 834.433 499.476L833.704 481.959C833.7 481.783 833.656 481.592 833.579 481.399" fill="white"/>
<path d="M826.787 481.376C826.697 481.143 826.478 480.938 826.263 480.887C826.05 480.837 825.905 480.955 825.916 481.169L826.647 498.686C826.647 498.845 826.737 499.034 826.885 499.181C827.033 499.325 827.212 499.404 827.353 499.382C827.495 499.362 827.572 499.246 827.558 499.08L826.828 481.563C826.828 481.504 826.815 481.441 826.791 481.376" fill="white"/>
<path d="M824.587 481.376C824.496 481.143 824.274 480.937 824.061 480.886C823.847 480.836 823.702 480.953 823.715 481.169L824.445 498.685C824.445 498.843 824.539 499.032 824.684 499.177C824.833 499.32 825.01 499.397 825.148 499.378C825.29 499.358 825.368 499.244 825.357 499.08L824.628 481.563C824.624 481.504 824.61 481.441 824.587 481.376Z" fill="white"/>
<path d="M822.382 481.374C822.291 481.143 822.073 480.937 821.858 480.886C821.645 480.836 821.5 480.953 821.511 481.167L822.241 498.685C822.244 498.843 822.335 499.033 822.479 499.177C822.628 499.321 822.807 499.4 822.947 499.38C823.089 499.359 823.167 499.244 823.153 499.079L822.423 481.561C822.423 481.503 822.41 481.439 822.386 481.374" fill="white"/>
<path d="M812.626 481.324C812.521 481.101 812.303 480.915 812.1 480.879C811.899 480.841 811.764 480.959 811.774 481.166L812.508 498.682C812.504 498.842 812.596 499.033 812.743 499.179C812.892 499.325 813.073 499.403 813.211 499.381C813.353 499.361 813.433 499.244 813.416 499.078L812.687 481.56C812.687 481.487 812.663 481.406 812.626 481.324Z" fill="white"/>
<path d="M810.424 481.323C810.316 481.1 810.098 480.916 809.896 480.878C809.695 480.84 809.559 480.959 809.574 481.165L810.303 498.682C810.303 498.841 810.394 499.03 810.543 499.175C810.691 499.32 810.869 499.397 811.011 499.377C811.149 499.357 811.229 499.242 811.216 499.078L810.485 481.56C810.482 481.487 810.462 481.404 810.424 481.323Z" fill="white"/>
<path d="M808.221 481.323C808.116 481.1 807.898 480.916 807.695 480.878C807.494 480.84 807.359 480.959 807.369 481.165L808.103 498.682C808.099 498.841 808.193 499.03 808.338 499.177C808.487 499.321 808.668 499.4 808.806 499.38C808.948 499.358 809.024 499.242 809.011 499.076L808.282 481.56C808.282 481.485 808.258 481.404 808.221 481.323Z" fill="white"/>
<path d="M717.926 508.602L717.963 471.826L566.171 471.796L566.505 508.574L717.926 508.602Z" fill="#F5D479"/>
<path d="M586.225 489.001C586.141 490.65 586.296 492.365 586.73 494.055C588.434 500.709 593.677 504.772 598.658 503.202C598.738 503.195 598.82 503.179 598.897 503.152C603.948 501.378 606.61 494.219 604.88 487.459C603.151 480.699 597.767 476.584 592.714 478.362C588.924 479.693 586.482 484.054 586.225 489.001ZM588.656 489.209C588.81 485.534 590.591 482.455 593.353 481.483C597.04 480.188 601.212 483.278 602.545 488.486C603.877 493.695 601.939 498.734 598.257 500.031C594.572 501.325 590.399 498.234 589.066 493.027C588.732 491.725 588.605 490.435 588.656 489.209Z" fill="white"/>
<path d="M682.208 481.481C681.955 480.784 681.314 480.168 680.677 480.015C680.041 479.861 679.593 480.216 679.61 480.856L679.839 498.372C679.836 498.848 680.098 499.405 680.522 499.832C680.946 500.258 681.467 500.487 681.888 500.43C682.306 500.373 682.555 500.04 682.541 499.558L682.313 482.041C682.313 481.865 682.276 481.675 682.208 481.481Z" fill="white"/>
<path d="M675.393 481.41C675.295 481.186 675.084 481.001 674.881 480.963C674.68 480.924 674.542 481.043 674.549 481.249L674.773 498.766C674.771 498.925 674.858 499.114 674.999 499.258C675.14 499.403 675.319 499.481 675.461 499.461C675.599 499.441 675.683 499.326 675.673 499.162L675.446 481.644C675.446 481.571 675.427 481.491 675.393 481.411" fill="white"/>
<path d="M673.192 481.41C673.091 481.186 672.879 481.001 672.678 480.963C672.475 480.924 672.337 481.043 672.344 481.249L672.573 498.766C672.566 498.925 672.65 499.116 672.795 499.262C672.939 499.408 673.118 499.487 673.259 499.465C673.401 499.443 673.481 499.327 673.472 499.16L673.246 481.644C673.243 481.571 673.226 481.491 673.189 481.41" fill="white"/>
<path d="M670.987 481.41C670.89 481.185 670.678 481.001 670.476 480.964C670.275 480.926 670.137 481.044 670.143 481.25L670.368 498.768C670.365 498.926 670.452 499.116 670.594 499.262C670.739 499.407 670.914 499.484 671.056 499.464C671.196 499.443 671.28 499.328 671.27 499.163L671.041 481.645C671.041 481.572 671.025 481.492 670.987 481.412" fill="white"/>
<path d="M661.255 481.407C661.154 481.183 660.942 480.998 660.74 480.96C660.539 480.921 660.401 481.04 660.407 481.247L660.636 498.764C660.629 498.923 660.716 499.112 660.858 499.258C661.003 499.403 661.178 499.48 661.32 499.459C661.46 499.439 661.542 499.324 661.534 499.159L661.305 481.641C661.305 481.568 661.289 481.488 661.251 481.408" fill="white"/>
<path d="M659.05 481.407C658.953 481.183 658.742 480.998 658.539 480.959C658.337 480.921 658.199 481.039 658.206 481.246L658.431 498.764C658.429 498.922 658.513 499.112 658.657 499.256C658.798 499.401 658.977 499.478 659.118 499.458C659.26 499.438 659.34 499.323 659.333 499.159L659.104 481.641C659.108 481.568 659.087 481.488 659.05 481.408" fill="white"/>
<path d="M656.85 481.406C656.749 481.182 656.537 480.997 656.334 480.959C656.133 480.919 655.995 481.039 656.002 481.244L656.231 498.762C656.227 498.921 656.315 499.107 656.455 499.251C656.6 499.393 656.772 499.469 656.914 499.45C657.055 499.431 657.135 499.319 657.128 499.158L656.904 481.64C656.904 481.567 656.883 481.487 656.85 481.407" fill="white"/>
<path d="M790.111 471.886L789.929 435.11L638.135 435.081L638.69 471.858L790.111 471.886Z" fill="#003380"/>
<path d="M658.162 451.493C658.122 453.142 658.33 454.857 658.811 456.547C660.703 463.195 666.054 467.253 670.987 465.697C671.071 465.69 671.156 465.672 671.237 465.644C676.238 463.865 678.695 456.711 676.77 449.952C674.848 443.192 669.343 439.075 664.344 440.854C660.595 442.188 658.276 446.546 658.162 451.493ZM660.599 451.701C660.646 448.026 662.338 444.948 665.075 443.975C668.72 442.678 672.984 445.77 674.464 450.977C675.945 456.186 674.154 461.226 670.51 462.523C666.862 463.82 662.601 460.726 661.117 455.519C660.746 454.217 660.582 452.927 660.599 451.701Z" fill="white"/>
<path d="M754.45 444.764C754.178 444.067 753.518 443.451 752.879 443.298C752.24 443.145 751.803 443.497 751.835 444.139L752.569 461.658C752.577 462.133 752.852 462.694 753.293 463.123C753.731 463.552 754.262 463.782 754.68 463.724C755.097 463.666 755.336 463.329 755.302 462.842L754.573 445.325C754.565 445.149 754.525 444.959 754.448 444.765" fill="white"/>
<path d="M747.656 444.742C747.566 444.51 747.343 444.304 747.13 444.254C746.919 444.202 746.771 444.32 746.785 444.534L747.514 462.052C747.514 462.212 747.605 462.401 747.754 462.546C747.902 462.692 748.08 462.769 748.222 462.749C748.362 462.727 748.44 462.612 748.427 462.447L747.697 444.929C747.693 444.871 747.683 444.807 747.656 444.742Z" fill="white"/>
<path d="M745.451 444.741C745.361 444.508 745.141 444.303 744.927 444.252C744.714 444.202 744.569 444.32 744.58 444.534L745.313 462.052C745.313 462.21 745.404 462.398 745.553 462.542C745.697 462.687 745.876 462.764 746.017 462.744C746.155 462.723 746.235 462.61 746.222 462.447L745.492 444.929C745.492 444.87 745.478 444.808 745.455 444.743" fill="white"/>
<path d="M743.251 444.741C743.16 444.508 742.938 444.302 742.725 444.252C742.513 444.201 742.365 444.319 742.379 444.533L743.109 462.05C743.109 462.209 743.204 462.398 743.348 462.543C743.497 462.688 743.674 462.765 743.816 462.745C743.954 462.725 744.035 462.61 744.021 462.444L743.29 444.928C743.29 444.868 743.277 444.806 743.251 444.74" fill="white"/>
<path d="M733.494 444.69C733.386 444.466 733.172 444.282 732.969 444.244C732.764 444.206 732.633 444.326 732.643 444.531L733.373 462.049C733.373 462.208 733.463 462.398 733.612 462.545C733.761 462.691 733.938 462.769 734.08 462.748C734.221 462.726 734.298 462.61 734.285 462.443L733.554 444.927C733.552 444.852 733.531 444.772 733.494 444.691" fill="white"/>
<path d="M731.29 444.69C731.185 444.466 730.967 444.282 730.764 444.243C730.563 444.205 730.428 444.324 730.441 444.53L731.172 462.048C731.172 462.208 731.263 462.396 731.411 462.541C731.558 462.685 731.737 462.763 731.875 462.742C732.016 462.722 732.094 462.607 732.084 462.443L731.351 444.925C731.351 444.852 731.327 444.771 731.29 444.69Z" fill="white"/>
<path d="M729.088 444.69C728.981 444.465 728.766 444.281 728.56 444.243C728.359 444.205 728.223 444.324 728.238 444.53L728.967 462.048C728.967 462.208 729.062 462.396 729.207 462.541C729.355 462.685 729.533 462.763 729.675 462.742C729.815 462.722 729.893 462.607 729.88 462.443L729.149 444.925C729.146 444.852 729.125 444.771 729.086 444.69" fill="white"/>
<path d="M662.89 435.317L696.299 435.138L696.327 286.498L662.918 287.043L662.89 435.317Z" fill="#DE8787"/>
<path d="M681.417 306.108C679.92 306.07 678.361 306.274 676.827 306.746C670.786 308.596 667.101 313.84 668.514 318.669C668.521 318.752 668.538 318.834 668.562 318.914C670.176 323.809 676.676 326.216 682.818 324.333C688.956 322.449 692.698 317.061 691.083 312.162C689.872 308.492 685.91 306.223 681.417 306.108ZM681.23 308.496C684.567 308.541 687.364 310.201 688.246 312.877C689.424 316.448 686.617 320.623 681.886 322.072C677.157 323.524 672.577 321.771 671.399 318.201C670.221 314.631 673.03 310.454 677.759 309.005C678.943 308.641 680.115 308.479 681.23 308.496Z" fill="white"/>
<path d="M687.529 394.627C688.165 394.361 688.724 393.713 688.862 393.088C689.003 392.461 688.679 392.033 688.097 392.067L672.182 392.785C671.752 392.793 671.244 393.064 670.853 393.493C670.467 393.922 670.258 394.44 670.308 394.851C670.361 395.258 670.668 395.492 671.11 395.463L687.02 394.746C687.179 394.741 687.354 394.699 687.529 394.625" fill="white"/>
<path d="M687.549 387.973C687.761 387.884 687.946 387.668 687.993 387.46C688.041 387.251 687.933 387.108 687.738 387.12L671.826 387.836C671.681 387.836 671.509 387.926 671.378 388.071C671.248 388.214 671.177 388.39 671.194 388.527C671.213 388.664 671.317 388.742 671.466 388.729L687.381 388.012C687.435 388.011 687.492 387.997 687.549 387.973Z" fill="white"/>
<path d="M687.549 385.816C687.761 385.727 687.95 385.512 687.993 385.303C688.041 385.095 687.933 384.951 687.738 384.963L671.826 385.68C671.681 385.681 671.509 385.77 671.378 385.914C671.25 386.057 671.179 386.232 671.196 386.369C671.217 386.505 671.317 386.584 671.466 386.572L687.381 385.856C687.434 385.854 687.492 385.842 687.549 385.816Z" fill="white"/>
<path d="M687.553 383.66C687.761 383.57 687.95 383.355 687.997 383.146C688.041 382.938 687.933 382.794 687.741 382.807L671.826 383.521C671.681 383.521 671.509 383.612 671.378 383.756C671.248 383.901 671.177 384.077 671.194 384.213C671.213 384.351 671.317 384.427 671.47 384.414L687.381 383.699C687.435 383.697 687.492 383.684 687.553 383.66Z" fill="white"/>
<path d="M687.596 374.105C687.801 374.002 687.967 373.788 688 373.591C688.037 373.393 687.929 373.262 687.741 373.274L671.829 373.989C671.684 373.987 671.509 374.077 671.378 374.222C671.244 374.367 671.173 374.544 671.194 374.681C671.213 374.819 671.317 374.896 671.47 374.881L687.385 374.165C687.448 374.163 687.523 374.143 687.596 374.107" fill="white"/>
<path d="M687.596 371.948C687.801 371.846 687.97 371.632 688.004 371.434C688.037 371.236 687.929 371.105 687.741 371.116L671.829 371.832C671.684 371.833 671.513 371.923 671.382 372.066C671.25 372.21 671.179 372.384 671.2 372.523C671.217 372.659 671.321 372.736 671.47 372.724L687.385 372.008C687.452 372.008 687.525 371.988 687.6 371.95" fill="white"/>
<path d="M687.6 369.792C687.801 369.689 687.97 369.475 688.004 369.277C688.037 369.078 687.929 368.947 687.741 368.959L671.829 369.675C671.684 369.675 671.513 369.765 671.382 369.91C671.248 370.053 671.177 370.229 671.196 370.366C671.217 370.504 671.321 370.581 671.472 370.568L687.385 369.853C687.452 369.85 687.525 369.83 687.596 369.792" fill="white"/>
<path d="M353.058 44.5656L339.539 35.4946L347.186 25.8523L352.217 28.009L353.058 44.5656Z" fill="#A02C2C"/>
<path d="M299.673 0L329.103 54.5126L366.123 15.9338L299.673 0Z" fill="#DE8787"/>
<path d="M338.59 22.6679L329.103 54.5125L366.123 15.9337L338.59 22.6679Z" fill="#D35F5F"/>
<path d="M299.673 0L357.198 23.7186L353.058 44.5656L349.588 33.0374L299.673 0Z" fill="#C83737"/>
<path d="M459.227 420.634C461.93 438.106 468.638 456.883 478.434 474.406C482.594 481.778 487.238 488.811 492.25 495.332H499.028C502.689 495.332 505.64 498.37 505.64 502.143C505.64 505.916 502.689 508.954 499.028 508.954H386.406C382.741 508.954 379.79 505.916 379.79 502.143C379.79 498.37 382.741 495.332 386.406 495.332H393.124C398.155 488.817 402.82 481.782 406.996 474.406C416.806 456.89 423.527 438.113 426.244 420.634H459.227Z" fill="#D5E5FF"/>
<path d="M249.224 133.398H628.832C642.674 133.398 653.817 145.806 653.817 161.218V413.906C653.817 429.318 642.674 441.726 628.832 441.726H249.224C235.385 441.726 224.242 429.318 224.242 413.906V161.218C224.242 145.806 235.385 133.398 249.224 133.398Z" fill="#A948D3"/>
<path d="M246.1 156.582H631.956V376.814H246.1V156.582Z" fill="#261487"/>
<path d="M419.176 280.484H542.509C544.148 280.484 545.464 281.673 545.464 283.153V356.935C545.464 358.412 544.148 359.602 542.509 359.602H419.176C417.537 359.602 416.217 358.412 416.217 356.935V283.153C416.217 281.673 417.537 280.484 419.176 280.484Z" fill="#D35F5F"/>
<path d="M417.244 306.33H544.44C545.009 306.33 545.464 306.743 545.464 307.255V332.832C545.464 333.344 545.009 333.757 544.44 333.757H417.244C416.674 333.757 416.217 333.344 416.217 332.832V307.255C416.217 306.743 416.674 306.33 417.244 306.33Z" fill="#F5D479"/>
<path d="M452.911 234.47H336.88C335.338 234.47 334.097 235.563 334.097 236.918V304.604C334.097 305.959 335.338 307.05 336.88 307.05H452.911C454.451 307.05 455.694 305.959 455.694 304.604V236.918C455.694 235.563 454.451 234.47 452.911 234.47Z" fill="#5599FF"/>
<path d="M452.911 234.47H336.88C335.338 234.47 334.097 235.563 334.097 236.918V304.604C334.097 305.959 335.338 307.05 336.88 307.05H452.911C454.451 307.05 455.694 305.959 455.694 304.604V236.918C455.694 235.563 454.451 234.47 452.911 234.47Z" stroke="#80B3FF" stroke-width="12.5863" stroke-linecap="round" stroke-linejoin="round"/>
<path d="M456.371 233.841V245.735L333.767 308.86C333.579 308.957 333.323 308.909 333.192 308.756L332.098 307.467V297.821L456.371 233.841Z" fill="#ECECEC"/>
<path d="M332.616 231.522C332.663 231.528 332.714 231.542 332.76 231.566L456.371 296.282V308.23L332.098 243.166V232.093L332.273 231.715C332.333 231.58 332.471 231.508 332.616 231.522Z" fill="#ECECEC"/>
<path d="M404.705 234.439C405.135 234.439 405.482 234.752 405.482 235.14V260.929H454.812C455.195 260.929 455.508 261.211 455.508 261.557V278.834C455.508 279.181 455.195 279.458 454.812 279.458H405.482V306.479C405.482 306.867 405.135 307.179 404.705 307.179H383.138C382.704 307.179 382.357 306.867 382.357 306.479V279.458H334.013C333.629 279.458 333.319 279.181 333.319 278.834V261.557C333.319 261.211 333.629 260.929 334.013 260.929H382.357V235.14C382.357 234.752 382.704 234.439 383.138 234.439H404.705Z" fill="#D35F5F"/>
<path d="M404.705 234.439C405.135 234.439 405.482 234.752 405.482 235.14V260.929H454.812C455.195 260.929 455.508 261.211 455.508 261.557V278.834C455.508 279.181 455.195 279.458 454.812 279.458H405.482V306.479C405.482 306.868 405.135 307.179 404.705 307.179H383.138C382.704 307.179 382.357 306.868 382.357 306.479V279.458H334.013C333.629 279.458 333.319 279.181 333.319 278.834V261.557C333.319 261.211 333.629 260.929 334.013 260.929H382.357V235.14C382.357 234.752 382.704 234.439 383.138 234.439H404.705Z" stroke="#ECECEC" stroke-width="12.0846" stroke-linecap="round" stroke-linejoin="round"/>
<path d="M505.176 173.227H543.398C545.044 173.227 546.366 174.329 546.366 175.702V244.21C546.366 245.583 545.044 246.688 543.398 246.688H505.176C503.53 246.688 502.208 245.583 502.208 244.21V175.702C502.208 174.329 503.53 173.227 505.176 173.227Z" fill="#D35F5F"/>
<path d="M461.018 173.227H499.239C500.885 173.227 502.208 174.329 502.208 175.702V244.21C502.208 245.583 500.885 246.688 499.239 246.688H461.018C459.372 246.688 458.05 245.583 458.05 244.21V175.702C458.05 174.329 459.372 173.227 461.018 173.227Z" fill="#E6E6E6"/>
<path d="M416.86 173.227H455.081C456.727 173.227 458.05 174.329 458.05 175.702V244.21C458.05 245.583 456.727 246.688 455.081 246.688H416.86C415.214 246.688 413.891 245.583 413.891 244.21V175.702C413.891 174.329 415.214 173.227 416.86 173.227Z" fill="#003380"/>
<path d="M625.1 108.425C641.524 117.939 657.357 129.563 668.148 146.107C671.806 151.265 674.562 157.444 674.145 164.278C674.091 168.146 673.024 172.052 671.14 175.449L663.395 191.406V191.399C661.525 195.289 658.623 198.626 654.951 200.677C645.821 206.296 635.132 205.832 625.605 204.272C596.79 199.881 570.798 185.431 547.896 167.664C537.027 158.581 526.668 147.462 522.791 132.614C521.932 127.47 523.05 121.796 525.648 117.062L533.739 100.294L533.796 100.325C536.199 95.7436 539.968 91.9798 544.679 90.3335C556.54 85.0303 569.2 87.6054 580.847 90.0316C595.225 93.4867 608.781 99.5561 621.808 106.55C622.909 107.168 624.007 107.79 625.1 108.425Z" fill="#003380"/>
<path d="M621.752 105.393C638.609 114.84 655.157 126.358 666.26 143.136C669.783 148.041 672.456 153.912 672.098 160.383C672.042 167.669 668.157 175.076 661.878 178.524C653.185 183.785 642.97 183.279 633.857 181.743C606.301 177.4 581.38 163.558 559.39 146.593C548.953 137.924 538.988 127.328 535.196 113.247C533.556 103.857 538.911 92.6352 547.958 89.5537C559.255 84.608 571.368 87.1235 582.514 89.4942C596.272 92.8559 609.259 98.6897 621.752 105.393Z" fill="#D5E5FF"/>
<path d="M653.918 49.5248C654.423 49.82 654.932 50.1219 655.436 50.4225C655.621 50.5308 655.803 50.6445 655.989 50.7555C656.315 50.9491 656.641 51.1468 656.967 51.3445C657.152 51.4595 657.337 51.5733 657.523 51.6883C657.849 51.886 658.172 52.0837 658.496 52.2841C658.688 52.4059 658.879 52.5237 659.067 52.6442C659.38 52.8391 659.691 53.0327 660 53.2304C660.209 53.3617 660.416 53.4971 660.623 53.6285C660.918 53.8193 661.212 54.0062 661.503 54.1971C661.716 54.3365 661.931 54.4787 662.144 54.6195C662.426 54.8036 662.705 54.9877 662.988 55.1746C663.203 55.3208 663.423 55.4657 663.637 55.6146C663.928 55.8096 664.213 56.0032 664.5 56.1968C664.707 56.3389 664.916 56.4851 665.121 56.6273C665.397 56.8182 665.671 57.005 665.943 57.1986C666.161 57.3516 666.381 57.5073 666.599 57.6603C666.886 57.8647 667.168 58.0651 667.451 58.2696C667.645 58.4117 667.844 58.5539 668.04 58.696C668.329 58.9072 668.618 59.1225 668.907 59.3378C669.106 59.4826 669.302 59.6316 669.5 59.7778C669.794 59.9998 670.085 60.2205 670.379 60.4466C670.553 60.582 670.732 60.7174 670.907 60.8514C671.217 61.091 671.526 61.3334 671.832 61.5757C672.005 61.7111 672.176 61.8465 672.348 61.9819C672.633 62.2107 672.92 62.4422 673.205 62.6778C673.388 62.824 673.573 62.9729 673.754 63.1219C674.074 63.3859 674.393 63.6553 674.71 63.9234C674.851 64.0411 674.993 64.1549 675.131 64.2767C675.592 64.6639 676.046 65.0593 676.501 65.4586C676.954 65.8567 677.403 66.2588 677.85 66.6677C677.978 66.7827 678.102 66.9005 678.227 67.0183C678.546 67.3094 678.863 67.6005 679.176 67.8983C679.331 68.0432 679.485 68.1921 679.637 68.3384C679.92 68.6091 680.203 68.8785 680.481 69.1493C680.65 69.3159 680.818 69.4851 680.986 69.6516C681.249 69.9156 681.512 70.1756 681.771 70.4382C681.942 70.6115 682.11 70.7848 682.279 70.9622C682.528 71.2181 682.781 71.478 683.027 71.7379C683.208 71.9329 683.389 72.1265 683.568 72.3201C683.8 72.5665 684.032 72.8156 684.261 73.0688C684.44 73.2665 684.621 73.4682 684.8 73.6659C685.029 73.9217 685.257 74.1817 685.482 74.4416C685.661 74.6461 685.84 74.8505 686.015 75.0549C686.233 75.3122 686.452 75.5681 686.671 75.828C686.846 76.0365 687.02 76.2477 687.193 76.4589C687.415 76.7297 687.633 76.9991 687.853 77.274C688.013 77.4743 688.175 77.6788 688.336 77.8832C688.562 78.1675 688.781 78.4518 689.003 78.7402C689.158 78.9446 689.316 79.1491 689.467 79.3535C689.686 79.6405 689.898 79.9316 690.11 80.2227C690.265 80.4339 690.423 80.6465 690.575 80.8604C690.789 81.1582 691.002 81.4642 691.214 81.7648C691.369 81.9909 691.527 82.2129 691.678 82.4376C691.736 82.5202 691.79 82.6001 691.844 82.68C692.14 83.1173 692.429 83.5532 692.715 83.9933C692.752 84.0488 692.786 84.1043 692.819 84.1571C693.115 84.6174 693.412 85.0818 693.701 85.5502C693.728 85.599 693.758 85.6477 693.785 85.6951C694.085 86.1811 694.377 86.6699 694.668 87.1654C695.828 88.9715 696.875 90.9156 697.723 92.9776C697.8 93.1644 697.874 93.3513 697.949 93.5422C698.611 95.2481 699.133 97.0365 699.466 98.8968C699.503 99.1053 699.537 99.3138 699.571 99.5209C699.634 99.9365 699.688 100.36 699.735 100.783C699.823 101.632 699.873 102.495 699.876 103.371C699.876 103.593 699.873 103.813 699.87 104.033C699.863 104.255 699.856 104.477 699.846 104.699C699.826 105.144 699.792 105.593 699.746 106.044C699.739 106.166 699.729 106.297 699.712 106.428C699.708 106.481 699.699 106.537 699.692 106.588C699.682 106.675 699.671 106.761 699.655 106.852C699.645 106.921 699.632 106.997 699.617 107.07C699.604 107.146 699.593 107.223 699.578 107.302C699.561 107.388 699.54 107.483 699.524 107.572C699.507 107.641 699.494 107.708 699.479 107.781C699.453 107.895 699.425 108.01 699.399 108.128C699.386 108.176 699.375 108.221 699.365 108.266C699.325 108.421 699.285 108.585 699.241 108.748C699.062 109.42 698.834 110.165 698.571 110.958C698.54 111.052 698.508 111.149 698.477 111.247C698.352 111.618 698.217 111.998 698.079 112.391C698.059 112.446 698.04 112.501 698.019 112.556C697.865 112.987 697.699 113.427 697.528 113.877C697.518 113.905 697.507 113.929 697.501 113.953C697.319 114.431 697.127 114.92 696.929 115.424L697.39 115.666L673.942 162.962V162.954C671.917 167.149 668.894 170.819 665.179 173.162C662.975 174.676 660.703 175.827 658.394 176.697C658.377 176.7 658.364 176.707 658.351 176.711C658.101 176.804 657.855 176.895 657.607 176.982C657.564 176.995 657.519 177.009 657.475 177.026C657.243 177.106 657.007 177.182 656.776 177.255C656.722 177.273 656.671 177.29 656.617 177.304C656.388 177.377 656.16 177.446 655.931 177.511C655.873 177.529 655.816 177.542 655.759 177.56C655.534 177.626 655.305 177.688 655.076 177.747C655.025 177.762 654.975 177.771 654.925 177.786C654.688 177.844 654.451 177.906 654.214 177.962C654.205 177.962 654.198 177.966 654.188 177.966C653.639 178.093 653.087 178.208 652.535 178.313C652.373 178.34 652.212 178.368 652.047 178.395C651.912 178.42 651.778 178.444 651.64 178.464C651.498 178.489 651.353 178.506 651.213 178.531C651.057 178.551 650.906 178.575 650.751 178.597C650.62 178.613 650.488 178.631 650.361 178.646C650.183 178.669 650.007 178.69 649.832 178.711C649.718 178.724 649.607 178.735 649.496 178.746C649.301 178.766 649.105 178.786 648.911 178.804C648.816 178.811 648.721 178.822 648.628 178.828C648.399 178.85 648.171 178.866 647.938 178.881C647.884 178.884 647.827 178.891 647.774 178.895C647.504 178.912 647.231 178.926 646.962 178.939C646.939 178.939 646.911 178.939 646.887 178.944C646.585 178.957 646.285 178.968 645.986 178.975C644.751 179.008 643.522 178.995 642.307 178.944C642.294 178.944 642.284 178.944 642.274 178.944C641.914 178.929 641.557 178.908 641.196 178.888C640.981 178.873 640.763 178.864 640.547 178.846C640.228 178.826 639.904 178.801 639.585 178.773C639.582 178.773 639.578 178.773 639.574 178.773C638.373 178.673 637.188 178.548 636.021 178.402C607.775 175.186 582.786 161.219 560.995 143.6C550.69 134.551 540.977 123.329 537.838 107.85C537.245 102.602 538.531 96.7278 541.176 91.6887L541.186 91.6982C541.257 91.5669 541.324 91.4315 541.395 91.3001L554.857 64.0994V64.0966C554.968 63.8597 555.086 63.6214 555.196 63.3859C555.369 63.0244 555.539 62.6683 555.714 62.3109C555.897 61.9331 556.081 61.5554 556.266 61.1817C556.266 61.1777 556.27 61.1777 556.27 61.1736C556.273 61.1641 556.28 61.1533 556.284 61.1425C556.758 60.1826 557.246 59.2267 557.737 58.2736C557.737 58.2696 557.74 58.2696 557.74 58.2696L564.088 45.4429L564.906 45.8721C564.909 45.868 564.909 45.8653 564.913 45.8612C565.131 45.5255 565.353 45.1965 565.573 44.8702C565.649 44.7565 565.724 44.6455 565.801 44.5304C565.949 44.3165 566.093 44.1012 566.242 43.8927C566.336 43.7546 566.427 43.6233 566.521 43.4879C566.652 43.3038 566.781 43.1196 566.911 42.9396C566.999 42.815 567.087 42.6945 567.174 42.5727C567.312 42.3791 567.454 42.1882 567.592 42.0013C567.676 41.8863 567.76 41.7725 567.844 41.6575C568.005 41.4462 568.164 41.2378 568.322 41.0306C568.379 40.9575 568.433 40.8844 568.49 40.8113C568.705 40.5351 568.917 40.2684 569.129 40.0044C569.183 39.938 569.234 39.8757 569.288 39.8108C569.452 39.609 569.618 39.4087 569.779 39.2137C569.843 39.1419 569.907 39.0688 569.97 38.9917C570.116 38.8265 570.261 38.66 570.401 38.4961C570.479 38.4136 570.552 38.3269 570.627 38.243C570.761 38.094 570.896 37.9492 571.031 37.807C571.105 37.7271 571.18 37.6473 571.253 37.5714C571.394 37.4252 571.532 37.2831 571.674 37.145C571.734 37.0827 571.795 37.0204 571.855 36.9608C572.051 36.7672 572.25 36.5804 572.442 36.4071C572.474 36.376 572.505 36.3516 572.535 36.3205C572.701 36.1742 572.858 36.0361 573.016 35.9008C573.077 35.8561 573.134 35.81 573.191 35.7627C573.322 35.6544 573.458 35.5501 573.585 35.4499C573.693 35.37 573.801 35.2902 573.905 35.2184C573.922 35.2035 573.942 35.19 573.959 35.1791C573.963 35.1764 573.963 35.1764 573.963 35.1764C574.103 35.079 574.239 34.9923 574.377 34.9097C574.407 34.8881 574.44 34.8677 574.47 34.8501C574.605 34.7676 574.74 34.6904 574.871 34.6213C574.897 34.6119 574.921 34.597 574.945 34.5875C575.083 34.5144 575.221 34.4521 575.355 34.3925C575.729 34.203 576.103 34.0148 576.476 33.8388C577.227 33.4854 577.977 33.1632 578.728 32.8681C579.101 32.7191 579.477 32.5797 579.855 32.4484C580.232 32.317 580.609 32.1925 580.983 32.0706H580.985C581.736 31.8351 582.491 31.6239 583.248 31.4397C584.756 31.0688 586.266 30.7993 587.777 30.6152C588.531 30.5218 589.285 30.4487 590.039 30.3972C590.415 30.3729 590.792 30.3485 591.17 30.3309C591.547 30.3133 591.923 30.3038 592.3 30.293C593.055 30.2795 593.804 30.2795 594.555 30.293C594.928 30.2998 595.306 30.3133 595.679 30.3268C596.052 30.3417 596.427 30.358 596.803 30.3823C597.551 30.4243 598.294 30.4798 599.038 30.5489C599.411 30.58 599.782 30.6179 600.153 30.6572C600.526 30.6951 600.895 30.7371 601.266 30.7777C603.855 31.0796 606.415 31.4925 608.933 31.9217C609.649 32.0436 610.366 32.1681 611.076 32.2927C611.517 32.3834 611.954 32.4795 612.392 32.577C612.827 32.6745 613.263 32.7747 613.698 32.8748C614.132 32.9791 614.566 33.0833 615 33.1903C615.435 33.2972 615.865 33.4083 616.296 33.5233C616.727 33.6344 617.157 33.7481 617.588 33.8659C618.02 33.9837 618.447 34.1055 618.874 34.226C619.301 34.3519 619.729 34.4765 620.156 34.6037C620.583 34.7297 621.008 34.861 621.431 34.9923C621.86 35.1236 622.283 35.259 622.704 35.3944C623.128 35.5339 623.549 35.672 623.972 35.81C624.393 35.9522 624.814 36.0944 625.234 36.2406C625.655 36.3854 626.073 36.5344 626.49 36.6833C626.91 36.8336 627.328 36.9852 627.741 37.1382C628.159 37.2898 628.576 37.4469 628.99 37.6053C629.822 37.9207 630.649 38.243 631.473 38.5733C631.888 38.7398 632.299 38.905 632.709 39.0756C633.119 39.2448 633.531 39.4154 633.937 39.5887C635.576 40.2779 637.203 40.9954 638.821 41.7373C639.628 42.1083 640.433 42.486 641.233 42.8678C642.038 43.2523 642.84 43.6395 643.636 44.0322C646.029 45.2141 648.399 46.4434 650.751 47.7052C651.808 48.3023 652.861 48.9088 653.915 49.5221" fill="#003380"/>
<path d="M668.144 7.16467L741.454 131.043L750.274 133.778L746.973 140.363L595.868 151.216L517.042 18.0133L520.344 11.428L526.668 17.3228L668.144 7.16467Z" fill="#162D50"/>
<path d="M671.446 0.575317L520.344 11.428L599.173 144.631L750.274 133.778L671.446 0.575317Z" fill="#003380"/>
<path d="M629.445 69.4824C628.627 71.1152 630.589 73.8325 633.829 75.5573C637.067 77.2808 640.355 77.3566 641.177 75.7238C641.567 74.9413 641.328 73.8595 640.508 72.7223C639.682 71.5823 638.346 70.4762 636.791 69.649C635.237 68.8204 633.587 68.3384 632.211 68.3073C630.835 68.2761 629.838 68.6985 629.445 69.4824Z" fill="#DE8787"/>
<path d="M636.014 72.0398C636.424 71.9288 636.862 72.0127 637.205 72.2619C664.139 91.2514 691.052 110.214 704.134 120.927C710.677 126.282 713.81 129.505 715.156 132.351C715.829 133.771 715.991 135.168 715.769 136.388C715.546 137.612 715.028 138.621 714.524 139.632C712.496 143.671 709.562 149.201 706.581 154.824C706.341 155.302 705.871 155.607 705.349 155.624C704.827 155.642 704.339 155.368 704.07 154.907C703.804 154.446 703.798 153.871 704.061 153.407C707.042 147.781 709.97 142.256 711.969 138.274C712.466 137.275 712.824 136.502 712.941 135.848C713.063 135.193 713.029 134.613 712.571 133.647C711.659 131.72 708.781 128.514 702.348 123.242C689.475 112.702 662.517 93.6911 635.583 74.7056C635.112 74.3834 634.867 73.8039 634.961 73.2285C635.055 72.6531 635.466 72.1888 636.014 72.0398Z" fill="#DE8787"/>
<path d="M698.264 155.6C697.097 157.926 698.389 161.003 701.153 162.476C702.478 163.18 703.972 163.412 705.308 163.121C706.641 162.83 707.705 162.04 708.267 160.921C708.829 159.804 708.839 158.453 708.298 157.164C707.755 155.874 706.706 154.751 705.379 154.047C704.053 153.34 702.559 153.108 701.222 153.399C699.891 153.691 698.823 154.48 698.264 155.6Z" fill="#DE8787"/>
<path d="M703.461 168.337C702.808 174.905 700.26 186.294 696.603 191.854C692.944 197.413 688.175 197.146 684.924 195.376C681.67 193.603 679.936 190.335 681.243 185.431C682.548 180.528 686.893 173.994 690.797 169.193C694.698 164.396 698.161 161.336 700.512 160.677C702.868 160.023 704.111 161.77 703.461 168.337Z" fill="#DE8787"/>
<path d="M250.715 198.771C250.217 206.151 252.509 213.43 257.085 219C261.659 224.569 268.144 227.98 275.112 228.475C282.08 228.971 288.96 226.516 294.237 221.646C299.514 216.78 302.758 209.897 303.252 202.519C303.751 195.136 301.459 187.858 296.882 182.288C292.308 176.718 285.823 173.307 278.857 172.812C271.887 172.316 265.009 174.77 259.73 179.64C254.454 184.505 251.21 191.39 250.715 198.771Z" fill="#C83737"/>
<path d="M196.652 99.5006C202.438 99.3895 207.54 103.375 208.996 109.143C210.454 114.91 207.887 120.954 202.785 123.762L34.4168 219.644L98.23 432.628C99.6064 437.047 98.5718 441.886 95.5219 445.3C92.472 448.715 87.8773 450.176 83.4904 449.128C79.1035 448.08 75.6014 444.683 74.3222 440.234L7.50774 217.231C5.7606 211.399 8.22421 205.104 13.4091 202.148L190.682 101.196C192.503 100.125 194.555 99.5425 196.652 99.5006Z" fill="#DE8787"/>
<path d="M89.0461 410.105C136.24 410.173 175.225 453.685 178.015 509.396H0C2.78963 453.648 41.8235 410.124 89.0461 410.105Z" fill="#F5D479"/>
<path d="M71.7891 437.035C71.7891 444.132 77.2198 449.886 83.9191 449.886C87.1347 449.886 90.2201 448.532 92.4957 446.122C94.77 443.712 96.0478 440.444 96.0478 437.035C96.0478 433.627 94.77 430.359 92.4957 427.948C90.2201 425.538 87.1347 424.184 83.9191 424.184C77.2198 424.184 71.7891 429.938 71.7891 437.035Z" fill="white"/>
<path d="M246.562 195.382C245.529 210.753 256.453 224.052 270.961 225.085C277.927 225.585 284.807 223.127 290.084 218.26C295.361 213.392 298.605 206.507 299.103 199.128C299.598 191.746 297.306 184.471 292.729 178.897C288.155 173.328 281.67 169.917 274.704 169.422C260.196 168.389 247.595 180.01 246.562 195.382Z" fill="white"/>
<path d="M224.63 110.914L173.279 179.428C173.038 179.755 173.064 180.063 173.206 180.295L224.087 265.987C224.225 266.215 224.663 266.007 224.896 265.674L317.549 133.865C317.784 133.533 317.883 133.065 317.624 132.998L225.441 110.602C225.181 110.54 224.878 110.585 224.633 110.91" fill="#F5D479"/>
<path d="M225.579 96.5099C228.786 96.0306 231.966 97.6634 233.618 100.634C235.271 103.608 235.066 107.33 233.1 110.047L176.045 191.25C174.367 193.701 171.564 194.99 168.712 194.634C165.858 194.276 163.395 192.325 162.262 189.521C161.123 186.72 161.494 183.501 163.227 181.092L220.279 99.8891C221.537 98.0452 223.448 96.828 225.579 96.5099Z" fill="#003380"/>
<path d="M154.224 109.808C168.403 89.5779 197.992 87.0502 221.748 104.044L168.369 180.437C146.272 161.038 140.073 130.077 154.224 109.808Z" fill="#F5D479"/>
<path d="M93.0504 506.076C93.0241 505.965 93.0136 505.844 93.0097 505.729L92.99 503.93L92.8546 486.409C92.8322 483.922 98.8979 481.934 106.448 481.951H107.952C108.71 481.961 109.453 481.969 110.177 482.016V481.957L138.939 482.026L167.696 482.095L196.458 482.165L225.219 482.234L253.979 482.305L282.738 482.374L282.956 510.674L254.195 510.605L225.437 510.536L196.676 510.467L167.916 510.396L139.157 510.327L110.396 510.258V510.197C109.673 510.235 108.93 510.254 108.171 510.253L106.667 510.251C99.4711 510.234 93.5986 508.401 93.0478 506.075" fill="#003380"/>
<path d="M282.744 482.378L282.96 510.678L324.169 496.627L282.744 482.378Z" fill="#E9DDAF"/>
<path d="M324.169 496.627L315.799 499.447L315.756 493.76L324.169 496.627Z" fill="#0B1728"/>
<path d="M324.169 496.627L315.799 499.447L315.9 498.01L324.169 496.627Z" fill="#0B1728"/>
<path d="M324.17 496.684L315.901 498.009L315.827 495.248L324.17 496.684Z" fill="#0B1728"/>
</g>
<defs>
<clipPath id="clip0_4024_4741">
<rect width="869" height="508.507" fill="white"/>
</clipPath>
</defs>
</svg>
