<svg width="26" height="35" viewBox="0 0 26 35" fill="none" xmlns="http://www.w3.org/2000/svg">
<path d="M24.6704 15.9902L6.03956 1.62975C5.73356 1.39152 5.3695 1.20244 4.96838 1.0734C4.56726 0.944365 4.13702 0.87793 3.70248 0.87793C3.26794 0.87793 2.8377 0.944365 2.43658 1.0734C2.03546 1.20244 1.6714 1.39152 1.36539 1.62975C0.752319 2.10596 0.408203 2.75015 0.408203 3.42163C0.408203 4.0931 0.752319 4.73729 1.36539 5.2135L17.6591 17.9218L1.36539 30.5031C0.752319 30.9793 0.408203 31.6235 0.408203 32.295C0.408203 32.9664 0.752319 33.6106 1.36539 34.0868C1.67025 34.327 2.0338 34.5181 2.43497 34.6489C2.83615 34.7798 3.26697 34.8479 3.70248 34.8493C4.13799 34.8479 4.56881 34.7798 4.96998 34.6489C5.37116 34.5181 5.73471 34.327 6.03956 34.0868L24.6704 19.7264C25.0045 19.4884 25.2712 19.1995 25.4535 18.878C25.6359 18.5565 25.7301 18.2093 25.7301 17.8583C25.7301 17.5073 25.6359 17.1601 25.4535 16.8386C25.2712 16.517 25.0045 16.2282 24.6704 15.9902Z" fill="white"/>
</svg>
