<svg width="101" height="79" viewBox="0 0 101 79" fill="none" xmlns="http://www.w3.org/2000/svg">
<path d="M44.1875 78.2595C44.1875 78.2595 37.875 78.2595 37.875 71.7595C37.875 65.2595 44.1875 45.7595 69.4375 45.7595C94.6875 45.7595 101 65.2595 101 71.7595C101 78.2595 94.6875 78.2595 94.6875 78.2595H44.1875ZM69.4375 39.2595C74.46 39.2595 79.2769 37.2051 82.8283 33.5481C86.3798 29.8911 88.375 24.9312 88.375 19.7595C88.375 14.5878 86.3798 9.62789 82.8283 5.97093C79.2769 2.31397 74.46 0.259515 69.4375 0.259515C64.415 0.259515 59.5981 2.31397 56.0467 5.97093C52.4952 9.62789 50.5 14.5878 50.5 19.7595C50.5 24.9312 52.4952 29.8911 56.0467 33.5481C59.5981 37.2051 64.415 39.2595 69.4375 39.2595ZM26.2285 78.2595C29.3567 78.2595 31.5088 74.8872 31.5625 71.7595C31.5625 66.6985 32.9799 61.5515 35.6901 56.8923C38.3518 52.3164 36.8557 45.6928 31.5625 45.7595C6.3125 45.7595 0 65.2595 0 71.7595C0 78.2595 6.3125 78.2595 6.3125 78.2595C6.3125 78.2595 6.3125 78.2595 6.3125 78.2595H26.2285ZM28.4062 39.2595C32.5917 39.2595 36.6057 37.5475 39.5653 34.5C42.5248 31.4525 44.1875 27.3193 44.1875 23.0095C44.1875 18.6997 42.5248 14.5665 39.5653 11.519C36.6057 8.47156 32.5917 6.75951 28.4062 6.75951C24.2208 6.75951 20.2068 8.47156 17.2472 11.519C14.2877 14.5665 12.625 18.6997 12.625 23.0095C12.625 27.3193 14.2877 31.4525 17.2472 34.5C20.2068 37.5475 24.2208 39.2595 28.4062 39.2595Z" fill="white"/>
</svg>
