<svg width="84" height="65" viewBox="0 0 84 65" fill="none" xmlns="http://www.w3.org/2000/svg">
<g clip-path="url(#clip0_4426_1597)">
<path d="M47.7799 15.5728H75.1437C79.0027 15.5728 82.1601 18.6196 82.1601 22.3436V46.0415C82.1601 49.7655 79.0027 52.8123 75.1437 52.8123H71.6355V62.9686L57.6028 52.8123H33.0456C32.344 52.8123 31.6423 52.8123 31.2915 52.4738" fill="#8526FE"/>
<path d="M50.5864 8.80225H8.48828C4.62928 8.80225 1.47192 11.8491 1.47192 15.5731V39.271C1.47192 42.995 4.62928 46.0418 8.48828 46.0418H11.9965V56.1981L26.0292 46.0418H33.0455" fill="#5FE4D4"/>
<path d="M27.7834 61.2759H27.0817C26.0293 60.9373 25.6784 59.9217 26.0293 58.9061L51.9898 1.354C52.3406 0.338379 53.3931 -0.000162851 54.4455 0.338379C55.498 0.67692 55.8488 1.69254 55.498 2.70817L29.5374 60.2603C29.1866 60.9373 28.485 61.2759 27.7834 61.2759Z" fill="#AD59D4"/>
<path d="M71.6357 64.6615C71.2849 64.6615 70.9341 64.6615 70.5832 64.3229L56.9013 54.5052H33.0457C32.3441 54.5052 31.2917 54.5052 30.59 54.1667C29.5376 53.8281 29.1867 53.151 29.5376 52.1354C29.8884 51.1198 30.9408 50.7812 31.6425 51.1198C31.9933 51.1198 32.6949 51.4583 33.0457 51.4583H57.603C57.9538 51.4583 58.3046 51.4583 58.6554 51.7969L69.8816 59.9219V53.151C69.8816 52.1354 70.5832 51.4583 71.6357 51.4583H75.1439C77.9504 51.4583 80.4061 49.0885 80.4061 46.3802V22.6823C80.4061 19.974 77.9504 17.6042 75.1439 17.6042H47.7801C46.7276 17.6042 46.026 16.9271 46.026 15.9115C46.026 14.8958 46.7276 14.2188 47.7801 14.2188H75.1439C80.0553 14.2188 83.9143 17.9427 83.9143 22.6823V46.3802C83.9143 51.1198 80.0553 54.8438 75.1439 54.8438H73.3898V62.9687C73.3898 63.6458 73.039 64.3229 72.3373 64.3229C71.9865 64.6615 71.9865 64.6615 71.6357 64.6615Z" fill="#AD59D4"/>
<path d="M64.6191 44.3491C63.5666 44.3491 62.865 43.672 62.865 42.6564V29.1147C62.865 28.0991 62.1634 27.422 61.1109 27.422H54.0945C53.0421 27.422 52.3405 28.0991 52.3405 29.1147V42.6564C52.3405 43.672 51.6388 44.3491 50.5864 44.3491C49.5339 44.3491 48.8323 43.672 48.8323 42.6564V29.1147C48.8323 26.4064 51.288 24.0366 54.0945 24.0366H61.1109C63.9174 24.0366 66.3732 26.4064 66.3732 29.1147V42.6564C66.3732 43.672 65.6715 44.3491 64.6191 44.3491Z" fill="#AD59D4"/>
<path d="M62.865 37.5781H52.3404C51.288 37.5781 50.5863 36.901 50.5863 35.8854C50.5863 34.8698 51.288 34.1927 52.3404 34.1927H62.865C63.9174 34.1927 64.6191 34.8698 64.6191 35.8854C64.6191 36.901 63.9174 37.5781 62.865 37.5781ZM11.9964 57.8906C11.6456 57.8906 11.2948 57.8906 11.2948 57.5521C10.5931 57.2135 10.2423 56.5365 10.2423 56.1979V47.7344H8.48822C3.57677 47.7344 -0.282227 44.0104 -0.282227 39.2708V15.5729C-0.282227 10.8333 3.57677 7.10938 8.48822 7.10938H50.5863C51.6388 7.10938 52.3404 7.78646 52.3404 8.80208C52.3404 9.81771 51.6388 10.4948 50.5863 10.4948H8.48822C5.68168 10.4948 3.22595 12.8646 3.22595 15.5729V39.2708C3.22595 41.9792 5.68168 44.349 8.48822 44.349H11.9964C13.0488 44.349 13.7505 45.026 13.7505 46.0417V52.8125L24.9767 44.6875C25.3275 44.349 25.6783 44.349 26.0291 44.349H33.0455C34.0979 44.349 34.7995 45.026 34.7995 46.0417C34.7995 47.0573 34.0979 47.7344 33.0455 47.7344H26.7307L13.0488 57.5521C12.698 57.8906 12.3472 57.8906 11.9964 57.8906Z" fill="#AD59D4"/>
<path d="M71.6357 64.6615C71.2849 64.6615 70.9341 64.6615 70.5832 64.3229L56.9013 54.5052H33.0457C32.3441 54.5052 31.2917 54.5052 30.59 54.1667C29.5376 53.8281 29.1867 53.151 29.5376 52.1354C29.8884 51.1198 30.9408 50.7812 31.6425 51.1198C31.9933 51.1198 32.6949 51.4583 33.0457 51.4583H57.603C57.9538 51.4583 58.3046 51.4583 58.6554 51.7969L69.8816 59.9219V53.151C69.8816 52.1354 70.5832 51.4583 71.6357 51.4583H75.1439C77.9504 51.4583 80.4061 49.0885 80.4061 46.3802V22.6823C80.4061 19.974 77.9504 17.6042 75.1439 17.6042H47.7801C46.7276 17.6042 46.026 16.9271 46.026 15.9115C46.026 14.8958 46.7276 14.2188 47.7801 14.2188H75.1439C80.0553 14.2188 83.9143 17.9427 83.9143 22.6823V46.3802C83.9143 51.1198 80.0553 54.8438 75.1439 54.8438H73.3898V62.9687C73.3898 63.6458 73.039 64.3229 72.3373 64.3229C71.9865 64.6615 71.9865 64.6615 71.6357 64.6615Z" fill="#AD59D4"/>
<path d="M11.9964 57.8906C11.6456 57.8906 11.2948 57.8906 11.2948 57.5521C10.5931 57.2135 10.2423 56.5365 10.2423 56.1979V47.7344H8.48822C3.57677 47.7344 -0.282227 44.0104 -0.282227 39.2708V15.5729C-0.282227 10.8333 3.57677 7.10938 8.48822 7.10938H50.5864C51.6388 7.10938 52.3404 7.78646 52.3404 8.80208C52.3404 9.81771 51.6388 10.4948 50.5864 10.4948H8.48822C5.68168 10.4948 3.22595 12.8646 3.22595 15.5729V39.2708C3.22595 41.9792 5.68168 44.349 8.48822 44.349H11.9964C13.0488 44.349 13.7505 45.026 13.7505 46.0417V52.8125L24.9767 44.6875C25.3275 44.349 25.6783 44.349 26.0291 44.349H33.0455C34.0979 44.349 34.7996 45.026 34.7996 46.0417C34.7996 47.0573 34.0979 47.7344 33.0455 47.7344H26.7307L13.0488 57.5521C12.698 57.8906 12.3472 57.8906 11.9964 57.8906Z" fill="#AD59D4"/>
<path d="M33.0455 20.651H15.5046C14.4521 20.651 13.7505 19.974 13.7505 18.9583C13.7505 17.9427 14.4521 17.2656 15.5046 17.2656H33.0455C34.0979 17.2656 34.7996 17.9427 34.7996 18.9583C34.7996 19.974 34.0979 20.651 33.0455 20.651Z" fill="#AD59D4"/>
<path d="M32.6948 40.9634C32.344 40.9634 31.9931 40.9634 31.9931 40.6248C23.5735 36.5623 17.9604 28.0988 17.6096 19.2967C17.6096 18.2811 18.3113 17.604 19.3637 17.604C20.4162 17.604 21.1178 18.2811 21.1178 19.2967C21.4686 27.0832 26.3801 34.1925 33.7472 37.9165C34.4489 38.255 34.7997 39.2707 34.4489 40.2863C33.7472 40.6248 33.0456 40.9634 32.6948 40.9634Z" fill="#AD59D4"/>
<path d="M26.1221 41.7085C25.4205 41.7085 25.0697 41.37 24.7189 41.0314C24.0172 40.3543 24.3681 39.3387 25.0697 38.6616C30.6828 34.9377 34.191 29.1825 34.5418 22.4116C34.5418 21.396 35.2434 20.7189 36.2959 20.7189C37.3483 20.7189 38.0499 21.7345 38.0499 22.4116C37.6991 30.1981 33.4893 37.3075 26.8238 41.37C26.8238 41.7085 26.473 41.7085 26.1221 41.7085ZM31.3844 24.1043C30.332 24.1043 29.6303 23.4272 29.6303 22.4116V19.0262C29.6303 18.0106 30.332 17.3335 31.3844 17.3335C32.4369 17.3335 33.1385 18.0106 33.1385 19.0262V22.4116C33.1385 23.4272 32.4369 24.1043 31.3844 24.1043Z" fill="#AD59D4"/>
</g>
<defs>
<clipPath id="clip0_4426_1597">
<rect width="84" height="65" fill="white"/>
</clipPath>
</defs>
</svg>
