<svg width="107" height="90" viewBox="0 0 107 90" fill="none" xmlns="http://www.w3.org/2000/svg">
<g clip-path="url(#clip0_4379_1283)">
<path d="M60.8625 21.5625H95.7188C100.634 21.5625 104.656 25.7812 104.656 30.9375V63.75C104.656 68.9063 100.634 73.125 95.7188 73.125H91.25V87.1875L73.375 73.125H42.0938C41.2 73.125 40.3063 73.125 39.8594 72.6562" fill="#8526FE"/>
<path d="M64.4375 12.1875H10.8125C5.89687 12.1875 1.875 16.4062 1.875 21.5625V54.375C1.875 59.5313 5.89687 63.75 10.8125 63.75H15.2812V77.8125L33.1562 63.75H42.0938" fill="#5FE4D4"/>
<path d="M35.3906 84.8438H34.4969C33.1563 84.375 32.7094 82.9687 33.1563 81.5625L66.225 1.875C66.6719 0.468751 68.0125 -1.39698e-07 69.3531 0.46875C70.6938 0.9375 71.1406 2.34375 70.6938 3.75L37.625 83.4375C37.1781 84.375 36.2844 84.8438 35.3906 84.8438Z" fill="#AD59D4"/>
<path d="M91.25 89.5312C90.8031 89.5312 90.3563 89.5312 89.9094 89.0625L72.4813 75.4687H42.0938C41.2 75.4687 39.8594 75.4687 38.9656 75C37.625 74.5312 37.1781 73.5937 37.625 72.1875C38.0719 70.7812 39.4125 70.3125 40.3063 70.7812C40.7531 70.7812 41.6469 71.25 42.0938 71.25H73.375C73.8219 71.25 74.2688 71.25 74.7156 71.7188L89.0156 82.9688V73.5938C89.0156 72.1875 89.9094 71.25 91.25 71.25H95.7188C99.2938 71.25 102.422 67.9688 102.422 64.2188V31.4062C102.422 27.6562 99.2938 24.375 95.7188 24.375H60.8625C59.5219 24.375 58.6281 23.4375 58.6281 22.0312C58.6281 20.625 59.5219 19.6875 60.8625 19.6875H95.7188C101.975 19.6875 106.891 24.8438 106.891 31.4062V64.2188C106.891 70.7812 101.975 75.9375 95.7188 75.9375H93.4844V87.1875C93.4844 88.125 93.0375 89.0625 92.1438 89.0625C91.6969 89.5312 91.6969 89.5312 91.25 89.5312Z" fill="#AD59D4"/>
<path d="M82.3125 61.4062C80.9719 61.4062 80.0781 60.4688 80.0781 59.0625V40.3125C80.0781 38.9062 79.1844 37.9688 77.8438 37.9688H68.9062C67.5656 37.9688 66.6719 38.9062 66.6719 40.3125V59.0625C66.6719 60.4688 65.7781 61.4062 64.4375 61.4062C63.0969 61.4062 62.2031 60.4688 62.2031 59.0625V40.3125C62.2031 36.5625 65.3312 33.2812 68.9062 33.2812H77.8438C81.4188 33.2812 84.5469 36.5625 84.5469 40.3125V59.0625C84.5469 60.4688 83.6531 61.4062 82.3125 61.4062Z" fill="#AD59D4"/>
<path d="M80.0781 52.0312H66.6719C65.3312 52.0312 64.4375 51.0938 64.4375 49.6875C64.4375 48.2812 65.3312 47.3438 66.6719 47.3438H80.0781C81.4188 47.3438 82.3125 48.2812 82.3125 49.6875C82.3125 51.0938 81.4188 52.0312 80.0781 52.0312ZM15.2812 80.1562C14.8344 80.1562 14.3875 80.1562 14.3875 79.6875C13.4938 79.2187 13.0469 78.2813 13.0469 77.8125V66.0938H10.8125C4.55625 66.0938 -0.359375 60.9375 -0.359375 54.375V21.5625C-0.359375 15 4.55625 9.84375 10.8125 9.84375H64.4375C65.7781 9.84375 66.6719 10.7812 66.6719 12.1875C66.6719 13.5938 65.7781 14.5312 64.4375 14.5312H10.8125C7.2375 14.5312 4.10938 17.8125 4.10938 21.5625V54.375C4.10938 58.125 7.2375 61.4062 10.8125 61.4062H15.2812C16.6219 61.4062 17.5156 62.3437 17.5156 63.75V73.125L31.8156 61.875C32.2625 61.4063 32.7094 61.4062 33.1562 61.4062H42.0938C43.4344 61.4062 44.3281 62.3437 44.3281 63.75C44.3281 65.1563 43.4344 66.0938 42.0938 66.0938H34.05L16.6219 79.6875C16.175 80.1562 15.7281 80.1562 15.2812 80.1562Z" fill="#AD59D4"/>
<path d="M91.25 89.5312C90.8031 89.5312 90.3563 89.5312 89.9094 89.0625L72.4813 75.4687H42.0938C41.2 75.4687 39.8594 75.4687 38.9656 75C37.625 74.5312 37.1781 73.5937 37.625 72.1875C38.0719 70.7812 39.4125 70.3125 40.3063 70.7812C40.7531 70.7812 41.6469 71.25 42.0938 71.25H73.375C73.8219 71.25 74.2688 71.25 74.7156 71.7188L89.0156 82.9688V73.5938C89.0156 72.1875 89.9094 71.25 91.25 71.25H95.7188C99.2938 71.25 102.422 67.9688 102.422 64.2188V31.4062C102.422 27.6562 99.2938 24.375 95.7188 24.375H60.8625C59.5219 24.375 58.6281 23.4375 58.6281 22.0312C58.6281 20.625 59.5219 19.6875 60.8625 19.6875H95.7188C101.975 19.6875 106.891 24.8438 106.891 31.4062V64.2188C106.891 70.7812 101.975 75.9375 95.7188 75.9375H93.4844V87.1875C93.4844 88.125 93.0375 89.0625 92.1438 89.0625C91.6969 89.5312 91.6969 89.5312 91.25 89.5312Z" fill="#AD59D4"/>
<path d="M15.2812 80.1562C14.8344 80.1562 14.3875 80.1562 14.3875 79.6875C13.4938 79.2187 13.0469 78.2813 13.0469 77.8125V66.0938H10.8125C4.55625 66.0938 -0.359375 60.9375 -0.359375 54.375V21.5625C-0.359375 15 4.55625 9.84375 10.8125 9.84375H64.4375C65.7781 9.84375 66.6719 10.7812 66.6719 12.1875C66.6719 13.5938 65.7781 14.5312 64.4375 14.5312H10.8125C7.2375 14.5312 4.10938 17.8125 4.10938 21.5625V54.375C4.10938 58.125 7.2375 61.4062 10.8125 61.4062H15.2812C16.6219 61.4062 17.5156 62.3437 17.5156 63.75V73.125L31.8156 61.875C32.2625 61.4063 32.7094 61.4062 33.1562 61.4062H42.0938C43.4344 61.4062 44.3281 62.3437 44.3281 63.75C44.3281 65.1563 43.4344 66.0938 42.0938 66.0938H34.05L16.6219 79.6875C16.175 80.1562 15.7281 80.1562 15.2812 80.1562Z" fill="#AD59D4"/>
<path d="M42.0938 28.5938H19.75C18.4094 28.5938 17.5156 27.6563 17.5156 26.25C17.5156 24.8437 18.4094 23.9062 19.75 23.9062H42.0938C43.4344 23.9062 44.3281 24.8437 44.3281 26.25C44.3281 27.6563 43.4344 28.5938 42.0938 28.5938Z" fill="#AD59D4"/>
<path d="M41.6469 56.7187C41.2 56.7187 40.7531 56.7187 40.7531 56.25C30.0281 50.625 22.8781 38.9062 22.4312 26.7187C22.4312 25.3125 23.325 24.375 24.6656 24.375C26.0062 24.375 26.9 25.3125 26.9 26.7187C27.3469 37.5 33.6031 47.3437 42.9875 52.5C43.8812 52.9687 44.3281 54.375 43.8812 55.7812C42.9875 56.25 42.0937 56.7187 41.6469 56.7187Z" fill="#AD59D4"/>
<path d="M24.2188 52.9688C23.325 52.9688 22.8781 52.5 22.4313 52.0312C21.5375 51.0937 21.9844 49.6875 22.8781 48.75C30.0281 43.5937 34.4969 35.625 34.9438 26.25C34.9438 24.8437 35.8375 23.9062 37.1781 23.9062C38.5188 23.9062 39.4125 25.3125 39.4125 26.25C38.9656 37.0312 33.6031 46.875 25.1125 52.5C25.1125 52.9688 24.6656 52.9688 24.2188 52.9688ZM30.9219 28.5938C29.5813 28.5938 28.6875 27.6563 28.6875 26.25V21.5625C28.6875 20.1562 29.5813 19.2188 30.9219 19.2188C32.2625 19.2188 33.1563 20.1562 33.1563 21.5625V26.25C33.1563 27.6563 32.2625 28.5938 30.9219 28.5938Z" fill="#AD59D4"/>
</g>
<defs>
<clipPath id="clip0_4379_1283">
<rect width="107" height="90" fill="white"/>
</clipPath>
</defs>
</svg>
