<svg width="81" height="62" viewBox="0 0 81 62" fill="none" xmlns="http://www.w3.org/2000/svg">
<path d="M40.4999 0.125C42.0691 0.125058 43.5821 0.576489 44.7437 1.39126C45.9053 2.20603 46.6323 3.32573 46.783 4.532L46.8124 5V57C46.8116 58.252 46.1872 59.4557 45.0685 60.3618C43.9497 61.2678 42.4225 61.8068 40.8033 61.867C39.184 61.9271 37.5969 61.5039 36.3707 60.6849C35.1445 59.866 34.3733 58.7141 34.2169 57.468L34.1874 57V5C34.1874 3.70707 34.8525 2.46709 36.0363 1.55285C37.2201 0.638615 38.8257 0.125 40.4999 0.125ZM23.6666 9.875C25.3408 9.875 26.9464 10.3886 28.1302 11.3029C29.314 12.2171 29.9791 13.4571 29.9791 14.75V47.25C29.9791 48.5429 29.314 49.7829 28.1302 50.6971C26.9464 51.6114 25.3408 52.125 23.6666 52.125C21.9924 52.125 20.3868 51.6114 19.203 50.6971C18.0191 49.7829 17.3541 48.5429 17.3541 47.25V14.75C17.3541 13.4571 18.0191 12.2171 19.203 11.3029C20.3868 10.3886 21.9924 9.875 23.6666 9.875ZM57.3333 9.875C59.0074 9.875 60.613 10.3886 61.7969 11.3029C62.9807 12.2171 63.6458 13.4571 63.6458 14.75V47.25C63.6458 48.5429 62.9807 49.7829 61.7969 50.6971C60.613 51.6114 59.0074 52.125 57.3333 52.125C55.6591 52.125 54.0535 51.6114 52.8696 50.6971C51.6858 49.7829 51.0208 48.5429 51.0208 47.25V14.75C51.0208 13.4571 51.6858 12.2171 52.8696 11.3029C54.0535 10.3886 55.6591 9.875 57.3333 9.875ZM6.83325 19.625C8.50743 19.625 10.113 20.1386 11.2969 21.0529C12.4807 21.9671 13.1458 23.2071 13.1458 24.5V37.5C13.1458 38.7929 12.4807 40.0329 11.2969 40.9471C10.113 41.8614 8.50743 42.375 6.83325 42.375C5.15907 42.375 3.55346 41.8614 2.36964 40.9471C1.18582 40.0329 0.520752 38.7929 0.520752 37.5V24.5C0.520752 23.2071 1.18582 21.9671 2.36964 21.0529C3.55346 20.1386 5.15907 19.625 6.83325 19.625ZM74.1666 19.625C75.7358 19.6251 77.2487 20.0765 78.4104 20.8913C79.572 21.706 80.299 22.8257 80.4496 24.032L80.4791 24.5V37.5C80.4783 38.752 79.8538 39.9557 78.7351 40.8618C77.6164 41.7678 76.0892 42.3068 74.4699 42.367C72.8507 42.4271 71.2635 42.0039 70.0374 41.1849C68.8112 40.366 68.04 39.2141 67.8835 37.968L67.8541 37.5V24.5C67.8541 23.2071 68.5192 21.9671 69.703 21.0529C70.8868 20.1386 72.4924 19.625 74.1666 19.625Z" fill="white"/>
</svg>
