<svg width="60" height="60" viewBox="0 0 60 60" fill="none" xmlns="http://www.w3.org/2000/svg">
<path d="M8.57143 0C3.84375 0 0 3.84375 0 8.57143V51.4286C0 56.1562 3.84375 60 8.57143 60H51.4286C56.1562 60 60 56.1562 60 51.4286V8.57143C60 3.84375 56.1562 0 51.4286 0H8.57143ZM48.3616 11.25L34.4598 27.1339L50.8125 48.75H38.0089L27.9911 35.6384L16.5134 48.75H10.1518L25.0179 31.7545L9.33482 11.25H22.4598L31.5268 23.2366L42 11.25H48.3616ZM43.2991 44.9464L20.5446 14.8527H16.7545L39.7634 44.9464H43.2857H43.2991Z" fill="white"/>
</svg>
